<svg width="16" height="12" viewBox="0 0 16 12" fill="none" xmlns="http://www.w3.org/2000/svg">
<path d="M2 12C1.5875 12 1.2345 11.8533 0.941 11.5597C0.6475 11.2662 0.5005 10.913 0.5 10.5V1.5C0.5 1.0875 0.647 0.7345 0.941 0.441C1.235 0.1475 1.588 0.0005 2 0H14C14.4125 0 14.7657 0.147 15.0597 0.441C15.3538 0.735 15.5005 1.088 15.5 1.5V10.5C15.5 10.9125 15.3533 11.2657 15.0597 11.5597C14.7662 11.8538 14.413 12.0005 14 12H2ZM8 6.61875C8.0625 6.61875 8.12825 6.60925 8.19725 6.59025C8.26625 6.57125 8.33175 6.54325 8.39375 6.50625L13.7 3.1875C13.8 3.125 13.875 3.047 13.925 2.9535C13.975 2.86 14 2.75675 14 2.64375C14 2.39375 13.8938 2.20625 13.6813 2.08125C13.4688 1.95625 13.25 1.9625 13.025 2.1L8 5.25L2.975 2.1C2.75 1.9625 2.53125 1.9595 2.31875 2.091C2.10625 2.2225 2 2.40675 2 2.64375C2 2.76875 2.025 2.87825 2.075 2.97225C2.125 3.06625 2.2 3.138 2.3 3.1875L7.60625 6.50625C7.66875 6.54375 7.7345 6.572 7.8035 6.591C7.8725 6.61 7.938 6.61925 8 6.61875Z" fill="white"/>
</svg>
