<svg width="161" height="47" viewBox="0 0 161 47" fill="none" xmlns="http://www.w3.org/2000/svg">
<path d="M159.181 41.2622C159.181 43.7136 157.153 45.6993 154.646 45.6993H6.25922C3.75317 45.6993 1.71899 43.7136 1.71899 41.2622V5.87802C1.71899 3.42778 3.75317 1.43515 6.25922 1.43515H154.645C157.153 1.43515 159.179 3.42778 159.179 5.87802L159.181 41.2622Z" fill="black"/>
<path d="M154.167 1.48815C156.897 1.48815 159.119 3.65447 159.119 6.31672V40.8167C159.119 43.479 156.897 45.6453 154.167 45.6453H6.73093C4.00042 45.6453 1.77856 43.479 1.77856 40.8167V6.31672C1.77856 3.65447 4.00042 1.48815 6.73093 1.48815H154.167ZM154.167 0.566719H6.73093C3.48882 0.566719 0.833496 3.15566 0.833496 6.31672V40.8167C0.833496 43.9778 3.48882 46.5667 6.73093 46.5667H154.167C157.409 46.5667 160.064 43.9778 160.064 40.8167V6.31672C160.064 3.15566 157.409 0.566719 154.167 0.566719Z" fill="#A6A6A6"/>
<path d="M36.3706 23.3173C36.3363 19.6108 39.4832 17.8076 39.6271 17.7237C37.8449 15.1902 35.0826 14.8441 34.1118 14.8165C31.7918 14.5784 29.5413 16.17 28.3595 16.17C27.154 16.17 25.3341 14.8395 23.3726 14.8786C20.8485 14.9165 18.4872 16.3414 17.1921 18.554C14.5194 23.0654 16.5127 29.6952 19.0734 33.3418C20.3543 35.1278 21.8511 37.1219 23.8102 37.0517C25.7269 36.9747 26.4428 35.8603 28.7558 35.8603C31.0475 35.8603 31.7198 37.0517 33.7179 37.0069C35.7749 36.9747 37.07 35.2129 38.3061 33.4108C39.7863 31.3638 40.3808 29.3479 40.4044 29.2444C40.356 29.2283 36.4095 27.7597 36.3706 23.3173Z" fill="white"/>
<path d="M32.5962 12.4176C33.6271 11.1606 34.3324 9.45056 34.1366 7.71521C32.6446 7.77961 30.7786 8.72146 29.7041 9.95081C28.7534 11.0341 27.9042 12.8097 28.1236 14.4795C29.7996 14.6014 31.5205 13.655 32.5962 12.4176Z" fill="white"/>
<path d="M64.105 36.7967H61.4264L59.9592 32.3014H54.8591L53.4614 36.7967H50.8535L55.9064 21.4925H59.0274L64.105 36.7967ZM59.5168 30.4154L58.1899 26.4191C58.0496 26.0109 57.7865 25.0495 57.3985 23.5361H57.3513C57.1968 24.187 56.9479 25.1484 56.6059 26.4191L55.3025 30.4154H59.5168Z" fill="white"/>
<path d="M77.0957 31.144C77.0957 33.0208 76.5755 34.5043 75.5352 35.5934C74.6034 36.5628 73.4464 37.047 72.0652 37.047C70.5743 37.047 69.5033 36.5249 68.8511 35.4807H68.8039V41.2939H66.2892V29.3949C66.2892 28.215 66.2574 27.004 66.196 25.762H68.4076L68.5479 27.5112H68.5951C69.4337 26.1933 70.7064 25.5355 72.4143 25.5355C73.7495 25.5355 74.8641 26.0495 75.7558 27.0788C76.6498 28.1092 77.0957 29.4639 77.0957 31.144ZM74.5338 31.2337C74.5338 30.1596 74.2861 29.2741 73.7884 28.5772C73.2447 27.8504 72.5146 27.487 71.5993 27.487C70.9789 27.487 70.4151 27.6894 69.9114 28.0885C69.4066 28.491 69.0763 29.0165 68.9218 29.6674C68.844 29.971 68.8051 30.2194 68.8051 30.4149V32.2549C68.8051 33.0576 69.0575 33.735 69.5623 34.2881C70.0671 34.8413 70.7229 35.1173 71.5297 35.1173C72.4768 35.1173 73.214 34.7608 73.7412 34.0501C74.2696 33.3382 74.5338 32.3998 74.5338 31.2337Z" fill="white"/>
<path d="M90.1179 31.144C90.1179 33.0208 89.5978 34.5043 88.5563 35.5934C87.6257 36.5628 86.4686 37.047 85.0874 37.047C83.5966 37.047 82.5256 36.5249 81.8745 35.4807H81.8273V41.2939H79.3127V29.3949C79.3127 28.215 79.2808 27.004 79.2195 25.762H81.431L81.5714 27.5112H81.6186C82.456 26.1933 83.7287 25.5355 85.4377 25.5355C86.7717 25.5355 87.8864 26.0495 88.7804 27.0788C89.6709 28.1092 90.1179 29.4639 90.1179 31.144ZM87.5561 31.2337C87.5561 30.1596 87.3072 29.2741 86.8095 28.5772C86.2657 27.8504 85.538 27.487 84.6215 27.487C83.9999 27.487 83.4373 27.6894 82.9325 28.0885C82.4277 28.491 82.0986 29.0165 81.9441 29.6674C81.8674 29.971 81.8273 30.2194 81.8273 30.4149V32.2549C81.8273 33.0576 82.0797 33.735 82.5822 34.2881C83.087 34.8401 83.7428 35.1173 84.5519 35.1173C85.4991 35.1173 86.2363 34.7608 86.7635 34.0501C87.2919 33.3382 87.5561 32.3998 87.5561 31.2337Z" fill="white"/>
<path d="M104.672 32.506C104.672 33.8078 104.209 34.867 103.278 35.6846C102.255 36.5782 100.832 37.0244 99.0024 37.0244C97.3134 37.0244 95.9593 36.707 94.9343 36.071L95.517 34.0275C96.621 34.6784 97.8323 35.005 99.1522 35.005C100.099 35.005 100.836 34.7957 101.366 34.3794C101.893 33.9631 102.156 33.4042 102.156 32.7073C102.156 32.0863 101.939 31.563 101.504 31.1387C101.071 30.7143 100.348 30.3199 99.3385 29.9553C96.5903 28.956 95.2174 27.492 95.2174 25.5669C95.2174 24.3088 95.6986 23.2773 96.6623 22.4746C97.6224 21.6707 98.9033 21.2694 100.505 21.2694C101.933 21.2694 103.12 21.512 104.067 21.9962L103.438 23.9949C102.554 23.5257 101.554 23.2911 100.434 23.2911C99.5497 23.2911 98.8585 23.5038 98.3631 23.927C97.9444 24.3054 97.7344 24.7665 97.7344 25.3128C97.7344 25.9177 97.9739 26.4179 98.4551 26.8112C98.8738 27.1746 99.6346 27.5679 100.739 27.9923C102.089 28.5224 103.081 29.1423 103.719 29.853C104.355 30.5614 104.672 31.448 104.672 32.506Z" fill="white"/>
<path d="M112.988 27.602H110.216V32.9599C110.216 34.3226 110.705 35.0034 111.684 35.0034C112.133 35.0034 112.506 34.9655 112.801 34.8896L112.87 36.7514C112.375 36.932 111.723 37.0228 110.915 37.0228C109.921 37.0228 109.145 36.7273 108.585 36.1373C108.027 35.5462 107.746 34.5549 107.746 33.1623V27.5997H106.095V25.7597H107.746V23.7392L110.216 23.0124V25.7597H112.988V27.602Z" fill="white"/>
<path d="M125.495 31.1895C125.495 32.8857 124.998 34.2784 124.005 35.3674C122.963 36.4887 121.581 37.0476 119.857 37.0476C118.197 37.0476 116.875 36.5105 115.888 35.4364C114.902 34.3623 114.409 33.0065 114.409 31.3723C114.409 29.6623 114.917 28.2616 115.934 27.1725C116.95 26.0823 118.321 25.5372 120.044 25.5372C121.705 25.5372 123.041 26.0743 124.049 27.1495C125.014 28.1926 125.495 29.5392 125.495 31.1895ZM122.886 31.2688C122.886 30.2511 122.663 29.3782 122.212 28.6503C121.684 27.7694 120.931 27.3301 119.954 27.3301C118.943 27.3301 118.176 27.7705 117.648 28.6503C117.197 29.3794 116.974 30.266 116.974 31.3148C116.974 32.3326 117.197 33.2054 117.648 33.9322C118.192 34.8131 118.952 35.2524 119.932 35.2524C120.892 35.2524 121.646 34.8039 122.189 33.9092C122.653 33.1675 122.886 32.2854 122.886 31.2688Z" fill="white"/>
<path d="M133.671 27.9183C133.422 27.8734 133.157 27.8504 132.878 27.8504C131.994 27.8504 131.31 28.1759 130.828 28.8279C130.41 29.4029 130.2 30.1297 130.2 31.0072V36.7974H127.686L127.71 29.2373C127.71 27.9654 127.678 26.8074 127.615 25.7632H129.806L129.898 27.8746H129.967C130.233 27.1489 130.651 26.5647 131.225 26.1266C131.785 25.7321 132.39 25.5355 133.042 25.5355C133.275 25.5355 133.485 25.5516 133.671 25.5803V27.9183Z" fill="white"/>
<path d="M144.913 30.759C144.913 31.1983 144.884 31.5686 144.821 31.8711H137.277C137.307 32.9613 137.671 33.795 138.372 34.37C139.007 34.8841 139.83 35.1417 140.839 35.1417C141.956 35.1417 142.975 34.968 143.892 34.6196L144.286 36.3216C143.215 36.777 141.95 37.0035 140.491 37.0035C138.736 37.0035 137.359 36.4998 136.356 35.4936C135.356 34.4873 134.854 33.1361 134.854 31.441C134.854 29.7769 135.32 28.3912 136.253 27.286C137.23 26.1061 138.55 25.5162 140.211 25.5162C141.842 25.5162 143.077 26.1061 143.915 27.286C144.579 28.2233 144.913 29.3825 144.913 30.759ZM142.515 30.1231C142.532 29.3963 142.368 28.7684 142.027 28.2382C141.592 27.5563 140.923 27.2159 140.023 27.2159C139.201 27.2159 138.532 27.5482 138.021 28.2152C137.603 28.7454 137.354 29.3813 137.277 30.1219H142.515V30.1231Z" fill="white"/>
<path d="M58.6782 12.0793C58.6782 13.4329 58.2618 14.4518 57.4303 15.136C56.6601 15.7674 55.5655 16.0836 54.1478 16.0836C53.4448 16.0836 52.8432 16.0537 52.3396 15.9939V8.59829C52.9966 8.49479 53.7043 8.44189 54.4686 8.44189C55.8191 8.44189 56.837 8.72824 57.5235 9.30094C58.2925 9.94839 58.6782 10.8741 58.6782 12.0793ZM57.3748 12.1127C57.3748 11.2352 57.1366 10.5625 56.6601 10.0933C56.1836 9.62524 55.4877 9.39064 54.5712 9.39064C54.182 9.39064 53.8505 9.41594 53.5757 9.46884V15.0912C53.7279 15.1142 54.0062 15.1245 54.4108 15.1245C55.3567 15.1245 56.0868 14.8681 56.6011 14.3552C57.1154 13.8423 57.3748 13.0948 57.3748 12.1127Z" fill="white"/>
<path d="M65.5936 13.2615C65.5936 14.0952 65.3495 14.7783 64.8612 15.3142C64.3493 15.865 63.6711 16.1399 62.8242 16.1399C62.008 16.1399 61.3581 15.8766 60.8733 15.3475C60.3897 14.8197 60.1479 14.1539 60.1479 13.3512C60.1479 12.5117 60.3968 11.8228 60.8969 11.2881C61.397 10.7533 62.0693 10.4854 62.9162 10.4854C63.7324 10.4854 64.3882 10.7487 64.8848 11.2766C65.3566 11.7895 65.5936 12.4519 65.5936 13.2615ZM64.3115 13.3006C64.3115 12.8003 64.2007 12.3714 63.9801 12.0137C63.7206 11.5813 63.3514 11.3651 62.8714 11.3651C62.3748 11.3651 61.9974 11.5813 61.7379 12.0137C61.5162 12.3714 61.4065 12.8072 61.4065 13.3224C61.4065 13.8227 61.5173 14.2516 61.7379 14.6093C62.0056 15.0416 62.3784 15.2579 62.8596 15.2579C63.3314 15.2579 63.7017 15.0382 63.9683 14.5978C64.1971 14.2332 64.3115 13.8008 64.3115 13.3006Z" fill="white"/>
<path d="M74.8596 10.596L73.1199 16.0171H71.9876L71.2669 13.6631C71.0841 13.0754 70.9355 12.4912 70.8199 11.9116H70.7974C70.6901 12.5073 70.5415 13.0904 70.3504 13.6631L69.5849 16.0171H68.4397L66.8037 10.596H68.074L68.7027 13.1732C68.8548 13.7827 68.9799 14.3634 69.0801 14.9131H69.1025C69.1945 14.46 69.3467 13.8827 69.5613 13.1847L70.3504 10.5972H71.3577L72.1138 13.1295C72.2966 13.747 72.4452 14.3416 72.5596 14.9143H72.5938C72.6776 14.3565 72.8038 13.762 72.9712 13.1295L73.6459 10.5972H74.8596V10.596Z" fill="white"/>
<path d="M81.2638 16.0168H80.0277V12.9118C80.0277 11.955 79.6549 11.4766 78.9072 11.4766C78.5403 11.4766 78.2443 11.6077 78.0143 11.871C77.7866 12.1344 77.6711 12.4449 77.6711 12.8002V16.0156H76.435V12.1447C76.435 11.6686 76.4196 11.1523 76.3901 10.5934H77.4764L77.5342 11.4409H77.5684C77.7123 11.1776 77.927 10.9602 78.2089 10.7866C78.5439 10.5842 78.9189 10.4818 79.3294 10.4818C79.8484 10.4818 80.2801 10.6451 80.6233 10.9729C81.0503 11.3742 81.2638 11.9734 81.2638 12.7692V16.0168Z" fill="white"/>
<path d="M84.6744 16.0166H83.4395V8.10806H84.6744V16.0166Z" fill="white"/>
<path d="M91.9564 13.2615C91.9564 14.0952 91.7123 14.7783 91.224 15.3142C90.7121 15.865 90.0327 16.1399 89.187 16.1399C88.3696 16.1399 87.7197 15.8766 87.2361 15.3475C86.7525 14.8197 86.5107 14.1539 86.5107 13.3512C86.5107 12.5117 86.7596 11.8228 87.2597 11.2881C87.7598 10.7533 88.4321 10.4854 89.2778 10.4854C90.0952 10.4854 90.7498 10.7487 91.2476 11.2766C91.7194 11.7895 91.9564 12.4519 91.9564 13.2615ZM90.6732 13.3006C90.6732 12.8003 90.5623 12.3714 90.3417 12.0137C90.0834 11.5813 89.713 11.3651 89.2342 11.3651C88.7364 11.3651 88.359 11.5813 88.1007 12.0137C87.8789 12.3714 87.7693 12.8072 87.7693 13.3224C87.7693 13.8227 87.8801 14.2516 88.1007 14.6093C88.3684 15.0416 88.7412 15.2579 89.2224 15.2579C89.6942 15.2579 90.0634 15.0382 90.3299 14.5978C90.5599 14.2332 90.6732 13.8008 90.6732 13.3006Z" fill="white"/>
<path d="M97.935 16.0168H96.8251L96.7331 15.3924H96.6989C96.3191 15.8904 95.7777 16.1399 95.0747 16.1399C94.5498 16.1399 94.1252 15.9755 93.8056 15.6488C93.5154 15.3522 93.3704 14.983 93.3704 14.5449C93.3704 13.8825 93.6534 13.3776 94.2231 13.028C94.7916 12.6784 95.5913 12.5071 96.621 12.5151V12.4139C96.621 11.6998 96.2365 11.3433 95.4663 11.3433C94.9178 11.3433 94.4343 11.4778 94.0167 11.7446L93.7655 10.9534C94.2821 10.6418 94.9202 10.4854 95.6727 10.4854C97.1258 10.4854 97.8548 11.2329 97.8548 12.7279V14.7243C97.8548 15.2659 97.8819 15.6971 97.935 16.0168ZM96.6517 14.1539V13.3178C95.2882 13.2948 94.6065 13.6594 94.6065 14.4103C94.6065 14.6932 94.6843 14.9048 94.8435 15.0462C95.0028 15.1877 95.2056 15.2579 95.4474 15.2579C95.7187 15.2579 95.9723 15.1739 96.2035 15.0072C96.4358 14.8393 96.5786 14.6265 96.6316 14.3655C96.6446 14.3068 96.6517 14.2355 96.6517 14.1539Z" fill="white"/>
<path d="M104.961 16.0166H103.864L103.807 15.1461H103.772C103.422 15.8085 102.825 16.1397 101.987 16.1397C101.317 16.1397 100.759 15.8832 100.316 15.3703C99.8741 14.8574 99.6536 14.1916 99.6536 13.3739C99.6536 12.4965 99.893 11.7858 100.374 11.243C100.84 10.737 101.411 10.484 102.09 10.484C102.837 10.484 103.36 10.7289 103.657 11.22H103.68V8.10806H104.918V14.5561C104.918 15.084 104.932 15.5704 104.961 16.0166ZM103.68 13.7304V12.8265C103.68 12.6701 103.669 12.5436 103.646 12.447C103.577 12.1572 103.427 11.9134 103.199 11.7168C102.969 11.5201 102.692 11.4212 102.372 11.4212C101.911 11.4212 101.55 11.5995 101.285 11.9571C101.022 12.3148 100.888 12.7713 100.888 13.3291C100.888 13.865 101.015 14.2997 101.268 14.6343C101.536 14.9908 101.897 15.1691 102.349 15.1691C102.754 15.1691 103.079 15.0207 103.325 14.7229C103.564 14.448 103.68 14.1168 103.68 13.7304Z" fill="white"/>
<path d="M115.529 13.2615C115.529 14.0952 115.285 14.7783 114.796 15.3142C114.285 15.865 113.608 16.1399 112.76 16.1399C111.944 16.1399 111.295 15.8766 110.809 15.3475C110.325 14.8197 110.083 14.1539 110.083 13.3512C110.083 12.5117 110.332 11.8228 110.832 11.2881C111.332 10.7533 112.005 10.4854 112.853 10.4854C113.668 10.4854 114.325 10.7487 114.82 11.2766C115.292 11.7895 115.529 12.4519 115.529 13.2615ZM114.248 13.3006C114.248 12.8003 114.137 12.3714 113.917 12.0137C113.656 11.5813 113.288 11.3651 112.807 11.3651C112.311 11.3651 111.934 11.5813 111.673 12.0137C111.451 12.3714 111.342 12.8072 111.342 13.3224C111.342 13.8227 111.453 14.2516 111.673 14.6093C111.941 15.0416 112.314 15.2579 112.795 15.2579C113.267 15.2579 113.638 15.0382 113.905 14.5978C114.132 14.2332 114.248 13.8008 114.248 13.3006Z" fill="white"/>
<path d="M122.174 16.0168H120.939V12.9118C120.939 11.955 120.566 11.4766 119.817 11.4766C119.45 11.4766 119.154 11.6077 118.925 11.871C118.697 12.1344 118.582 12.4449 118.582 12.8002V16.0156H117.345V12.1447C117.345 11.6686 117.331 11.1523 117.301 10.5934H118.386L118.444 11.4409H118.478C118.623 11.1776 118.838 10.9602 119.119 10.7866C119.455 10.5842 119.829 10.4818 120.241 10.4818C120.758 10.4818 121.19 10.6451 121.533 10.9729C121.961 11.3742 122.174 11.9734 122.174 12.7692V16.0168Z" fill="white"/>
<path d="M130.499 11.4995H129.138V14.133C129.138 14.8023 129.38 15.1369 129.858 15.1369C130.08 15.1369 130.264 15.1185 130.409 15.0806L130.441 15.9948C130.197 16.0845 129.876 16.1294 129.481 16.1294C128.993 16.1294 128.613 15.9845 128.338 15.6947C128.062 15.4049 127.925 14.9173 127.925 14.233V11.4995H127.113V10.5967H127.925V9.60311L129.137 9.24661V10.5956H130.498V11.4995H130.499Z" fill="white"/>
<path d="M137.037 16.0166H135.8V12.9346C135.8 11.9629 135.427 11.4764 134.68 11.4764C134.107 11.4764 133.715 11.7582 133.501 12.3217C133.464 12.4401 133.443 12.585 133.443 12.7552V16.0155H132.208V8.10806H133.443V11.3752H133.467C133.856 10.7807 134.414 10.484 135.137 10.484C135.649 10.484 136.072 10.6473 136.408 10.975C136.827 11.3833 137.037 11.9905 137.037 12.7932V16.0166Z" fill="white"/>
<path d="M143.793 13.0514C143.793 13.2676 143.776 13.4493 143.747 13.5977H140.04C140.056 14.1336 140.233 14.5418 140.576 14.8247C140.89 15.0777 141.295 15.2042 141.79 15.2042C142.339 15.2042 142.839 15.1191 143.289 14.9478L143.483 15.785C142.955 16.0081 142.335 16.1196 141.617 16.1196C140.756 16.1196 140.077 15.8724 139.587 15.3779C139.094 14.8834 138.85 14.2198 138.85 13.3872C138.85 12.5696 139.077 11.8888 139.536 11.346C140.015 10.7664 140.662 10.4766 141.48 10.4766C142.28 10.4766 142.887 10.7664 143.297 11.346C143.629 11.806 143.793 12.3752 143.793 13.0514ZM142.613 12.7398C142.623 12.3821 142.541 12.0739 142.374 11.814C142.159 11.4794 141.833 11.3115 141.39 11.3115C140.987 11.3115 140.658 11.4748 140.407 11.8025C140.201 12.0636 140.08 12.3752 140.04 12.7398H142.613Z" fill="white"/>
<rect width="94" height="10" transform="translate(51 8)" fill="black"/>
<path d="M53.56 15.096C53.2528 15.096 52.9605 15.0427 52.6832 14.936C52.4101 14.8293 52.1669 14.6757 51.9536 14.4752C51.7445 14.2704 51.5781 14.0229 51.4544 13.7328C51.3307 13.4384 51.2688 13.1056 51.2688 12.7344C51.2688 12.3632 51.3328 12.0325 51.4608 11.7424C51.5888 11.448 51.7573 11.2005 51.9664 11C52.1797 10.7952 52.4229 10.6395 52.696 10.5328C52.9733 10.4219 53.2592 10.3664 53.5536 10.3664C53.8395 10.3664 54.0976 10.4069 54.328 10.488C54.5584 10.5648 54.7589 10.6715 54.9296 10.808C55.1003 10.9403 55.2411 11.096 55.352 11.2752C55.4629 11.4544 55.544 11.6421 55.5952 11.8384L54.872 12.0816C54.8379 11.9451 54.7845 11.8171 54.712 11.6976C54.6437 11.5739 54.5541 11.4672 54.4432 11.3776C54.3365 11.288 54.2085 11.2176 54.0592 11.1664C53.9141 11.1152 53.7456 11.0896 53.5536 11.0896C53.3659 11.0896 53.1824 11.1237 53.0032 11.192C52.824 11.2603 52.664 11.3627 52.5232 11.4992C52.3824 11.6357 52.2693 11.8085 52.184 12.0176C52.0987 12.2224 52.056 12.4613 52.056 12.7344C52.056 12.9989 52.0965 13.2336 52.1776 13.4384C52.2629 13.6389 52.376 13.8075 52.5168 13.944C52.6576 14.0805 52.8176 14.1851 52.9968 14.2576C53.1803 14.3259 53.368 14.36 53.56 14.36C53.752 14.36 53.9227 14.3323 54.072 14.2768C54.2213 14.2213 54.3515 14.1467 54.4624 14.0528C54.5733 13.9589 54.6651 13.8523 54.7376 13.7328C54.8144 13.6133 54.872 13.4896 54.9104 13.3616L55.6144 13.592C55.5632 13.784 55.4821 13.9717 55.3712 14.1552C55.2603 14.3344 55.1173 14.4944 54.9424 14.6352C54.7717 14.7717 54.5712 14.8827 54.3408 14.968C54.1104 15.0533 53.8501 15.096 53.56 15.096ZM56.856 12.728C56.856 13.0011 56.8987 13.24 56.984 13.4448C57.0736 13.6496 57.1888 13.8203 57.3296 13.9568C57.4704 14.0933 57.6304 14.1957 57.8096 14.264C57.9931 14.3323 58.1808 14.3664 58.3728 14.3664C58.5648 14.3664 58.7525 14.3323 58.936 14.264C59.1195 14.1957 59.2816 14.0933 59.4224 13.9568C59.5632 13.8203 59.6763 13.6496 59.7616 13.4448C59.8512 13.24 59.896 13.0011 59.896 12.728C59.896 12.4549 59.8512 12.216 59.7616 12.0112C59.6763 11.8064 59.5632 11.6357 59.4224 11.4992C59.2816 11.3627 59.1195 11.2603 58.936 11.192C58.7525 11.1237 58.5648 11.0896 58.3728 11.0896C58.1808 11.0896 57.9931 11.1237 57.8096 11.192C57.6304 11.2603 57.4704 11.3627 57.3296 11.4992C57.1888 11.6357 57.0736 11.8064 56.984 12.0112C56.8987 12.216 56.856 12.4549 56.856 12.728ZM56.0688 12.728C56.0688 12.3568 56.1328 12.0261 56.2608 11.736C56.3888 11.4416 56.5595 11.1941 56.7728 10.9936C56.9861 10.7888 57.2315 10.6331 57.5088 10.5264C57.7861 10.4197 58.0741 10.3664 58.3728 10.3664C58.6715 10.3664 58.9595 10.4197 59.2368 10.5264C59.5141 10.6331 59.7595 10.7888 59.9728 10.9936C60.1861 11.1941 60.3568 11.4416 60.4848 11.736C60.6171 12.0261 60.6832 12.3568 60.6832 12.728C60.6832 13.0992 60.6171 13.432 60.4848 13.7264C60.3568 14.0208 60.1861 14.2704 59.9728 14.4752C59.7595 14.6757 59.5141 14.8293 59.2368 14.936C58.9595 15.0427 58.6715 15.096 58.3728 15.096C58.0741 15.096 57.7861 15.0427 57.5088 14.936C57.2315 14.8293 56.9861 14.6757 56.7728 14.4752C56.5595 14.2704 56.3888 14.0208 56.2608 13.7264C56.1328 13.432 56.0688 13.0992 56.0688 12.728ZM65.7244 15V11.6592L64.31 15H63.6444L62.2428 11.672V15H61.494V10.4624H62.518L63.99 13.9248L65.4428 10.4624H66.486V15H65.7244ZM67.5752 15V10.4624H68.3561V15H67.5752ZM72.452 15L70.212 11.5632V15H69.444V10.4624H70.4232L72.484 13.6816V10.4624H73.252V15H72.452ZM77.7425 15L77.6849 14.424C77.6337 14.5093 77.5655 14.5925 77.4801 14.6736C77.3991 14.7504 77.3009 14.8208 77.1857 14.8848C77.0705 14.9488 76.9383 15 76.7889 15.0384C76.6396 15.0768 76.4753 15.096 76.2961 15.096C76.0017 15.096 75.718 15.0427 75.4449 14.936C75.1761 14.8293 74.9393 14.6757 74.7345 14.4752C74.5297 14.2704 74.3655 14.0229 74.2417 13.7328C74.1223 13.4384 74.0625 13.1035 74.0625 12.728C74.0625 12.3568 74.1265 12.024 74.2545 11.7296C74.3825 11.4352 74.5511 11.1877 74.7601 10.9872C74.9735 10.7867 75.2167 10.6331 75.4897 10.5264C75.7671 10.4197 76.0529 10.3664 76.3473 10.3664C76.6204 10.3664 76.87 10.4048 77.0961 10.4816C77.3223 10.5541 77.5207 10.6544 77.6913 10.7824C77.8663 10.9061 78.0113 11.0512 78.1265 11.2176C78.246 11.384 78.3356 11.5611 78.3953 11.7488L77.6721 12.024C77.6337 11.896 77.5761 11.7744 77.4993 11.6592C77.4268 11.544 77.3351 11.4437 77.2241 11.3584C77.1132 11.2731 76.9831 11.2048 76.8337 11.1536C76.6887 11.1024 76.5265 11.0768 76.3473 11.0768C76.1639 11.0768 75.9825 11.1109 75.8033 11.1792C75.6241 11.2432 75.462 11.3435 75.3169 11.48C75.1761 11.6165 75.0609 11.7893 74.9713 11.9984C74.886 12.2032 74.8433 12.4464 74.8433 12.728C74.8433 13.0053 74.8839 13.2485 74.9649 13.4576C75.0503 13.6624 75.1612 13.8352 75.2977 13.976C75.4385 14.1125 75.5985 14.2171 75.7777 14.2896C75.9569 14.3579 76.1447 14.392 76.3409 14.392C76.5713 14.392 76.7655 14.3579 76.9233 14.2896C77.0855 14.2171 77.2177 14.1296 77.3201 14.0272C77.4225 13.9248 77.4993 13.816 77.5505 13.7008C77.6017 13.5813 77.6316 13.4725 77.6401 13.3744H76.1425V12.7024H78.3633V15H77.7425ZM83.1727 11.7424C83.1599 11.6741 83.1343 11.5995 83.0959 11.5184C83.0618 11.4331 83.0084 11.3563 82.9359 11.288C82.8676 11.2197 82.7802 11.1621 82.6735 11.1152C82.5668 11.0683 82.4367 11.0448 82.2831 11.0448C82.1679 11.0448 82.0612 11.064 81.9631 11.1024C81.8692 11.1365 81.7882 11.1835 81.7199 11.2432C81.6516 11.3029 81.5983 11.3733 81.5599 11.4544C81.5215 11.5312 81.5023 11.6123 81.5023 11.6976C81.5023 11.8427 81.545 11.9664 81.6303 12.0688C81.7199 12.1712 81.8543 12.2416 82.0335 12.28L82.6863 12.4144C83.0874 12.4955 83.3924 12.6533 83.6015 12.888C83.8106 13.1227 83.9151 13.4 83.9151 13.72C83.9151 13.8949 83.8788 14.0656 83.8063 14.232C83.738 14.3984 83.6356 14.5456 83.4991 14.6736C83.3626 14.8016 83.194 14.904 82.9935 14.9808C82.7972 15.0576 82.569 15.096 82.3087 15.096C82.0186 15.096 81.7668 15.0555 81.5535 14.9744C81.3444 14.8891 81.1674 14.7803 81.0223 14.648C80.8815 14.5115 80.7727 14.36 80.6959 14.1936C80.6191 14.0272 80.5722 13.8629 80.5551 13.7008L81.2719 13.496C81.2847 13.6155 81.3146 13.7307 81.3615 13.8416C81.4084 13.9483 81.4746 14.0443 81.5599 14.1296C81.6495 14.2107 81.7562 14.2768 81.8799 14.328C82.0036 14.3792 82.1466 14.4048 82.3087 14.4048C82.5818 14.4048 82.7866 14.3451 82.9231 14.2256C83.0639 14.1061 83.1343 13.9568 83.1343 13.7776C83.1343 13.6283 83.081 13.5003 82.9743 13.3936C82.8719 13.2827 82.7226 13.2059 82.5263 13.1632L81.8863 13.0288C81.5407 12.9563 81.2612 12.8112 81.0479 12.5936C80.8388 12.376 80.7343 12.0965 80.7343 11.7552C80.7343 11.5632 80.7748 11.384 80.8559 11.2176C80.937 11.0469 81.0479 10.8997 81.1887 10.776C81.3295 10.648 81.4916 10.5477 81.6751 10.4752C81.8628 10.4027 82.0634 10.3664 82.2767 10.3664C82.5455 10.3664 82.7738 10.4027 82.9615 10.4752C83.1492 10.5477 83.305 10.6416 83.4287 10.7568C83.5567 10.8677 83.6548 10.9915 83.7231 11.128C83.7914 11.2645 83.8383 11.3968 83.8639 11.5248L83.1727 11.7424ZM85.206 12.728C85.206 13.0011 85.2487 13.24 85.334 13.4448C85.4236 13.6496 85.5388 13.8203 85.6796 13.9568C85.8204 14.0933 85.9804 14.1957 86.1596 14.264C86.3431 14.3323 86.5308 14.3664 86.7228 14.3664C86.9148 14.3664 87.1025 14.3323 87.286 14.264C87.4695 14.1957 87.6316 14.0933 87.7724 13.9568C87.9132 13.8203 88.0263 13.6496 88.1116 13.4448C88.2012 13.24 88.246 13.0011 88.246 12.728C88.246 12.4549 88.2012 12.216 88.1116 12.0112C88.0263 11.8064 87.9132 11.6357 87.7724 11.4992C87.6316 11.3627 87.4695 11.2603 87.286 11.192C87.1025 11.1237 86.9148 11.0896 86.7228 11.0896C86.5308 11.0896 86.3431 11.1237 86.1596 11.192C85.9804 11.2603 85.8204 11.3627 85.6796 11.4992C85.5388 11.6357 85.4236 11.8064 85.334 12.0112C85.2487 12.216 85.206 12.4549 85.206 12.728ZM84.4188 12.728C84.4188 12.3568 84.4828 12.0261 84.6108 11.736C84.7388 11.4416 84.9095 11.1941 85.1228 10.9936C85.3361 10.7888 85.5815 10.6331 85.8588 10.5264C86.1361 10.4197 86.4241 10.3664 86.7228 10.3664C87.0215 10.3664 87.3095 10.4197 87.5868 10.5264C87.8641 10.6331 88.1095 10.7888 88.3228 10.9936C88.5361 11.1941 88.7068 11.4416 88.8348 11.736C88.9671 12.0261 89.0332 12.3568 89.0332 12.728C89.0332 13.0992 88.9671 13.432 88.8348 13.7264C88.7068 14.0208 88.5361 14.2704 88.3228 14.4752C88.1095 14.6757 87.8641 14.8293 87.5868 14.936C87.3095 15.0427 87.0215 15.096 86.7228 15.096C86.4241 15.096 86.1361 15.0427 85.8588 14.936C85.5815 14.8293 85.3361 14.6757 85.1228 14.4752C84.9095 14.2704 84.7388 14.0208 84.6108 13.7264C84.4828 13.432 84.4188 13.0992 84.4188 12.728ZM90.356 12.728C90.356 13.0011 90.3987 13.24 90.484 13.4448C90.5736 13.6496 90.6888 13.8203 90.8296 13.9568C90.9704 14.0933 91.1304 14.1957 91.3096 14.264C91.4931 14.3323 91.6808 14.3664 91.8728 14.3664C92.0648 14.3664 92.2525 14.3323 92.436 14.264C92.6195 14.1957 92.7816 14.0933 92.9224 13.9568C93.0632 13.8203 93.1763 13.6496 93.2616 13.4448C93.3512 13.24 93.396 13.0011 93.396 12.728C93.396 12.4549 93.3512 12.216 93.2616 12.0112C93.1763 11.8064 93.0632 11.6357 92.9224 11.4992C92.7816 11.3627 92.6195 11.2603 92.436 11.192C92.2525 11.1237 92.0648 11.0896 91.8728 11.0896C91.6808 11.0896 91.4931 11.1237 91.3096 11.192C91.1304 11.2603 90.9704 11.3627 90.8296 11.4992C90.6888 11.6357 90.5736 11.8064 90.484 12.0112C90.3987 12.216 90.356 12.4549 90.356 12.728ZM89.5688 12.728C89.5688 12.3568 89.6328 12.0261 89.7608 11.736C89.8888 11.4416 90.0595 11.1941 90.2728 10.9936C90.4861 10.7888 90.7315 10.6331 91.0088 10.5264C91.2861 10.4197 91.5741 10.3664 91.8728 10.3664C92.1715 10.3664 92.4595 10.4197 92.7368 10.5264C93.0141 10.6331 93.2595 10.7888 93.4728 10.9936C93.6861 11.1941 93.8568 11.4416 93.9848 11.736C94.1171 12.0261 94.1832 12.3568 94.1832 12.728C94.1832 13.0992 94.1171 13.432 93.9848 13.7264C93.8568 14.0208 93.6861 14.2704 93.4728 14.4752C93.2595 14.6757 93.0141 14.8293 92.7368 14.936C92.4595 15.0427 92.1715 15.096 91.8728 15.096C91.5741 15.096 91.2861 15.0427 91.0088 14.936C90.7315 14.8293 90.4861 14.6757 90.2728 14.4752C90.0595 14.2704 89.8888 14.0208 89.7608 13.7264C89.6328 13.432 89.5688 13.0992 89.5688 12.728ZM98.002 15L95.762 11.5632V15H94.994V10.4624H95.9732L98.034 13.6816V10.4624H98.802V15H98.002ZM101.987 12.728C101.987 13.0011 102.03 13.24 102.115 13.4448C102.205 13.6496 102.32 13.8203 102.461 13.9568C102.602 14.0933 102.762 14.1957 102.941 14.264C103.124 14.3323 103.312 14.3664 103.504 14.3664C103.696 14.3664 103.884 14.3323 104.067 14.264C104.251 14.1957 104.413 14.0933 104.554 13.9568C104.694 13.8203 104.808 13.6496 104.893 13.4448C104.982 13.24 105.027 13.0011 105.027 12.728C105.027 12.4549 104.982 12.216 104.893 12.0112C104.808 11.8064 104.694 11.6357 104.554 11.4992C104.413 11.3627 104.251 11.2603 104.067 11.192C103.884 11.1237 103.696 11.0896 103.504 11.0896C103.312 11.0896 103.124 11.1237 102.941 11.192C102.762 11.2603 102.602 11.3627 102.461 11.4992C102.32 11.6357 102.205 11.8064 102.115 12.0112C102.03 12.216 101.987 12.4549 101.987 12.728ZM101.2 12.728C101.2 12.3568 101.264 12.0261 101.392 11.736C101.52 11.4416 101.691 11.1941 101.904 10.9936C102.117 10.7888 102.363 10.6331 102.64 10.5264C102.917 10.4197 103.205 10.3664 103.504 10.3664C103.803 10.3664 104.091 10.4197 104.368 10.5264C104.645 10.6331 104.891 10.7888 105.104 10.9936C105.317 11.1941 105.488 11.4416 105.616 11.736C105.748 12.0261 105.814 12.3568 105.814 12.728C105.814 13.0992 105.748 13.432 105.616 13.7264C105.488 14.0208 105.317 14.2704 105.104 14.4752C104.891 14.6757 104.645 14.8293 104.368 14.936C104.091 15.0427 103.803 15.096 103.504 15.096C103.205 15.096 102.917 15.0427 102.64 14.936C102.363 14.8293 102.117 14.6757 101.904 14.4752C101.691 14.2704 101.52 14.0208 101.392 13.7264C101.264 13.432 101.2 13.0992 101.2 12.728ZM109.633 15L107.393 11.5632V15H106.625V10.4624H107.604L109.665 13.6816V10.4624H110.433V15H109.633Z" fill="white"/>
</svg>
