<svg width="157" height="46" viewBox="0 0 157 46" fill="none" xmlns="http://www.w3.org/2000/svg">
<path d="M150.493 45.4446H6.52296C3.35706 45.4446 0.76416 42.9131 0.76416 39.8221V6.08675C0.76416 2.99575 3.35706 0.464199 6.52296 0.464199H150.493C153.659 0.464199 156.252 2.99575 156.252 6.08675V39.8221C156.252 42.9131 153.659 45.4446 150.493 45.4446Z" fill="black"/>
<path d="M150.493 1.36521C153.159 1.36521 155.329 3.48351 155.329 6.08675V39.8221C155.329 42.4253 153.159 44.5436 150.493 44.5436H6.52296C3.85663 44.5436 1.68701 42.4253 1.68701 39.8221V6.08675C1.68701 3.48351 3.85663 1.36521 6.52296 1.36521H150.493ZM150.493 0.464199H6.52296C3.35706 0.464199 0.76416 2.99575 0.76416 6.08675V39.8221C0.76416 42.9131 3.35706 45.4446 6.52296 45.4446H150.493C153.659 45.4446 156.252 42.9131 156.252 39.8221V6.08675C156.252 2.99575 153.659 0.464199 150.493 0.464199Z" fill="#A6A6A6"/>
<path d="M55.3763 11.9836C55.3763 12.9225 55.0884 13.6745 54.5211 14.2354C53.8689 14.9003 53.0195 15.2348 51.9786 15.2348C50.9838 15.2348 50.1343 14.8946 49.4375 14.2241C48.7393 13.5438 48.3909 12.7089 48.3909 11.7095C48.3909 10.71 48.7393 9.8751 49.4375 9.20039C50.1343 8.52428 50.9838 8.18411 51.9786 8.18411C52.4739 8.18411 52.9461 8.28391 53.3967 8.46946C53.8459 8.65641 54.2116 8.90942 54.4765 9.22147L53.8747 9.81465C53.4125 9.28192 52.7834 9.01906 51.9786 9.01906C51.253 9.01906 50.6238 9.26645 50.0897 9.76546C49.5613 10.2659 49.2964 10.9139 49.2964 11.7095C49.2964 12.505 49.5613 13.1587 50.0897 13.6591C50.6238 14.1525 51.253 14.4055 51.9786 14.4055C52.7488 14.4055 53.3967 14.1525 53.9078 13.6535C54.2447 13.3231 54.4362 12.8677 54.4866 12.2858H51.9786V11.4733H55.3245C55.3648 11.649 55.3763 11.8191 55.3763 11.9836Z" fill="white" stroke="white" stroke-width="0.121981" stroke-miterlimit="10"/>
<path d="M60.6959 9.16541H57.5531V11.302H60.3864V12.1144H57.5531V14.251H60.6959V15.0789H56.6633V8.33749H60.6959V9.16541Z" fill="white" stroke="white" stroke-width="0.121981" stroke-miterlimit="10"/>
<path d="M64.4295 15.0789H63.5398V9.16541H61.6121V8.33749H66.3587V9.16541H64.4295V15.0789Z" fill="white" stroke="white" stroke-width="0.121981" stroke-miterlimit="10"/>
<path d="M69.7942 15.0789V8.33749H70.6825V15.0789H69.7942Z" fill="white" stroke="white" stroke-width="0.121981" stroke-miterlimit="10"/>
<path d="M74.6239 15.0789H73.7413V9.16541H71.8064V8.33749H76.5588V9.16541H74.6239V15.0789Z" fill="white" stroke="white" stroke-width="0.121981" stroke-miterlimit="10"/>
<path d="M85.5431 14.2129C84.8622 14.8946 84.0185 15.2348 83.0121 15.2348C82 15.2348 81.1564 14.8946 80.4754 14.2129C79.7959 13.5326 79.4575 12.6976 79.4575 11.7095C79.4575 10.7213 79.7959 9.88634 80.4754 9.20601C81.1564 8.52428 82 8.18411 83.0121 8.18411C84.0127 8.18411 84.8564 8.52428 85.5374 9.21163C86.2227 9.89759 86.561 10.7269 86.561 11.7095C86.561 12.6976 86.2227 13.5326 85.5431 14.2129ZM81.1333 13.6478C81.6459 14.1525 82.2693 14.4055 83.0121 14.4055C83.7493 14.4055 84.3784 14.1525 84.8852 13.6478C85.3963 13.1432 85.6554 12.4952 85.6554 11.7095C85.6554 10.9237 85.3963 10.2757 84.8852 9.77108C84.3784 9.26646 83.7493 9.01344 83.0121 9.01344C82.2693 9.01344 81.6459 9.26646 81.1333 9.77108C80.6222 10.2757 80.3631 10.9237 80.3631 11.7095C80.3631 12.4952 80.6222 13.1432 81.1333 13.6478Z" fill="white" stroke="white" stroke-width="0.121981" stroke-miterlimit="10"/>
<path d="M87.8191 15.0789V8.33749H88.8989L92.2562 13.5805H92.2951L92.2562 12.2845V8.33749H93.1445V15.0789H92.2174L88.7016 9.57727H88.6628L88.7016 10.8789V15.0789H87.8191Z" fill="white" stroke="white" stroke-width="0.121981" stroke-miterlimit="10"/>
<path d="M79.2428 24.9258C76.5376 24.9258 74.3277 26.9359 74.3277 29.7092C74.3277 32.46 76.5376 34.4912 79.2428 34.4912C81.9537 34.4912 84.1637 32.46 84.1637 29.7092C84.1637 26.9359 81.9537 24.9258 79.2428 24.9258ZM79.2428 32.6076C77.7585 32.6076 76.4815 31.4114 76.4815 29.7092C76.4815 27.9845 77.7585 26.8094 79.2428 26.8094C80.7271 26.8094 82.0099 27.9845 82.0099 29.7092C82.0099 31.4114 80.7271 32.6076 79.2428 32.6076ZM68.5185 24.9258C65.8075 24.9258 63.6034 26.9359 63.6034 29.7092C63.6034 32.46 65.8075 34.4912 68.5185 34.4912C71.228 34.4912 73.4336 32.46 73.4336 29.7092C73.4336 26.9359 71.228 24.9258 68.5185 24.9258ZM68.5185 32.6076C67.0327 32.6076 65.7514 31.4114 65.7514 29.7092C65.7514 27.9845 67.0327 26.8094 68.5185 26.8094C70.0028 26.8094 71.2798 27.9845 71.2798 29.7092C71.2798 31.4114 70.0028 32.6076 68.5185 32.6076ZM55.757 26.3919V28.4244H60.7283C60.5829 29.5602 60.1941 30.3951 59.5981 30.9771C58.8725 31.6799 57.7423 32.46 55.757 32.46C52.6976 32.46 50.302 30.0494 50.302 27.0624C50.302 24.0754 52.6976 21.6647 55.757 21.6647C57.4112 21.6647 58.6148 22.2959 59.5031 23.1139L60.9701 21.6816C59.7277 20.5233 58.0749 19.6336 55.757 19.6336C51.5617 19.6336 48.0359 22.9663 48.0359 27.0624C48.0359 31.1584 51.5617 34.4912 55.757 34.4912C58.0245 34.4912 59.7277 33.7659 61.0666 32.4052C62.4386 31.0656 62.8662 29.1821 62.8662 27.6612C62.8662 27.1889 62.8259 26.7545 62.7539 26.3919H55.757ZM107.94 27.9676C107.536 26.8979 106.288 24.9258 103.745 24.9258C101.226 24.9258 99.1279 26.8642 99.1279 29.7092C99.1279 32.3883 101.204 34.4912 103.987 34.4912C106.237 34.4912 107.536 33.1516 108.07 32.3715L106.4 31.2849C105.843 32.0805 105.084 32.6076 103.987 32.6076C102.897 32.6076 102.115 32.1199 101.614 31.1584L108.166 28.5116L107.94 27.9676ZM101.26 29.5602C101.204 27.716 102.727 26.7714 103.818 26.7714C104.674 26.7714 105.399 27.1889 105.641 27.7863L101.26 29.5602ZM95.9347 34.2002H98.0885V20.1438H95.9347V34.2002ZM92.4074 25.9913H92.3354C91.8517 25.4318 90.9288 24.9258 89.7598 24.9258C87.3066 24.9258 85.0635 27.0286 85.0635 29.7247C85.0635 32.4052 87.3066 34.4912 89.7598 34.4912C90.9288 34.4912 91.8517 33.9809 92.3354 33.4046H92.4074V34.0906C92.4074 35.9193 91.4068 36.9018 89.7929 36.9018C88.477 36.9018 87.6607 35.9741 87.3238 35.194L85.4508 35.9573C85.9907 37.2251 87.4203 38.7854 89.7929 38.7854C92.3181 38.7854 94.4489 37.3348 94.4489 33.8052V25.2168H92.4074V25.9913ZM89.9441 32.6076C88.4598 32.6076 87.2173 31.3946 87.2173 29.7247C87.2173 28.0393 88.4598 26.8094 89.9441 26.8094C91.4068 26.8094 92.56 28.0393 92.56 29.7247C92.56 31.3946 91.4068 32.6076 89.9441 32.6076ZM118.024 20.1438H112.873V34.2002H115.021V28.8742H118.024C120.41 28.8742 122.749 27.1889 122.749 24.5083C122.749 21.8292 120.404 20.1438 118.024 20.1438ZM118.08 26.919H115.021V22.0991H118.08C119.684 22.0991 120.6 23.3993 120.6 24.5083C120.6 25.5963 119.684 26.919 118.08 26.919ZM131.358 24.8991C129.806 24.8991 128.193 25.5682 127.529 27.0511L129.435 27.8313C129.845 27.0511 130.6 26.7981 131.397 26.7981C132.512 26.7981 133.642 27.4517 133.659 28.6058V28.7534C133.27 28.5341 132.438 28.2094 131.415 28.2094C129.362 28.2094 127.27 29.3128 127.27 31.3721C127.27 33.2556 128.951 34.4687 130.842 34.4687C132.287 34.4687 133.085 33.8319 133.586 33.0912H133.659V34.1777H135.734V28.7857C135.734 26.2935 133.828 24.8991 131.358 24.8991ZM131.099 32.602C130.397 32.602 129.418 32.2618 129.418 31.4114C129.418 30.3235 130.639 29.906 131.695 29.906C132.641 29.906 133.085 30.1098 133.659 30.3783C133.491 31.6799 132.343 32.602 131.099 32.602ZM143.292 25.2069L140.823 31.3004H140.75L138.197 25.2069H135.881L139.716 33.7223L137.528 38.4607H139.772L145.682 25.2069H143.292ZM123.93 34.2002H126.083V20.1438H123.93V34.2002Z" fill="white"/>
<path d="M12.7814 8.94323C12.4431 9.28901 12.2473 9.82737 12.2473 10.5246V35.3931C12.2473 36.0903 12.4431 36.6287 12.7814 36.9745L12.8649 37.0504L27.1381 23.1205V22.7916L12.8649 8.8617L12.7814 8.94323Z" fill="url(#paint0_linear_814_17922)"/>
<path d="M31.8943 27.7636L27.1418 23.1179V22.789L31.9001 18.1434L32.0066 18.2038L37.6416 21.3342C39.2497 22.2226 39.2497 23.6844 37.6416 24.5784L32.0066 27.7031L31.8943 27.7636Z" fill="url(#paint1_linear_814_17922)"/>
<path d="M32.0058 27.7048L27.1411 22.9551L12.7844 36.9735C13.3186 37.5217 14.1896 37.5878 15.1801 37.0396L32.0058 27.7048Z" fill="url(#paint2_linear_814_17922)"/>
<path d="M32.0058 18.2044L15.1801 8.86957C14.1896 8.327 13.3186 8.39306 12.7844 8.94126L27.1411 22.9541L32.0058 18.2044Z" fill="url(#paint3_linear_814_17922)"/>
<rect width="60.4" height="8" transform="translate(48 8)" fill="black"/>
<path d="M50.56 14.096C50.2528 14.096 49.9605 14.0427 49.6832 13.936C49.4101 13.8293 49.1669 13.6757 48.9536 13.4752C48.7445 13.2704 48.5781 13.0229 48.4544 12.7328C48.3307 12.4384 48.2688 12.1056 48.2688 11.7344C48.2688 11.3632 48.3328 11.0325 48.4608 10.7424C48.5888 10.448 48.7573 10.2005 48.9664 10C49.1797 9.7952 49.4229 9.63947 49.696 9.5328C49.9733 9.42187 50.2592 9.3664 50.5536 9.3664C50.8395 9.3664 51.0976 9.40693 51.328 9.488C51.5584 9.5648 51.7589 9.67147 51.9296 9.808C52.1003 9.94027 52.2411 10.096 52.352 10.2752C52.4629 10.4544 52.544 10.6421 52.5952 10.8384L51.872 11.0816C51.8379 10.9451 51.7845 10.8171 51.712 10.6976C51.6437 10.5739 51.5541 10.4672 51.4432 10.3776C51.3365 10.288 51.2085 10.2176 51.0592 10.1664C50.9141 10.1152 50.7456 10.0896 50.5536 10.0896C50.3659 10.0896 50.1824 10.1237 50.0032 10.192C49.824 10.2603 49.664 10.3627 49.5232 10.4992C49.3824 10.6357 49.2693 10.8085 49.184 11.0176C49.0987 11.2224 49.056 11.4613 49.056 11.7344C49.056 11.9989 49.0965 12.2336 49.1776 12.4384C49.2629 12.6389 49.376 12.8075 49.5168 12.944C49.6576 13.0805 49.8176 13.1851 49.9968 13.2576C50.1803 13.3259 50.368 13.36 50.56 13.36C50.752 13.36 50.9227 13.3323 51.072 13.2768C51.2213 13.2213 51.3515 13.1467 51.4624 13.0528C51.5733 12.9589 51.6651 12.8523 51.7376 12.7328C51.8144 12.6133 51.872 12.4896 51.9104 12.3616L52.6144 12.592C52.5632 12.784 52.4821 12.9717 52.3712 13.1552C52.2603 13.3344 52.1173 13.4944 51.9424 13.6352C51.7717 13.7717 51.5712 13.8827 51.3408 13.968C51.1104 14.0533 50.8501 14.096 50.56 14.096ZM53.856 11.728C53.856 12.0011 53.8987 12.24 53.984 12.4448C54.0736 12.6496 54.1888 12.8203 54.3296 12.9568C54.4704 13.0933 54.6304 13.1957 54.8096 13.264C54.9931 13.3323 55.1808 13.3664 55.3728 13.3664C55.5648 13.3664 55.7525 13.3323 55.936 13.264C56.1195 13.1957 56.2816 13.0933 56.4224 12.9568C56.5632 12.8203 56.6763 12.6496 56.7616 12.4448C56.8512 12.24 56.896 12.0011 56.896 11.728C56.896 11.4549 56.8512 11.216 56.7616 11.0112C56.6763 10.8064 56.5632 10.6357 56.4224 10.4992C56.2816 10.3627 56.1195 10.2603 55.936 10.192C55.7525 10.1237 55.5648 10.0896 55.3728 10.0896C55.1808 10.0896 54.9931 10.1237 54.8096 10.192C54.6304 10.2603 54.4704 10.3627 54.3296 10.4992C54.1888 10.6357 54.0736 10.8064 53.984 11.0112C53.8987 11.216 53.856 11.4549 53.856 11.728ZM53.0688 11.728C53.0688 11.3568 53.1328 11.0261 53.2608 10.736C53.3888 10.4416 53.5595 10.1941 53.7728 9.9936C53.9861 9.7888 54.2315 9.63307 54.5088 9.5264C54.7861 9.41973 55.0741 9.3664 55.3728 9.3664C55.6715 9.3664 55.9595 9.41973 56.2368 9.5264C56.5141 9.63307 56.7595 9.7888 56.9728 9.9936C57.1861 10.1941 57.3568 10.4416 57.4848 10.736C57.6171 11.0261 57.6832 11.3568 57.6832 11.728C57.6832 12.0992 57.6171 12.432 57.4848 12.7264C57.3568 13.0208 57.1861 13.2704 56.9728 13.4752C56.7595 13.6757 56.5141 13.8293 56.2368 13.936C55.9595 14.0427 55.6715 14.096 55.3728 14.096C55.0741 14.096 54.7861 14.0427 54.5088 13.936C54.2315 13.8293 53.9861 13.6757 53.7728 13.4752C53.5595 13.2704 53.3888 13.0208 53.2608 12.7264C53.1328 12.432 53.0688 12.0992 53.0688 11.728ZM62.7244 14V10.6592L61.31 14H60.6444L59.2428 10.672V14H58.494V9.4624H59.518L60.99 12.9248L62.4428 9.4624H63.486V14H62.7244ZM64.5752 14V9.4624H65.3561V14H64.5752ZM69.452 14L67.212 10.5632V14H66.444V9.4624H67.4232L69.484 12.6816V9.4624H70.252V14H69.452ZM74.7425 14L74.6849 13.424C74.6337 13.5093 74.5655 13.5925 74.4801 13.6736C74.3991 13.7504 74.3009 13.8208 74.1857 13.8848C74.0705 13.9488 73.9383 14 73.7889 14.0384C73.6396 14.0768 73.4753 14.096 73.2961 14.096C73.0017 14.096 72.718 14.0427 72.4449 13.936C72.1761 13.8293 71.9393 13.6757 71.7345 13.4752C71.5297 13.2704 71.3655 13.0229 71.2417 12.7328C71.1223 12.4384 71.0625 12.1035 71.0625 11.728C71.0625 11.3568 71.1265 11.024 71.2545 10.7296C71.3825 10.4352 71.5511 10.1877 71.7601 9.9872C71.9735 9.78667 72.2167 9.63307 72.4897 9.5264C72.7671 9.41973 73.0529 9.3664 73.3473 9.3664C73.6204 9.3664 73.87 9.4048 74.0961 9.4816C74.3223 9.55413 74.5207 9.6544 74.6913 9.7824C74.8663 9.90613 75.0113 10.0512 75.1265 10.2176C75.246 10.384 75.3356 10.5611 75.3953 10.7488L74.6721 11.024C74.6337 10.896 74.5761 10.7744 74.4993 10.6592C74.4268 10.544 74.3351 10.4437 74.2241 10.3584C74.1132 10.2731 73.9831 10.2048 73.8337 10.1536C73.6887 10.1024 73.5265 10.0768 73.3473 10.0768C73.1639 10.0768 72.9825 10.1109 72.8033 10.1792C72.6241 10.2432 72.462 10.3435 72.3169 10.48C72.1761 10.6165 72.0609 10.7893 71.9713 10.9984C71.886 11.2032 71.8433 11.4464 71.8433 11.728C71.8433 12.0053 71.8839 12.2485 71.9649 12.4576C72.0503 12.6624 72.1612 12.8352 72.2977 12.976C72.4385 13.1125 72.5985 13.2171 72.7777 13.2896C72.9569 13.3579 73.1447 13.392 73.3409 13.392C73.5713 13.392 73.7655 13.3579 73.9233 13.2896C74.0855 13.2171 74.2177 13.1296 74.3201 13.0272C74.4225 12.9248 74.4993 12.816 74.5505 12.7008C74.6017 12.5813 74.6316 12.4725 74.6401 12.3744H73.1425V11.7024H75.3633V14H74.7425ZM80.1727 10.7424C80.1599 10.6741 80.1343 10.5995 80.0959 10.5184C80.0618 10.4331 80.0084 10.3563 79.9359 10.288C79.8676 10.2197 79.7802 10.1621 79.6735 10.1152C79.5668 10.0683 79.4367 10.0448 79.2831 10.0448C79.1679 10.0448 79.0612 10.064 78.9631 10.1024C78.8692 10.1365 78.7882 10.1835 78.7199 10.2432C78.6516 10.3029 78.5983 10.3733 78.5599 10.4544C78.5215 10.5312 78.5023 10.6123 78.5023 10.6976C78.5023 10.8427 78.545 10.9664 78.6303 11.0688C78.7199 11.1712 78.8543 11.2416 79.0335 11.28L79.6863 11.4144C80.0874 11.4955 80.3924 11.6533 80.6015 11.888C80.8106 12.1227 80.9151 12.4 80.9151 12.72C80.9151 12.8949 80.8788 13.0656 80.8063 13.232C80.738 13.3984 80.6356 13.5456 80.4991 13.6736C80.3626 13.8016 80.194 13.904 79.9935 13.9808C79.7972 14.0576 79.569 14.096 79.3087 14.096C79.0186 14.096 78.7668 14.0555 78.5535 13.9744C78.3444 13.8891 78.1674 13.7803 78.0223 13.648C77.8815 13.5115 77.7727 13.36 77.6959 13.1936C77.6191 13.0272 77.5722 12.8629 77.5551 12.7008L78.2719 12.496C78.2847 12.6155 78.3146 12.7307 78.3615 12.8416C78.4084 12.9483 78.4746 13.0443 78.5599 13.1296C78.6495 13.2107 78.7562 13.2768 78.8799 13.328C79.0036 13.3792 79.1466 13.4048 79.3087 13.4048C79.5818 13.4048 79.7866 13.3451 79.9231 13.2256C80.0639 13.1061 80.1343 12.9568 80.1343 12.7776C80.1343 12.6283 80.081 12.5003 79.9743 12.3936C79.8719 12.2827 79.7226 12.2059 79.5263 12.1632L78.8863 12.0288C78.5407 11.9563 78.2612 11.8112 78.0479 11.5936C77.8388 11.376 77.7343 11.0965 77.7343 10.7552C77.7343 10.5632 77.7748 10.384 77.8559 10.2176C77.937 10.0469 78.0479 9.89973 78.1887 9.776C78.3295 9.648 78.4916 9.54773 78.6751 9.4752C78.8628 9.40267 79.0634 9.3664 79.2767 9.3664C79.5455 9.3664 79.7738 9.40267 79.9615 9.4752C80.1492 9.54773 80.305 9.6416 80.4287 9.7568C80.5567 9.86773 80.6548 9.99147 80.7231 10.128C80.7914 10.2645 80.8383 10.3968 80.8639 10.5248L80.1727 10.7424ZM82.206 11.728C82.206 12.0011 82.2487 12.24 82.334 12.4448C82.4236 12.6496 82.5388 12.8203 82.6796 12.9568C82.8204 13.0933 82.9804 13.1957 83.1596 13.264C83.3431 13.3323 83.5308 13.3664 83.7228 13.3664C83.9148 13.3664 84.1025 13.3323 84.286 13.264C84.4695 13.1957 84.6316 13.0933 84.7724 12.9568C84.9132 12.8203 85.0263 12.6496 85.1116 12.4448C85.2012 12.24 85.246 12.0011 85.246 11.728C85.246 11.4549 85.2012 11.216 85.1116 11.0112C85.0263 10.8064 84.9132 10.6357 84.7724 10.4992C84.6316 10.3627 84.4695 10.2603 84.286 10.192C84.1025 10.1237 83.9148 10.0896 83.7228 10.0896C83.5308 10.0896 83.3431 10.1237 83.1596 10.192C82.9804 10.2603 82.8204 10.3627 82.6796 10.4992C82.5388 10.6357 82.4236 10.8064 82.334 11.0112C82.2487 11.216 82.206 11.4549 82.206 11.728ZM81.4188 11.728C81.4188 11.3568 81.4828 11.0261 81.6108 10.736C81.7388 10.4416 81.9095 10.1941 82.1228 9.9936C82.3361 9.7888 82.5815 9.63307 82.8588 9.5264C83.1361 9.41973 83.4241 9.3664 83.7228 9.3664C84.0215 9.3664 84.3095 9.41973 84.5868 9.5264C84.8641 9.63307 85.1095 9.7888 85.3228 9.9936C85.5361 10.1941 85.7068 10.4416 85.8348 10.736C85.9671 11.0261 86.0332 11.3568 86.0332 11.728C86.0332 12.0992 85.9671 12.432 85.8348 12.7264C85.7068 13.0208 85.5361 13.2704 85.3228 13.4752C85.1095 13.6757 84.8641 13.8293 84.5868 13.936C84.3095 14.0427 84.0215 14.096 83.7228 14.096C83.4241 14.096 83.1361 14.0427 82.8588 13.936C82.5815 13.8293 82.3361 13.6757 82.1228 13.4752C81.9095 13.2704 81.7388 13.0208 81.6108 12.7264C81.4828 12.432 81.4188 12.0992 81.4188 11.728ZM87.356 11.728C87.356 12.0011 87.3987 12.24 87.484 12.4448C87.5736 12.6496 87.6888 12.8203 87.8296 12.9568C87.9704 13.0933 88.1304 13.1957 88.3096 13.264C88.4931 13.3323 88.6808 13.3664 88.8728 13.3664C89.0648 13.3664 89.2525 13.3323 89.436 13.264C89.6195 13.1957 89.7816 13.0933 89.9224 12.9568C90.0632 12.8203 90.1763 12.6496 90.2616 12.4448C90.3512 12.24 90.396 12.0011 90.396 11.728C90.396 11.4549 90.3512 11.216 90.2616 11.0112C90.1763 10.8064 90.0632 10.6357 89.9224 10.4992C89.7816 10.3627 89.6195 10.2603 89.436 10.192C89.2525 10.1237 89.0648 10.0896 88.8728 10.0896C88.6808 10.0896 88.4931 10.1237 88.3096 10.192C88.1304 10.2603 87.9704 10.3627 87.8296 10.4992C87.6888 10.6357 87.5736 10.8064 87.484 11.0112C87.3987 11.216 87.356 11.4549 87.356 11.728ZM86.5688 11.728C86.5688 11.3568 86.6328 11.0261 86.7608 10.736C86.8888 10.4416 87.0595 10.1941 87.2728 9.9936C87.4861 9.7888 87.7315 9.63307 88.0088 9.5264C88.2861 9.41973 88.5741 9.3664 88.8728 9.3664C89.1715 9.3664 89.4595 9.41973 89.7368 9.5264C90.0141 9.63307 90.2595 9.7888 90.4728 9.9936C90.6861 10.1941 90.8568 10.4416 90.9848 10.736C91.1171 11.0261 91.1832 11.3568 91.1832 11.728C91.1832 12.0992 91.1171 12.432 90.9848 12.7264C90.8568 13.0208 90.6861 13.2704 90.4728 13.4752C90.2595 13.6757 90.0141 13.8293 89.7368 13.936C89.4595 14.0427 89.1715 14.096 88.8728 14.096C88.5741 14.096 88.2861 14.0427 88.0088 13.936C87.7315 13.8293 87.4861 13.6757 87.2728 13.4752C87.0595 13.2704 86.8888 13.0208 86.7608 12.7264C86.6328 12.432 86.5688 12.0992 86.5688 11.728ZM95.002 14L92.762 10.5632V14H91.994V9.4624H92.9732L95.034 12.6816V9.4624H95.802V14H95.002ZM98.9872 11.728C98.9872 12.0011 99.0299 12.24 99.1152 12.4448C99.2048 12.6496 99.32 12.8203 99.4608 12.9568C99.6016 13.0933 99.7616 13.1957 99.9408 13.264C100.124 13.3323 100.312 13.3664 100.504 13.3664C100.696 13.3664 100.884 13.3323 101.067 13.264C101.251 13.1957 101.413 13.0933 101.554 12.9568C101.694 12.8203 101.808 12.6496 101.893 12.4448C101.982 12.24 102.027 12.0011 102.027 11.728C102.027 11.4549 101.982 11.216 101.893 11.0112C101.808 10.8064 101.694 10.6357 101.554 10.4992C101.413 10.3627 101.251 10.2603 101.067 10.192C100.884 10.1237 100.696 10.0896 100.504 10.0896C100.312 10.0896 100.124 10.1237 99.9408 10.192C99.7616 10.2603 99.6016 10.3627 99.4608 10.4992C99.32 10.6357 99.2048 10.8064 99.1152 11.0112C99.0299 11.216 98.9872 11.4549 98.9872 11.728ZM98.2 11.728C98.2 11.3568 98.264 11.0261 98.392 10.736C98.52 10.4416 98.6907 10.1941 98.904 9.9936C99.1174 9.7888 99.3627 9.63307 99.64 9.5264C99.9174 9.41973 100.205 9.3664 100.504 9.3664C100.803 9.3664 101.091 9.41973 101.368 9.5264C101.645 9.63307 101.891 9.7888 102.104 9.9936C102.317 10.1941 102.488 10.4416 102.616 10.736C102.748 11.0261 102.814 11.3568 102.814 11.728C102.814 12.0992 102.748 12.432 102.616 12.7264C102.488 13.0208 102.317 13.2704 102.104 13.4752C101.891 13.6757 101.645 13.8293 101.368 13.936C101.091 14.0427 100.803 14.096 100.504 14.096C100.205 14.096 99.9174 14.0427 99.64 13.936C99.3627 13.8293 99.1174 13.6757 98.904 13.4752C98.6907 13.2704 98.52 13.0208 98.392 12.7264C98.264 12.432 98.2 12.0992 98.2 11.728ZM106.633 14L104.393 10.5632V14H103.625V9.4624H104.604L106.665 12.6816V9.4624H107.433V14H106.633Z" fill="white"/>
<defs>
<linearGradient id="paint0_linear_814_17922" x1="25.8708" y1="35.6521" x2="7.00425" y2="16.3284" gradientUnits="userSpaceOnUse">
<stop stop-color="#00A0FF"/>
<stop offset="0.0066" stop-color="#00A1FF"/>
<stop offset="0.2601" stop-color="#00BEFF"/>
<stop offset="0.5122" stop-color="#00D2FF"/>
<stop offset="0.7604" stop-color="#00DFFF"/>
<stop offset="1" stop-color="#00E3FF"/>
</linearGradient>
<linearGradient id="paint1_linear_814_17922" x1="39.7356" y1="22.9519" x2="11.8666" y2="22.9519" gradientUnits="userSpaceOnUse">
<stop stop-color="#FFE000"/>
<stop offset="0.4087" stop-color="#FFBD00"/>
<stop offset="0.7754" stop-color="#FFA500"/>
<stop offset="1" stop-color="#FF9C00"/>
</linearGradient>
<linearGradient id="paint2_linear_814_17922" x1="29.3605" y1="20.3731" x2="3.77592" y2="-5.83145" gradientUnits="userSpaceOnUse">
<stop stop-color="#FF3A44"/>
<stop offset="1" stop-color="#C31162"/>
</linearGradient>
<linearGradient id="paint3_linear_814_17922" x1="9.17055" y1="45.2462" x2="20.5952" y2="33.5447" gradientUnits="userSpaceOnUse">
<stop stop-color="#32A071"/>
<stop offset="0.0685" stop-color="#2DA771"/>
<stop offset="0.4762" stop-color="#15CF74"/>
<stop offset="0.8009" stop-color="#06E775"/>
<stop offset="1" stop-color="#00F076"/>
</linearGradient>
</defs>
</svg>
