<svg width="1440" height="288" viewBox="0 0 1440 288" fill="none" xmlns="http://www.w3.org/2000/svg">
<g clip-path="url(#clip0_663_55454)">
<path d="M-13.1462 -39.2576C-7.81522 -30.6961 0.603467 -23.9328 10.3359 -21.1209C20.9021 -18.0682 32.9715 -19.6857 44.2182 -28.6282L58.5229 -40.0022L64.3386 -32.6914L49.842 -21.1649C40.6138 -13.8273 36.0727 -4.81092 35.0882 4.2753C29.6706 -4.16332 21.229 -10.7835 11.5189 -13.4815C1.02672 -16.3966 -10.902 -14.7206 -21.9989 -5.89715L-36.4954 5.62935L-42.3068 -1.67606L-28.0022 -13.05C-18.4961 -20.6085 -13.9593 -29.9202 -13.1462 -39.2576Z" stroke="black" stroke-opacity="0.05" stroke-width="1.48777"/>
<path d="M90.6497 -38.9522C95.9807 -30.3907 104.399 -23.6274 114.132 -20.8155C124.698 -17.7628 136.767 -19.3803 148.014 -28.3228L162.319 -39.6968L168.134 -32.386L153.638 -20.8595C144.41 -13.5219 139.869 -4.5055 138.884 4.58072C133.466 -3.8579 125.025 -10.478 115.315 -13.1761C104.823 -16.0912 92.8939 -14.4152 81.797 -5.59173L67.3005 5.93477L61.4891 -1.37064L75.7937 -12.7446C85.2998 -20.3031 89.8366 -29.6148 90.6497 -38.9522Z" stroke="black" stroke-opacity="0.05" stroke-width="1.48777"/>
<path d="M194.447 -38.6358C199.778 -30.0743 208.196 -23.311 217.929 -20.4991C228.495 -17.4464 240.564 -19.0638 251.811 -28.0064L266.116 -39.3803L271.931 -32.0696L257.435 -20.5431C248.207 -13.2055 243.666 -4.1891 242.681 4.89712C237.263 -3.54149 228.822 -10.1616 219.112 -12.8597C208.619 -15.7748 196.691 -14.0987 185.594 -5.27532L171.097 6.25118L165.286 -1.05423L179.591 -12.4282C189.097 -19.9867 193.633 -29.2984 194.447 -38.6358Z" stroke="black" stroke-opacity="0.05" stroke-width="1.48777"/>
<path d="M298.228 -38.3299C303.559 -29.7684 311.977 -23.005 321.71 -20.1932C332.276 -17.1405 344.345 -18.7579 355.592 -27.7005L369.897 -39.0744L375.713 -31.7637L361.216 -20.2372C351.988 -12.8996 347.447 -3.88319 346.462 5.20303C341.045 -3.23558 332.603 -9.85573 322.893 -12.5537C312.401 -15.4689 300.472 -13.7928 289.375 -4.96942L274.879 6.55709L269.067 -0.748325L283.372 -12.1223C292.878 -19.6808 297.415 -28.9925 298.228 -38.3299Z" stroke="black" stroke-opacity="0.05" stroke-width="1.48777"/>
<path d="M402.023 -37.2161C407.354 -28.6546 415.773 -21.8913 425.505 -19.0794C436.072 -16.0267 448.141 -17.6442 459.388 -26.5867L473.692 -37.9607L479.508 -30.6499L465.011 -19.1234C455.783 -11.7858 451.242 -2.76942 450.258 6.3168C444.84 -2.12181 436.398 -8.74196 426.688 -11.44C416.196 -14.3551 404.267 -12.6791 393.171 -3.85565L378.674 7.67086L372.863 0.365445L387.167 -11.0085C396.673 -18.567 401.21 -27.8787 402.023 -37.2161Z" stroke="black" stroke-opacity="0.05" stroke-width="1.48777"/>
<path d="M505.83 -36.9112C511.161 -28.3497 519.58 -21.5863 529.312 -18.7745C539.878 -15.7218 551.948 -17.3392 563.194 -26.2818L577.499 -37.6557L583.315 -30.345L568.818 -18.8185C559.59 -11.4809 555.049 -2.46449 554.064 6.62173C548.647 -1.81688 540.205 -8.43703 530.495 -11.135C520.003 -14.0502 508.074 -12.3741 496.977 -3.55071L482.481 7.97579L476.669 0.670376L490.974 -10.7036C500.48 -18.2621 505.017 -27.5738 505.83 -36.9112Z" stroke="black" stroke-opacity="0.05" stroke-width="1.48777"/>
<path d="M609.611 -36.9112C614.942 -28.3497 623.36 -21.5863 633.093 -18.7745C643.659 -15.7218 655.728 -17.3392 666.975 -26.2818L681.28 -37.6557L687.095 -30.345L672.599 -18.8185C663.371 -11.4809 658.83 -2.46449 657.845 6.62173C652.427 -1.81688 643.986 -8.43703 634.276 -11.135C623.784 -14.0502 611.855 -12.3741 600.758 -3.55071L586.261 7.97579L580.45 0.670376L594.755 -10.7036C604.261 -18.2621 608.798 -27.5738 609.611 -36.9112Z" stroke="black" stroke-opacity="0.05" stroke-width="1.48777"/>
<path d="M713.4 -36.6065C718.731 -28.045 727.149 -21.2817 736.882 -18.4698C747.448 -15.4171 759.517 -17.0346 770.764 -25.9771L785.069 -37.351L790.884 -30.0403L776.388 -18.5138C767.16 -11.1762 762.619 -2.1598 761.634 6.92642C756.216 -1.51219 747.775 -8.13234 738.065 -10.8304C727.573 -13.7455 715.644 -12.0694 704.547 -3.24603L690.05 8.28047L684.239 0.975064L698.544 -10.3989C708.05 -17.9574 712.587 -27.2691 713.4 -36.6065Z" stroke="black" stroke-opacity="0.05" stroke-width="1.48777"/>
<path d="M817.189 -35.4912C822.52 -26.9297 830.938 -20.1664 840.671 -17.3545C851.237 -14.3019 863.306 -15.9193 874.553 -24.8619L888.858 -36.2358L894.674 -28.9251L880.177 -17.3986C870.949 -10.0609 866.408 -1.04457 865.423 8.04165C860.006 -0.39696 851.564 -7.0171 841.854 -9.71512C831.362 -12.6303 819.433 -10.9542 808.336 -2.13079L793.84 9.39571L788.028 2.0903L802.333 -9.28365C811.839 -16.8422 816.376 -26.1539 817.189 -35.4912Z" stroke="black" stroke-opacity="0.05" stroke-width="1.48777"/>
<path d="M920.986 -35.188C926.317 -26.6265 934.735 -19.8632 944.468 -17.0513C955.034 -13.9987 967.103 -15.6161 978.35 -24.5586L992.655 -35.9326L998.47 -28.6218L983.974 -17.0953C974.746 -9.75771 970.205 -0.741345 969.22 8.34488C963.802 -0.0937378 955.361 -6.71388 945.651 -9.4119C935.159 -12.327 923.23 -10.651 912.133 -1.82757L897.636 9.69893L891.825 2.39352L906.13 -8.98043C915.636 -16.539 920.173 -25.8506 920.986 -35.188Z" stroke="black" stroke-opacity="0.05" stroke-width="1.48777"/>
<path d="M1024.78 -34.8689C1030.11 -26.3074 1038.53 -19.5441 1048.26 -16.7322C1058.83 -13.6796 1070.9 -15.297 1082.15 -24.2396L1096.45 -35.6135L1102.27 -28.3027L1087.77 -16.7762C1078.54 -9.43862 1074 -0.422253 1073.02 8.66397C1067.6 0.225354 1059.16 -6.39479 1049.45 -9.09281C1038.96 -12.008 1027.03 -10.3319 1015.93 -1.50848L1001.43 10.018L995.622 2.71261L1009.93 -8.66134C1019.43 -16.2199 1023.97 -25.5315 1024.78 -34.8689Z" stroke="black" stroke-opacity="0.05" stroke-width="1.48777"/>
<path d="M1128.56 -34.5655C1133.89 -26.004 1142.31 -19.2406 1152.05 -16.4288C1162.61 -13.3761 1174.68 -14.9935 1185.93 -23.9361L1200.23 -35.31L1206.05 -27.9993L1191.55 -16.4728C1182.32 -9.13516 1177.78 -0.118786 1176.8 8.96744C1171.38 0.528821 1162.94 -6.09132 1153.23 -8.78934C1142.74 -11.7045 1130.81 -10.0284 1119.71 -1.20501L1105.21 10.3215L1099.4 3.01608L1113.71 -8.35787C1123.21 -15.9164 1127.75 -25.2281 1128.56 -34.5655Z" stroke="black" stroke-opacity="0.05" stroke-width="1.48777"/>
<path d="M1232.35 -33.4502C1237.68 -24.8887 1246.1 -18.1254 1255.83 -15.3135C1266.4 -12.2609 1278.47 -13.8783 1289.72 -22.8208L1304.02 -34.1948L1309.84 -26.884L1295.34 -15.3575C1286.11 -8.01992 1281.57 0.996448 1280.59 10.0827C1275.17 1.64406 1266.73 -4.97609 1257.02 -7.67411C1246.53 -10.5893 1234.6 -8.9132 1223.5 -0.0897768L1209 11.4367L1203.19 4.13131L1217.5 -7.24264C1227 -14.8012 1231.54 -24.1128 1232.35 -33.4502Z" stroke="black" stroke-opacity="0.05" stroke-width="1.48777"/>
<path d="M1336.14 -33.145C1341.47 -24.5835 1349.89 -17.8202 1359.62 -15.0083C1370.19 -11.9557 1382.26 -13.5731 1393.51 -22.5157L1407.81 -33.8896L1413.63 -26.5789L1399.13 -15.0524C1389.9 -7.71475 1385.36 1.30162 1384.38 10.3878C1378.96 1.94923 1370.52 -4.67091 1360.81 -7.36893C1350.31 -10.2841 1338.39 -8.60802 1327.29 0.215399L1312.79 11.7419L1306.98 4.43649L1321.29 -6.93746C1330.79 -14.496 1335.33 -23.8077 1336.14 -33.145Z" stroke="black" stroke-opacity="0.05" stroke-width="1.48777"/>
<path d="M1439.94 -33.4502C1445.27 -24.8887 1453.69 -18.1254 1463.42 -15.3135C1473.99 -12.2609 1486.06 -13.8783 1497.3 -22.8208L1511.61 -34.1948L1517.42 -26.884L1502.93 -15.3575C1493.7 -8.01992 1489.16 0.996448 1488.17 10.0827C1482.76 1.64406 1474.32 -4.97609 1464.61 -7.67411C1454.11 -10.5893 1442.18 -8.9132 1431.09 -0.0897768L1416.59 11.4367L1410.78 4.13131L1425.08 -7.24264C1434.59 -14.8012 1439.13 -24.1128 1439.94 -33.4502Z" stroke="black" stroke-opacity="0.05" stroke-width="1.48777"/>
<path d="M-54.7336 22.3659C-49.4026 30.9274 -40.9839 37.6908 -31.2515 40.5026C-20.6853 43.5553 -8.61593 41.9379 2.63083 32.9953L16.9355 21.6214L22.7511 28.9321L8.25463 40.4586C-0.97365 47.7962 -5.51467 56.8126 -6.49924 65.8988C-11.9168 57.4602 -20.3584 50.8401 -30.0685 48.1421C-40.5607 45.2269 -52.4894 46.903 -63.5863 55.7264L-78.0828 67.2529L-83.8942 59.9475L-69.5896 48.5735C-60.0835 41.015 -55.5467 31.7033 -54.7336 22.3659Z" stroke="black" stroke-opacity="0.05" stroke-width="1.48777"/>
<path d="M49.0637 23.4814C54.3947 32.0429 62.8134 38.8062 72.5459 41.6181C83.1121 44.6708 95.1814 43.0533 106.428 34.1108L120.733 22.7368L126.549 30.0476L112.052 41.5741C102.824 48.9117 98.2827 57.9281 97.2981 67.0143C91.8805 58.5757 83.439 51.9556 73.7289 49.2575C63.2367 46.3424 51.308 48.0184 40.211 56.8419L25.7145 68.3684L19.9031 61.063L34.2078 49.689C43.7139 42.1305 48.2506 32.8188 49.0637 23.4814Z" stroke="black" stroke-opacity="0.05" stroke-width="1.48777"/>
<path d="M152.845 23.7854C158.176 32.3469 166.595 39.1102 176.327 41.9221C186.893 44.9747 198.963 43.3573 210.209 34.4147L224.514 23.0408L230.33 30.3516L215.833 41.8781C206.605 49.2157 202.064 58.232 201.079 67.3183C195.662 58.8797 187.22 52.2595 177.51 49.5615C167.018 46.6463 155.089 48.3224 143.992 57.1458L129.496 68.6723L123.684 61.3669L137.989 49.993C147.495 42.4344 152.032 33.1228 152.845 23.7854Z" stroke="black" stroke-opacity="0.05" stroke-width="1.48777"/>
<path d="M256.626 24.1025C261.957 32.664 270.376 39.4273 280.108 42.2392C290.675 45.2919 302.744 43.6744 313.991 34.7319L328.295 23.3579L334.111 30.6687L319.614 42.1952C310.386 49.5328 305.845 58.5492 304.861 67.6354C299.443 59.1968 291.001 52.5766 281.291 49.8786C270.799 46.9635 258.87 48.6395 247.774 57.463L233.277 68.9895L227.466 61.684L241.77 50.3101C251.276 42.7516 255.813 33.4399 256.626 24.1025Z" stroke="black" stroke-opacity="0.05" stroke-width="1.48777"/>
<path d="M360.424 24.4079C365.755 32.9694 374.173 39.7327 383.906 42.5446C394.472 45.5973 406.541 43.9799 417.788 35.0373L432.093 23.6634L437.908 30.9741L423.412 42.5006C414.184 49.8382 409.643 58.8546 408.658 67.9408C403.24 59.5022 394.799 52.8821 385.089 50.184C374.597 47.2689 362.668 48.945 351.571 57.7684L337.074 69.2949L331.263 61.9895L345.568 50.6155C355.074 43.057 359.611 33.7453 360.424 24.4079Z" stroke="black" stroke-opacity="0.05" stroke-width="1.48777"/>
<path d="M464.219 25.5229C469.55 34.0844 477.969 40.8477 487.701 43.6596C498.267 46.7123 510.337 45.0948 521.583 36.1523L535.888 24.7783L541.704 32.0891L527.207 43.6156C517.979 50.9532 513.438 59.9696 512.453 69.0558C507.036 60.6172 498.594 53.9971 488.884 51.299C478.392 48.3839 466.463 50.0599 455.366 58.8834L440.87 70.4099L435.058 63.1045L449.363 51.7305C458.869 44.172 463.406 34.8603 464.219 25.5229Z" stroke="black" stroke-opacity="0.05" stroke-width="1.48777"/>
<path d="M568.017 25.8271C573.348 34.3886 581.767 41.1519 591.499 43.9638C602.065 47.0165 614.135 45.399 625.381 36.4565L639.686 25.0825L645.502 32.3933L631.005 43.9198C621.777 51.2574 617.236 60.2738 616.251 69.36C610.834 60.9214 602.392 54.3013 592.682 51.6032C582.19 48.6881 570.261 50.3641 559.164 59.1876L544.668 70.7141L538.856 63.4087L553.161 52.0347C562.667 44.4762 567.204 35.1645 568.017 25.8271Z" stroke="black" stroke-opacity="0.05" stroke-width="1.48777"/>
<path d="M671.798 25.8274C677.129 34.3889 685.547 41.1522 695.28 43.9641C705.846 47.0167 717.915 45.3993 729.162 36.4567L743.467 25.0828L749.282 32.3936L734.786 43.9201C725.558 51.2577 721.017 60.274 720.032 69.3603C714.614 60.9216 706.173 54.3015 696.463 51.6035C685.971 48.6883 674.042 50.3644 662.945 59.1878L648.448 70.7143L642.637 63.4089L656.942 52.035C666.448 44.4764 670.985 35.1647 671.798 25.8274Z" stroke="black" stroke-opacity="0.05" stroke-width="1.48777"/>
<path d="M775.595 26.1318C780.926 34.6933 789.345 41.4566 799.077 44.2685C809.643 47.3212 821.713 45.7037 832.959 36.7612L847.264 25.3872L853.08 32.698L838.583 44.2245C829.355 51.5621 824.814 60.5785 823.829 69.6647C818.412 61.2261 809.97 54.6059 800.26 51.9079C789.768 48.9928 777.839 50.6688 766.742 59.4923L752.246 71.0188L746.434 63.7133L760.739 52.3394C770.245 44.7809 774.782 35.4692 775.595 26.1318Z" stroke="black" stroke-opacity="0.05" stroke-width="1.48777"/>
<path d="M879.384 27.247C884.715 35.8085 893.134 42.5719 902.866 45.3837C913.432 48.4364 925.502 46.819 936.749 37.8764L951.053 26.5025L956.869 33.8132L942.372 45.3397C933.144 52.6773 928.603 61.6937 927.618 70.7799C922.201 62.3413 913.759 55.7212 904.049 53.0232C893.557 50.108 881.628 51.7841 870.531 60.6075L856.035 72.134L850.223 64.8286L864.528 53.4546C874.034 45.8961 878.571 36.5844 879.384 27.247Z" stroke="black" stroke-opacity="0.05" stroke-width="1.48777"/>
<path d="M983.172 27.5512C988.503 36.1127 996.921 42.8761 1006.65 45.6879C1017.22 48.7406 1029.29 47.1232 1040.54 38.1806L1054.84 26.8067L1060.66 34.1174L1046.16 45.6439C1036.93 52.9815 1032.39 61.9979 1031.41 71.0841C1025.99 62.6455 1017.55 56.0254 1007.84 53.3274C997.345 50.4122 985.416 52.0883 974.319 60.9117L959.822 72.4382L954.011 65.1328L968.316 53.7588C977.822 46.2003 982.359 36.8886 983.172 27.5512Z" stroke="black" stroke-opacity="0.05" stroke-width="1.48777"/>
<path d="M1086.97 27.8686C1092.3 36.4301 1100.72 43.1934 1110.45 46.0053C1121.02 49.058 1133.09 47.4405 1144.33 38.498L1158.64 27.124L1164.45 34.4348L1149.96 45.9613C1140.73 53.2989 1136.19 62.3153 1135.2 71.4015C1129.79 62.9629 1121.35 56.3428 1111.64 53.6447C1101.14 50.7296 1089.21 52.4056 1078.12 61.2291L1063.62 72.7556L1057.81 65.4502L1072.11 54.0762C1081.62 46.5177 1086.16 37.206 1086.97 27.8686Z" stroke="black" stroke-opacity="0.05" stroke-width="1.48777"/>
<path d="M1190.76 28.1728C1196.09 36.7343 1204.51 43.4976 1214.24 46.3095C1224.81 49.3622 1236.88 47.7447 1248.12 38.8022L1262.43 27.4282L1268.24 34.739L1253.75 46.2655C1244.52 53.6031 1239.98 62.6195 1238.99 71.7057C1233.58 63.2671 1225.13 56.647 1215.42 53.9489C1204.93 51.0338 1193 52.7098 1181.91 61.5333L1167.41 73.0598L1161.6 65.7544L1175.9 54.3804C1185.41 46.8219 1189.95 37.5102 1190.76 28.1728Z" stroke="black" stroke-opacity="0.05" stroke-width="1.48777"/>
<path d="M1294.56 29.2888C1299.89 37.8503 1308.31 44.6136 1318.04 47.4255C1328.61 50.4782 1340.68 48.8607 1351.92 39.9182L1366.23 28.5442L1372.04 35.855L1357.55 47.3815C1348.32 54.7191 1343.78 63.7355 1342.79 72.8217C1337.37 64.3831 1328.93 57.7629 1319.22 55.0649C1308.73 52.1498 1296.8 53.8258 1285.7 62.6492L1271.21 74.1757L1265.4 66.8703L1279.7 55.4964C1289.21 47.9379 1293.74 38.6262 1294.56 29.2888Z" stroke="black" stroke-opacity="0.05" stroke-width="1.48777"/>
<path d="M1398.35 29.5925C1403.68 38.154 1412.1 44.9173 1421.83 47.7292C1432.4 50.7819 1444.47 49.1644 1455.72 40.2219L1470.02 28.8479L1475.84 36.1587L1461.34 47.6852C1452.11 55.0228 1447.57 64.0392 1446.59 73.1254C1441.17 64.6868 1432.73 58.0666 1423.02 55.3686C1412.53 52.4535 1400.6 54.1295 1389.5 62.9529L1375 74.4794L1369.19 67.174L1383.5 55.8001C1393 48.2416 1397.54 38.9299 1398.35 29.5925Z" stroke="black" stroke-opacity="0.05" stroke-width="1.48777"/>
<path d="M7.44655 85.1103C12.7775 93.6718 21.1962 100.435 30.9287 103.247C41.4949 106.3 53.5642 104.682 64.811 95.7397L79.1157 84.3657L84.9313 91.6765L70.4348 103.203C61.2065 110.541 56.6655 119.557 55.6809 128.643C50.2633 120.205 41.8218 113.584 32.1117 110.886C21.6195 107.971 9.69079 109.647 -1.40614 118.471L-15.9027 129.997L-21.7141 122.692L-7.40941 111.318C2.09668 103.759 6.63346 94.4477 7.44655 85.1103Z" stroke="black" stroke-opacity="0.05" stroke-width="1.48777"/>
<path d="M111.243 86.2236C116.574 94.7851 124.993 101.548 134.726 104.36C145.292 107.413 157.361 105.796 168.608 96.853L182.913 85.479L188.728 92.7898L174.232 104.316C165.003 111.654 160.462 120.67 159.478 129.756C154.06 121.318 145.619 114.698 135.909 112C125.416 109.085 113.488 110.761 102.391 119.584L87.8942 131.111L82.0828 123.805L96.3875 112.431C105.894 104.873 110.43 95.561 111.243 86.2236Z" stroke="black" stroke-opacity="0.05" stroke-width="1.48777"/>
<path d="M215.041 86.5281C220.372 95.0896 228.79 101.853 238.523 104.665C249.089 107.717 261.158 106.1 272.405 97.1574L286.71 85.7835L292.526 93.0942L278.029 104.621C268.801 111.958 264.26 120.975 263.275 130.061C257.858 121.622 249.416 115.002 239.706 112.304C229.214 109.389 217.285 111.065 206.188 119.888L191.692 131.415L185.88 124.11L200.185 112.736C209.691 105.177 214.228 95.8654 215.041 86.5281Z" stroke="black" stroke-opacity="0.05" stroke-width="1.48777"/>
<path d="M318.822 86.8467C324.153 95.4082 332.571 102.171 342.304 104.983C352.87 108.036 364.939 106.419 376.186 97.476L390.491 86.1021L396.306 93.4128L381.81 104.939C372.582 112.277 368.041 121.293 367.056 130.38C361.638 121.941 353.197 115.321 343.487 112.623C332.994 109.708 321.066 111.384 309.969 120.207L295.472 131.734L289.661 124.428L303.966 113.054C313.472 105.496 318.008 96.184 318.822 86.8467Z" stroke="black" stroke-opacity="0.05" stroke-width="1.48777"/>
<path d="M422.619 87.1513C427.95 95.7128 436.369 102.476 446.102 105.288C456.668 108.341 468.737 106.723 479.984 97.7807L494.289 86.4068L500.104 93.7175L485.608 105.244C476.379 112.582 471.838 121.598 470.854 130.684C465.436 122.246 456.995 115.625 447.285 112.927C436.792 110.012 424.864 111.688 413.767 120.512L399.27 132.038L393.459 124.733L407.763 113.359C417.27 105.8 421.806 96.4887 422.619 87.1513Z" stroke="black" stroke-opacity="0.05" stroke-width="1.48777"/>
<path d="M526.415 88.2651C531.746 96.8266 540.165 103.59 549.897 106.402C560.463 109.454 572.533 107.837 583.779 98.8945L598.084 87.5205L603.9 94.8313L589.403 106.358C580.175 113.695 575.634 122.712 574.649 131.798C569.232 123.359 560.79 116.739 551.08 114.041C540.588 111.126 528.659 112.802 517.562 121.626L503.066 133.152L497.254 125.847L511.559 114.473C521.065 106.914 525.602 97.6025 526.415 88.2651Z" stroke="black" stroke-opacity="0.05" stroke-width="1.48777"/>
<path d="M630.221 88.57C635.552 97.1315 643.971 103.895 653.704 106.707C664.27 109.759 676.339 108.142 687.586 99.1994L701.891 87.8255L707.706 95.1362L693.21 106.663C683.981 114 679.44 123.017 678.456 132.103C673.038 123.664 664.597 117.044 654.887 114.346C644.394 111.431 632.466 113.107 621.369 121.93L606.872 133.457L601.061 126.152L615.365 114.778C624.872 107.219 629.408 97.9074 630.221 88.57Z" stroke="black" stroke-opacity="0.05" stroke-width="1.48777"/>
<path d="M733.993 88.57C739.324 97.1315 747.743 103.895 757.476 106.707C768.042 109.759 780.111 108.142 791.358 99.1994L805.663 87.8255L811.478 95.1362L796.982 106.663C787.753 114 783.212 123.017 782.228 132.103C776.81 123.664 768.369 117.044 758.659 114.346C748.166 111.431 736.238 113.107 725.141 121.93L710.644 133.457L704.833 126.152L719.137 114.778C728.644 107.219 733.18 97.9074 733.993 88.57Z" stroke="black" stroke-opacity="0.05" stroke-width="1.48777"/>
<path d="M837.79 88.876C843.121 97.4375 851.54 104.201 861.272 107.013C871.839 110.065 883.908 108.448 895.155 99.5053L909.459 88.1314L915.275 95.4421L900.779 106.969C891.55 114.306 887.009 123.323 886.025 132.409C880.607 123.97 872.166 117.35 862.455 114.652C851.963 111.737 840.035 113.413 828.938 122.236L814.441 133.763L808.63 126.457L822.934 115.084C832.44 107.525 836.977 98.2133 837.79 88.876Z" stroke="black" stroke-opacity="0.05" stroke-width="1.48777"/>
<path d="M941.587 89.9892C946.918 98.5507 955.337 105.314 965.069 108.126C975.636 111.179 987.705 109.561 998.952 100.619L1013.26 89.2447L1019.07 96.5554L1004.58 108.082C995.347 115.42 990.806 124.436 989.822 133.522C984.404 125.084 975.962 118.463 966.252 115.765C955.76 112.85 943.831 114.526 932.734 123.35L918.238 134.876L912.427 127.571L926.731 116.197C936.237 108.638 940.774 99.3266 941.587 89.9892Z" stroke="black" stroke-opacity="0.05" stroke-width="1.48777"/>
<path d="M1045.38 90.2939C1050.71 98.8554 1059.13 105.619 1068.86 108.431C1079.42 111.483 1091.49 109.866 1102.74 100.923L1117.05 89.5493L1122.86 96.8601L1108.36 108.387C1099.14 115.724 1094.6 124.741 1093.61 133.827C1088.19 125.388 1079.75 118.768 1070.04 116.07C1059.55 113.155 1047.62 114.831 1036.52 123.654L1022.03 135.181L1016.22 127.875L1030.52 116.502C1040.03 108.943 1044.56 99.6313 1045.38 90.2939Z" stroke="black" stroke-opacity="0.05" stroke-width="1.48777"/>
<path d="M1149.17 90.6142C1154.5 99.1757 1162.91 105.939 1172.65 108.751C1183.21 111.804 1195.28 110.186 1206.53 101.244L1220.83 89.8697L1226.65 97.1804L1212.15 108.707C1202.93 116.045 1198.38 125.061 1197.4 134.147C1191.98 125.709 1183.54 119.088 1173.83 116.39C1163.34 113.475 1151.41 115.151 1140.31 123.975L1125.82 135.501L1120 128.196L1134.31 116.822C1143.82 109.263 1148.35 99.9516 1149.17 90.6142Z" stroke="black" stroke-opacity="0.05" stroke-width="1.48777"/>
<path d="M1252.95 90.9165C1258.28 99.478 1266.7 106.241 1276.43 109.053C1286.99 112.106 1299.06 110.488 1310.31 101.546L1324.62 90.1719L1330.43 97.4827L1315.93 109.009C1306.71 116.347 1302.17 125.363 1301.18 134.449C1295.76 126.011 1287.32 119.391 1277.61 116.693C1267.12 113.777 1255.19 115.453 1244.09 124.277L1229.6 135.803L1223.79 128.498L1238.09 117.124C1247.6 109.566 1252.13 100.254 1252.95 90.9165Z" stroke="black" stroke-opacity="0.05" stroke-width="1.48777"/>
<path d="M1356.74 92.0317C1362.07 100.593 1370.49 107.357 1380.23 110.168C1390.79 113.221 1402.86 111.604 1414.11 102.661L1428.41 91.2871L1434.23 98.5979L1419.73 110.124C1410.5 117.462 1405.96 126.478 1404.98 135.565C1399.56 127.126 1391.12 120.506 1381.41 117.808C1370.92 114.893 1358.99 116.569 1347.89 125.392L1333.39 136.919L1327.58 129.613L1341.89 118.239C1351.39 110.681 1355.93 101.369 1356.74 92.0317Z" stroke="black" stroke-opacity="0.05" stroke-width="1.48777"/>
<path d="M1460.54 92.3369C1465.87 100.898 1474.29 107.662 1484.02 110.474C1494.59 113.526 1506.66 111.909 1517.9 102.966L1532.21 91.5923L1538.03 98.9031L1523.53 110.43C1514.3 117.767 1509.76 126.784 1508.77 135.87C1503.36 127.431 1494.92 120.811 1485.21 118.113C1474.71 115.198 1462.78 116.874 1451.69 125.697L1437.19 137.224L1431.38 129.918L1445.68 118.544C1455.19 110.986 1459.73 101.674 1460.54 92.3369Z" stroke="black" stroke-opacity="0.05" stroke-width="1.48777"/>
<path d="M-34.1394 147.543C-28.8084 156.105 -20.3897 162.868 -10.6572 165.68C-0.0910391 168.733 11.9783 167.115 23.2251 158.173L37.5297 146.799L43.3454 154.11L28.8489 165.636C19.6206 172.974 15.0796 181.99 14.095 191.076C8.6774 182.638 0.235868 176.018 -9.47426 173.32C-19.9664 170.404 -31.8951 172.08 -42.9921 180.904L-57.4886 192.43L-63.3 185.125L-48.9954 173.751C-39.4893 166.192 -34.9525 156.881 -34.1394 147.543Z" stroke="black" stroke-opacity="0.05" stroke-width="1.48777"/>
<path d="M69.6575 147.847C74.9885 156.408 83.4072 163.172 93.1396 165.984C103.706 169.036 115.775 167.419 127.022 158.476L141.327 147.102L147.142 154.413L132.646 165.94C123.417 173.277 118.876 182.294 117.892 191.38C112.474 182.941 104.033 176.321 94.3226 173.623C83.8304 170.708 71.9017 172.384 60.8048 181.207L46.3083 192.734L40.4969 185.428L54.8015 174.054C64.3076 166.496 68.8444 157.184 69.6575 147.847Z" stroke="black" stroke-opacity="0.05" stroke-width="1.48777"/>
<path d="M173.439 148.962C178.77 157.523 187.188 164.287 196.921 167.099C207.487 170.151 219.556 168.534 230.803 159.591L245.108 148.217L250.924 155.528L236.427 167.055C227.199 174.392 222.658 183.409 221.673 192.495C216.256 184.056 207.814 177.436 198.104 174.738C187.612 171.823 175.683 173.499 164.586 182.322L150.09 193.849L144.278 186.543L158.583 175.169C168.089 167.611 172.626 158.299 173.439 148.962Z" stroke="black" stroke-opacity="0.05" stroke-width="1.48777"/>
<path d="M277.228 149.267C282.559 157.828 290.977 164.591 300.71 167.403C311.276 170.456 323.345 168.838 334.592 159.896L348.897 148.522L354.713 155.833L340.216 167.359C330.988 174.697 326.447 183.713 325.462 192.799C320.045 184.361 311.603 177.741 301.893 175.043C291.401 172.128 279.472 173.804 268.375 182.627L253.879 194.154L248.067 186.848L262.372 175.474C271.878 167.916 276.415 158.604 277.228 149.267Z" stroke="black" stroke-opacity="0.05" stroke-width="1.48777"/>
<path d="M381.017 149.585C386.348 158.147 394.767 164.91 404.499 167.722C415.065 170.775 427.135 169.157 438.381 160.215L452.686 148.841L458.502 156.152L444.005 167.678C434.777 175.016 430.236 184.032 429.251 193.118C423.834 184.68 415.392 178.06 405.682 175.362C395.19 172.446 383.261 174.122 372.164 182.946L357.668 194.472L351.856 187.167L366.161 175.793C375.667 168.234 380.204 158.923 381.017 149.585Z" stroke="black" stroke-opacity="0.05" stroke-width="1.48777"/>
<path d="M484.815 149.89C490.146 158.451 498.565 165.215 508.297 168.027C518.864 171.079 530.933 169.462 542.18 160.519L556.484 149.145L562.3 156.456L547.803 167.983C538.575 175.32 534.034 184.337 533.05 193.423C527.632 184.984 519.19 178.364 509.48 175.666C498.988 172.751 487.059 174.427 475.963 183.25L461.466 194.777L455.655 187.471L469.959 176.097C479.465 168.539 484.002 159.227 484.815 149.89Z" stroke="black" stroke-opacity="0.05" stroke-width="1.48777"/>
<path d="M588.611 151.003C593.942 159.565 602.36 166.328 612.093 169.14C622.659 172.193 634.728 170.575 645.975 161.633L660.28 150.259L666.095 157.57L651.599 169.096C642.371 176.434 637.83 185.45 636.845 194.536C631.427 186.098 622.986 179.478 613.276 176.78C602.784 173.864 590.855 175.54 579.758 184.364L565.261 195.89L559.45 188.585L573.755 177.211C583.261 169.652 587.798 160.341 588.611 151.003Z" stroke="black" stroke-opacity="0.05" stroke-width="1.48777"/>
<path d="M692.407 151.31C697.738 159.871 706.157 166.634 715.89 169.446C726.456 172.499 738.525 170.881 749.772 161.939L764.077 150.565L769.892 157.876L755.396 169.402C746.167 176.74 741.626 185.756 740.642 194.842C735.224 186.404 726.783 179.784 717.073 177.086C706.58 174.171 694.652 175.847 683.555 184.67L669.058 196.196L663.247 188.891L677.552 177.517C687.058 169.959 691.594 160.647 692.407 151.31Z" stroke="black" stroke-opacity="0.05" stroke-width="1.48777"/>
<path d="M796.189 151.31C801.52 159.871 809.938 166.634 819.671 169.446C830.237 172.499 842.306 170.881 853.553 161.939L867.858 150.565L873.674 157.876L859.177 169.402C849.949 176.74 845.408 185.756 844.423 194.842C839.006 186.404 830.564 179.784 820.854 177.086C810.362 174.171 798.433 175.847 787.336 184.67L772.84 196.196L767.028 188.891L781.333 177.517C790.839 169.959 795.376 160.647 796.189 151.31Z" stroke="black" stroke-opacity="0.05" stroke-width="1.48777"/>
<path d="M899.984 151.613C905.315 160.175 913.734 166.938 923.466 169.75C934.032 172.802 946.102 171.185 957.349 162.242L971.653 150.868L977.469 158.179L962.972 169.706C953.744 177.043 949.203 186.06 948.219 195.146C942.801 186.707 934.359 180.087 924.649 177.389C914.157 174.474 902.228 176.15 891.131 184.973L876.635 196.5L870.824 189.195L885.128 177.821C894.634 170.262 899.171 160.95 899.984 151.613Z" stroke="black" stroke-opacity="0.05" stroke-width="1.48777"/>
<path d="M1003.77 152.727C1009.1 161.289 1017.52 168.052 1027.25 170.864C1037.82 173.917 1049.89 172.299 1061.13 163.357L1075.44 151.983L1081.25 159.293L1066.76 170.82C1057.53 178.158 1052.99 187.174 1052 196.26C1046.58 187.822 1038.14 181.201 1028.43 178.503C1017.94 175.588 1006.01 177.264 994.915 186.088L980.419 197.614L974.607 190.309L988.912 178.935C998.418 171.376 1002.95 162.065 1003.77 152.727Z" stroke="black" stroke-opacity="0.05" stroke-width="1.48777"/>
<path d="M1107.56 153.032C1112.89 161.594 1121.31 168.357 1131.05 171.169C1141.61 174.222 1153.68 172.604 1164.93 163.662L1179.23 152.288L1185.05 159.599L1170.55 171.125C1161.32 178.463 1156.78 187.479 1155.8 196.565C1150.38 188.127 1141.94 181.507 1132.23 178.809C1121.74 175.893 1109.81 177.569 1098.71 186.393L1084.21 197.919L1078.4 190.614L1092.71 179.24C1102.21 171.682 1106.75 162.37 1107.56 153.032Z" stroke="black" stroke-opacity="0.05" stroke-width="1.48777"/>
<path d="M1211.36 153.351C1216.69 161.912 1225.11 168.675 1234.84 171.487C1245.41 174.54 1257.48 172.922 1268.73 163.98L1283.03 152.606L1288.85 159.917L1274.35 171.443C1265.12 178.781 1260.58 187.797 1259.59 196.883C1254.18 188.445 1245.74 181.825 1236.03 179.127C1225.53 176.212 1213.6 177.888 1202.51 186.711L1188.01 198.238L1182.2 190.932L1196.5 179.558C1206.01 172 1210.55 162.688 1211.36 153.351Z" stroke="black" stroke-opacity="0.05" stroke-width="1.48777"/>
<path d="M1315.15 153.655C1320.48 162.217 1328.9 168.98 1338.63 171.792C1349.2 174.845 1361.27 173.227 1372.51 164.285L1386.82 152.911L1392.63 160.221L1378.14 171.748C1368.91 179.086 1364.37 188.102 1363.38 197.188C1357.97 188.75 1349.52 182.129 1339.81 179.431C1329.32 176.516 1317.39 178.192 1306.3 187.016L1291.8 198.542L1285.99 191.237L1300.29 179.863C1309.8 172.304 1314.34 162.993 1315.15 153.655Z" stroke="black" stroke-opacity="0.05" stroke-width="1.48777"/>
<path d="M1418.95 154.77C1424.28 163.332 1432.7 170.095 1442.43 172.907C1452.99 175.96 1465.06 174.342 1476.31 165.4L1490.62 154.026L1496.43 161.337L1481.93 172.863C1472.71 180.201 1468.17 189.217 1467.18 198.303C1461.76 189.865 1453.32 183.245 1443.61 180.547C1433.12 177.631 1421.19 179.308 1410.09 188.131L1395.6 199.657L1389.79 192.352L1404.09 180.978C1413.6 173.42 1418.13 164.108 1418.95 154.77Z" stroke="black" stroke-opacity="0.05" stroke-width="1.48777"/>
<path d="M-75.7488 210.585C-70.4178 219.147 -61.9991 225.91 -52.2666 228.722C-41.7004 231.775 -29.6311 230.157 -18.3843 221.215L-4.07965 209.841L1.73601 217.152L-12.7605 228.678C-21.9888 236.016 -26.5298 245.032 -27.5144 254.118C-32.932 245.68 -41.3735 239.06 -51.0836 236.362C-61.5758 233.446 -73.5045 235.122 -84.6015 243.946L-99.098 255.472L-104.909 248.167L-90.6047 236.793C-81.0986 229.234 -76.5619 219.923 -75.7488 210.585Z" stroke="black" stroke-opacity="0.05" stroke-width="1.48777"/>
<path d="M28.0467 210.281C33.3776 218.842 41.7963 225.606 51.5288 228.418C62.095 231.47 74.1643 229.853 85.4111 220.91L99.7158 209.536L105.531 216.847L91.0349 228.374C81.8066 235.711 77.2656 244.728 76.281 253.814C70.8634 245.375 62.4219 238.755 52.7118 236.057C42.2196 233.142 30.2909 234.818 19.194 243.641L4.69744 255.168L-1.11397 247.863L13.1907 236.489C22.6968 228.93 27.2336 219.618 28.0467 210.281Z" stroke="black" stroke-opacity="0.05" stroke-width="1.48777"/>
<path d="M131.845 210.585C137.176 219.147 145.595 225.91 155.327 228.722C165.893 231.775 177.963 230.157 189.209 221.215L203.514 209.841L209.33 217.152L194.833 228.678C185.605 236.016 181.064 245.032 180.079 254.118C174.662 245.68 166.22 239.06 156.51 236.362C146.018 233.446 134.089 235.122 122.992 243.946L108.496 255.472L102.684 248.167L116.989 236.793C126.495 229.234 131.032 219.923 131.845 210.585Z" stroke="black" stroke-opacity="0.05" stroke-width="1.48777"/>
<path d="M235.634 211.7C240.965 220.261 249.384 227.024 259.116 229.836C269.682 232.889 281.752 231.272 292.999 222.329L307.303 210.955L313.119 218.266L298.622 229.792C289.394 237.13 284.853 246.146 283.868 255.233C278.451 246.794 270.009 240.174 260.299 237.476C249.807 234.561 237.878 236.237 226.781 245.06L212.285 256.587L206.473 249.281L220.778 237.907C230.284 230.349 234.821 221.037 235.634 211.7Z" stroke="black" stroke-opacity="0.05" stroke-width="1.48777"/>
<path d="M339.432 212.005C344.763 220.566 353.182 227.33 362.915 230.142C373.481 233.194 385.55 231.577 396.797 222.634L411.102 211.26L416.917 218.571L402.421 230.098C393.192 237.435 388.651 246.452 387.667 255.538C382.249 247.099 373.808 240.479 364.098 237.781C353.605 234.866 341.677 236.542 330.58 245.365L316.083 256.892L310.272 249.586L324.576 238.212C334.083 230.654 338.619 221.342 339.432 212.005Z" stroke="black" stroke-opacity="0.05" stroke-width="1.48777"/>
<path d="M443.212 212.323C448.543 220.885 456.962 227.648 466.694 230.46C477.261 233.513 489.33 231.895 500.577 222.953L514.881 211.579L520.697 218.889L506.2 230.416C496.972 237.754 492.431 246.77 491.447 255.856C486.029 247.417 477.587 240.797 467.877 238.099C457.385 235.184 445.456 236.86 434.359 245.684L419.863 257.21L414.052 249.905L428.356 238.531C437.862 230.972 442.399 221.661 443.212 212.323Z" stroke="black" stroke-opacity="0.05" stroke-width="1.48777"/>
<path d="M547.009 212.627C552.34 221.189 560.759 227.952 570.491 230.764C581.057 233.817 593.127 232.199 604.374 223.257L618.678 211.883L624.494 219.194L609.997 230.72C600.769 238.058 596.228 247.074 595.243 256.16C589.826 247.722 581.384 241.102 571.674 238.404C561.182 235.488 549.253 237.164 538.156 245.988L523.66 257.514L517.848 250.209L532.153 238.835C541.659 231.276 546.196 221.965 547.009 212.627Z" stroke="black" stroke-opacity="0.05" stroke-width="1.48777"/>
<path d="M650.806 213.743C656.137 222.304 664.556 229.067 674.288 231.879C684.854 234.932 696.924 233.315 708.17 224.372L722.475 212.998L728.291 220.309L713.794 231.835C704.566 239.173 700.025 248.189 699.04 257.276C693.623 248.837 685.181 242.217 675.471 239.519C664.979 236.604 653.05 238.28 641.953 247.103L627.457 258.63L621.645 251.324L635.95 239.95C645.456 232.392 649.993 223.08 650.806 213.743Z" stroke="black" stroke-opacity="0.05" stroke-width="1.48777"/>
<path d="M754.611 214.048C759.942 222.609 768.36 229.373 778.093 232.185C788.659 235.237 800.728 233.62 811.975 224.677L826.28 213.303L832.095 220.614L817.599 232.141C808.371 239.478 803.83 248.494 802.845 257.581C797.427 249.142 788.986 242.522 779.276 239.824C768.784 236.909 756.855 238.585 745.758 247.408L731.261 258.935L725.45 251.629L739.755 240.255C749.261 232.697 753.798 223.385 754.611 214.048Z" stroke="black" stroke-opacity="0.05" stroke-width="1.48777"/>
<path d="M858.384 214.048C863.715 222.609 872.134 229.373 881.866 232.185C892.432 235.237 904.502 233.62 915.749 224.677L930.053 213.303L935.869 220.614L921.372 232.141C912.144 239.478 907.603 248.494 906.618 257.581C901.201 249.142 892.759 242.522 883.049 239.824C872.557 236.909 860.628 238.585 849.531 247.408L835.035 258.935L829.223 251.629L843.528 240.255C853.034 232.697 857.571 223.385 858.384 214.048Z" stroke="black" stroke-opacity="0.05" stroke-width="1.48777"/>
<path d="M962.18 214.351C967.511 222.913 975.93 229.676 985.662 232.488C996.228 235.541 1008.3 233.923 1019.54 224.981L1033.85 213.607L1039.66 220.917L1025.17 232.444C1015.94 239.782 1011.4 248.798 1010.41 257.884C1005 249.446 996.555 242.825 986.845 240.127C976.353 237.212 964.424 238.888 953.327 247.712L938.831 259.238L933.019 251.933L947.324 240.559C956.83 233 961.367 223.689 962.18 214.351Z" stroke="black" stroke-opacity="0.05" stroke-width="1.48777"/>
<path d="M1065.98 215.466C1071.31 224.027 1079.73 230.791 1089.46 233.602C1100.03 236.655 1112.1 235.038 1123.34 226.095L1137.65 214.721L1143.46 222.032L1128.97 233.558C1119.74 240.896 1115.2 249.912 1114.21 258.999C1108.79 250.56 1100.35 243.94 1090.64 241.242C1080.15 238.327 1068.22 240.003 1057.13 248.826L1042.63 260.353L1036.82 253.047L1051.12 241.673C1060.63 234.115 1065.16 224.803 1065.98 215.466Z" stroke="black" stroke-opacity="0.05" stroke-width="1.48777"/>
<path d="M1169.76 215.77C1175.09 224.331 1183.51 231.095 1193.24 233.907C1203.81 236.959 1215.88 235.342 1227.12 226.399L1241.43 215.025L1247.24 222.336L1232.75 233.863C1223.52 241.2 1218.98 250.217 1217.99 259.303C1212.58 250.864 1204.13 244.244 1194.42 241.546C1183.93 238.631 1172 240.307 1160.91 249.13L1146.41 260.657L1140.6 253.352L1154.9 241.978C1164.41 234.419 1168.95 225.107 1169.76 215.77Z" stroke="black" stroke-opacity="0.05" stroke-width="1.48777"/>
<path d="M1273.54 216.089C1278.87 224.65 1287.29 231.414 1297.02 234.226C1307.59 237.278 1319.66 235.661 1330.9 226.718L1345.21 215.344L1351.03 222.655L1336.53 234.182C1327.3 241.519 1322.76 250.536 1321.77 259.622C1316.36 251.183 1307.92 244.563 1298.21 241.865C1287.71 238.95 1275.78 240.626 1264.69 249.449L1250.19 260.976L1244.38 253.67L1258.68 242.296C1268.19 234.738 1272.73 225.426 1273.54 216.089Z" stroke="black" stroke-opacity="0.05" stroke-width="1.48777"/>
<path d="M1377.34 216.393C1382.67 224.955 1391.09 231.718 1400.82 234.53C1411.39 237.583 1423.46 235.965 1434.7 227.023L1449.01 215.649L1454.82 222.959L1440.33 234.486C1431.1 241.824 1426.56 250.84 1425.57 259.926C1420.15 251.488 1411.71 244.867 1402 242.169C1391.51 239.254 1379.58 240.93 1368.48 249.754L1353.99 261.28L1348.18 253.975L1362.48 242.601C1371.99 235.042 1376.52 225.731 1377.34 216.393Z" stroke="black" stroke-opacity="0.05" stroke-width="1.48777"/>
<path d="M-13.5378 273.324C-8.20683 281.885 0.211865 288.649 9.94433 291.46C20.5105 294.513 32.5799 292.896 43.8266 283.953L58.1313 272.579L63.947 279.89L49.4504 291.416C40.2222 298.754 35.6811 307.77 34.6966 316.857C29.279 308.418 20.8374 301.798 11.1273 299.1C0.635118 296.185 -11.2936 297.861 -22.3905 306.684L-36.887 318.211L-42.6984 310.905L-28.3938 299.531C-18.8877 291.973 -14.3509 282.661 -13.5378 273.324Z" stroke="black" stroke-opacity="0.05" stroke-width="1.48777"/>
<path d="M90.2512 273.02C95.5822 281.582 104.001 288.345 113.733 291.157C124.3 294.21 136.369 292.592 147.616 283.65L161.92 272.276L167.736 279.587L153.239 291.113C144.011 298.451 139.47 307.467 138.486 316.553C133.068 308.115 124.626 301.495 114.916 298.797C104.424 295.881 92.4955 297.558 81.3985 306.381L66.902 317.907L61.0906 310.602L75.3953 299.228C84.9014 291.67 89.4381 282.358 90.2512 273.02Z" stroke="black" stroke-opacity="0.05" stroke-width="1.48777"/>
<path d="M194.04 273.324C199.371 281.885 207.79 288.649 217.522 291.46C228.089 294.513 240.158 292.896 251.405 283.953L265.709 272.579L271.525 279.89L257.029 291.416C247.8 298.754 243.259 307.77 242.275 316.857C236.857 308.418 228.416 301.798 218.705 299.1C208.213 296.185 196.285 297.861 185.188 306.684L170.691 318.211L164.88 310.905L179.184 299.531C188.69 291.973 193.227 282.661 194.04 273.324Z" stroke="black" stroke-opacity="0.05" stroke-width="1.48777"/>
<path d="M297.821 274.438C303.152 283 311.571 289.763 321.303 292.575C331.869 295.628 343.939 294.01 355.186 285.068L369.49 273.694L375.306 281.004L360.809 292.531C351.581 299.869 347.04 308.885 346.055 317.971C340.638 309.532 332.196 302.912 322.486 300.214C311.994 297.299 300.065 298.975 288.968 307.799L274.472 319.325L268.66 312.02L282.965 300.646C292.471 293.087 297.008 283.776 297.821 274.438Z" stroke="black" stroke-opacity="0.05" stroke-width="1.48777"/>
<path d="M401.618 274.743C406.949 283.304 415.368 290.067 425.101 292.879C435.667 295.932 447.736 294.315 458.983 285.372L473.288 273.998L479.103 281.309L464.607 292.835C455.378 300.173 450.837 309.189 449.853 318.276C444.435 309.837 435.994 303.217 426.284 300.519C415.791 297.604 403.863 299.28 392.766 308.103L378.269 319.63L372.458 312.324L386.762 300.95C396.269 293.392 400.805 284.08 401.618 274.743Z" stroke="black" stroke-opacity="0.05" stroke-width="1.48777"/>
<path d="M505.415 275.062C510.746 283.623 519.165 290.386 528.897 293.198C539.464 296.251 551.533 294.633 562.78 285.691L577.084 274.317L582.9 281.628L568.404 293.154C559.175 300.492 554.634 309.508 553.65 318.594C548.232 310.156 539.791 303.536 530.08 300.838C519.588 297.922 507.66 299.599 496.563 308.422L482.066 319.948L476.255 312.643L490.559 301.269C500.065 293.711 504.602 284.399 505.415 275.062Z" stroke="black" stroke-opacity="0.05" stroke-width="1.48777"/>
<path d="M609.204 275.366C614.535 283.928 622.954 290.691 632.687 293.503C643.253 296.556 655.322 294.938 666.569 285.996L680.873 274.622L686.689 281.932L672.193 293.459C662.964 300.796 658.423 309.813 657.439 318.899C652.021 310.46 643.58 303.84 633.869 301.142C623.377 298.227 611.449 299.903 600.352 308.727L585.855 320.253L580.044 312.948L594.348 301.574C603.854 294.015 608.391 284.704 609.204 275.366Z" stroke="black" stroke-opacity="0.05" stroke-width="1.48777"/>
<path d="M712.993 276.481C718.324 285.042 726.743 291.806 736.476 294.618C747.042 297.67 759.111 296.053 770.358 287.11L784.663 275.736L790.478 283.047L775.982 294.574C766.753 301.911 762.212 310.928 761.228 320.014C755.81 311.575 747.369 304.955 737.659 302.257C727.166 299.342 715.238 301.018 704.141 309.841L689.644 321.368L683.833 314.062L698.137 302.689C707.644 295.13 712.18 285.818 712.993 276.481Z" stroke="black" stroke-opacity="0.05" stroke-width="1.48777"/>
<path d="M816.797 276.785C822.128 285.347 830.547 292.11 840.279 294.922C850.845 297.975 862.915 296.357 874.162 287.415L888.466 276.041L894.282 283.352L879.785 294.878C870.557 302.216 866.016 311.232 865.032 320.318C859.614 311.88 851.172 305.26 841.462 302.561C830.97 299.646 819.041 301.322 807.944 310.146L793.448 321.672L787.637 314.367L801.941 302.993C811.447 295.434 815.984 286.123 816.797 276.785Z" stroke="black" stroke-opacity="0.05" stroke-width="1.48777"/>
<path d="M920.581 276.785C925.912 285.347 934.331 292.11 944.063 294.922C954.629 297.975 966.699 296.357 977.945 287.415L992.25 276.041L998.066 283.352L983.569 294.878C974.341 302.216 969.8 311.232 968.815 320.318C963.398 311.88 954.956 305.26 945.246 302.561C934.754 299.646 922.825 301.322 911.728 310.146L897.232 321.672L891.42 314.367L905.725 302.993C915.231 295.434 919.768 286.123 920.581 276.785Z" stroke="black" stroke-opacity="0.05" stroke-width="1.48777"/>
<path d="M1024.38 277.091C1029.71 285.652 1038.13 292.416 1047.86 295.227C1058.42 298.28 1070.49 296.663 1081.74 287.72L1096.05 276.346L1101.86 283.657L1087.36 295.183C1078.14 302.521 1073.6 311.537 1072.61 320.624C1067.19 312.185 1058.75 305.565 1049.04 302.867C1038.55 299.952 1026.62 301.628 1015.52 310.451L1001.03 321.978L995.216 314.672L1009.52 303.298C1019.03 295.74 1023.56 286.428 1024.38 277.091Z" stroke="black" stroke-opacity="0.05" stroke-width="1.48777"/>
<path d="M1128.16 278.204C1133.49 286.766 1141.91 293.529 1151.64 296.341C1162.21 299.393 1174.28 297.776 1185.52 288.833L1199.83 277.459L1205.64 284.77L1191.15 296.297C1181.92 303.634 1177.38 312.651 1176.39 321.737C1170.97 313.298 1162.53 306.678 1152.82 303.98C1142.33 301.065 1130.4 302.741 1119.3 311.565L1104.81 323.091L1099 315.786L1113.3 304.412C1122.81 296.853 1127.34 287.541 1128.16 278.204Z" stroke="black" stroke-opacity="0.05" stroke-width="1.48777"/>
<path d="M1231.95 278.509C1237.29 287.071 1245.7 293.834 1255.44 296.646C1266 299.699 1278.07 298.081 1289.32 289.139L1303.62 277.765L1309.44 285.075L1294.94 296.602C1285.71 303.94 1281.17 312.956 1280.19 322.042C1274.77 313.604 1266.33 306.983 1256.62 304.285C1246.13 301.37 1234.2 303.046 1223.1 311.87L1208.61 323.396L1202.79 316.091L1217.1 304.717C1226.6 297.158 1231.14 287.847 1231.95 278.509Z" stroke="black" stroke-opacity="0.05" stroke-width="1.48777"/>
<path d="M1335.75 278.827C1341.08 287.389 1349.5 294.152 1359.23 296.964C1369.8 300.017 1381.87 298.399 1393.11 289.457L1407.42 278.083L1413.23 285.394L1398.74 296.92C1389.51 304.258 1384.97 313.274 1383.98 322.36C1378.57 313.922 1370.13 307.302 1360.41 304.603C1349.92 301.688 1337.99 303.364 1326.9 312.188L1312.4 323.714L1306.59 316.409L1320.89 305.035C1330.4 297.476 1334.94 288.165 1335.75 278.827Z" stroke="black" stroke-opacity="0.05" stroke-width="1.48777"/>
<path d="M1439.55 279.132C1444.88 287.693 1453.3 294.457 1463.03 297.269C1473.6 300.321 1485.67 298.704 1496.91 289.761L1511.22 278.387L1517.03 285.698L1502.54 297.224C1493.31 304.562 1488.77 313.578 1487.78 322.665C1482.36 314.226 1473.92 307.606 1464.21 304.908C1453.72 301.993 1441.79 303.669 1430.7 312.492L1416.2 324.019L1410.39 316.713L1424.69 305.339C1434.2 297.781 1438.74 288.469 1439.55 279.132Z" stroke="black" stroke-opacity="0.05" stroke-width="1.48777"/>
</g>
<defs>
<clipPath id="clip0_663_55454">
<rect width="1440" height="288" fill="white"/>
</clipPath>
</defs>
</svg>
