<svg width="1340" height="364" viewBox="0 0 1340 364" fill="none" xmlns="http://www.w3.org/2000/svg">
<g clip-path="url(#clip0_2207_10967)">
<rect width="1340" height="364" rx="20" fill="white"/>
<rect width="1340" height="364" rx="20" fill="#2575F0" fill-opacity="0.6"/>
<path d="M-11.0625 349.252L-34.3218 327.816L-72.0767 368.784C-169.503 474.501 -332.709 332.102 -239.01 223.074C-234.79 218.093 -230.303 213.358 -225.56 208.613C-138.055 122.087 3.86075 117.61 96.8875 198.414C198.362 286.633 206.344 440.461 115.916 538.584C113.522 541.182 111.189 543.714 108.723 546.122C7.37899 646.996 -146.115 495.931 -49.2419 390.814L-10.9345 349.246L-11.0625 349.252Z" fill="white" fill-opacity="0.3"/>
<path d="M1548.74 149.189L1580.67 198.936L1493.05 255.188C1266.94 400.347 1476.3 746.824 1707.3 609.597C1717.83 603.439 1728 596.711 1738.27 589.515C1925.84 456.414 1979.97 196.621 1861.31 -0.751623C1731.73 -216.074 1451.14 -280.508 1241.27 -145.777C1235.71 -142.209 1230.3 -138.734 1225.07 -134.973C1006.61 18.9637 1235.06 350.366 1459.88 206.031L1548.79 148.955L1548.74 149.189Z" fill="white" fill-opacity="0.3"/>
</g>
<rect x="0.5" y="0.5" width="1339" height="363" rx="19.5" stroke="black" stroke-opacity="0.1"/>
<defs>
<clipPath id="clip0_2207_10967">
<rect width="1340" height="364" rx="20" fill="white"/>
</clipPath>
</defs>
</svg>
