<svg width="210" height="37" viewBox="0 0 210 37" fill="none" xmlns="http://www.w3.org/2000/svg">
<g clip-path="url(#clip0_879_14200)">
<path d="M57.3159 20.2014C57.3159 23.9338 59.7059 26.0271 62.48 26.0271C65.254 26.0271 66.6926 24.0085 67.111 22.5995L70.9855 24.0085C70.1143 26.9012 67.3403 30.0643 62.48 30.0643C57.0522 30.0643 52.9141 25.8373 52.9141 20.2014C52.9141 14.5655 57.0522 10.373 62.3653 10.373C67.3403 10.373 70.0742 13.4958 70.8308 16.469L66.8818 17.9183C66.4633 16.2793 65.2139 14.4505 62.3997 14.4505C59.5855 14.4505 57.3101 16.469 57.3101 20.2014H57.3159Z" fill="white"/>
<path d="M75.5361 1.5332C77.1294 1.5332 78.419 2.82716 78.419 4.42592C78.419 6.02468 77.1294 7.28414 75.5361 7.28414C73.9427 7.28414 72.6875 6.02468 72.6875 4.42592C72.6875 2.82716 73.9771 1.5332 75.5361 1.5332ZM73.3695 29.4942V10.9417H77.737V29.4942H73.3695Z" fill="white"/>
<path d="M87.4964 10.9438H91.3308V14.8659H87.4964V23.475C87.4964 25.1141 88.2186 25.7984 89.8521 25.7984C90.4596 25.7984 91.1818 25.6834 91.3709 25.6431V29.3007C91.1073 29.4158 90.2705 29.7206 88.6771 29.7206C85.2611 29.7206 83.1347 27.6617 83.1347 24.1997V14.8659H79.7188V10.9438H80.6702C82.6418 10.9438 83.5187 9.6843 83.5187 8.05103V5.26758H87.5079V10.9438H87.4964Z" fill="white"/>
<path d="M95.5498 37.0008L99.9918 27.2875L92.0938 10.9434H97.0687L102.382 22.6753L107.357 10.9434H112.028L100.261 37.0008H95.5556H95.5498Z" fill="white"/>
<path d="M138.704 26.1025C138.704 27.7818 138.853 29.1907 138.893 29.4955H134.68C134.606 29.0757 134.491 27.8565 134.491 27.0974C133.62 28.6617 131.683 29.9556 129.064 29.9556C123.75 29.9556 120.18 25.7632 120.18 20.1675C120.18 14.5719 123.785 10.4542 128.989 10.4542C132.216 10.4542 133.849 11.9379 134.417 13.1226V1.91406H138.71V26.1025H138.704ZM129.556 26.0622C132.439 26.0622 134.451 23.6641 134.451 20.1215C134.451 16.5789 132.48 14.3706 129.591 14.3706C126.702 14.3706 124.581 16.6192 124.581 20.1618C124.581 23.7044 126.553 26.068 129.556 26.068V26.0622Z" fill="white"/>
<path d="M145.122 1.5332C146.715 1.5332 148.005 2.82716 148.005 4.42592C148.005 6.02468 146.715 7.28414 145.122 7.28414C143.529 7.28414 142.273 6.02468 142.273 4.42592C142.273 2.82716 143.563 1.5332 145.122 1.5332ZM142.955 29.4942V10.9417H147.323V29.4942H142.955Z" fill="white"/>
<path d="M153.702 23.3988C153.856 25.0781 155.106 26.5618 157.461 26.5618C159.284 26.5618 160.235 25.5727 160.235 24.4282C160.235 23.4391 159.553 22.6742 158.069 22.3694L155.335 21.7598C152.068 21.0352 150.36 18.9016 150.36 16.3482C150.36 13.1104 153.323 10.3672 157.158 10.3672C162.322 10.3672 163.99 13.72 164.293 15.5488L160.574 16.6127C160.419 15.5488 159.622 13.835 157.158 13.835C155.599 13.835 154.498 14.8242 154.498 15.9686C154.498 16.9578 155.22 17.6824 156.361 17.9124L159.169 18.4818C162.66 19.2409 164.483 21.3745 164.483 24.1177C164.483 26.8609 162.207 30.0584 157.496 30.0584C152.143 30.0584 150.091 26.5561 149.867 24.457L153.702 23.3873V23.3988Z" fill="white"/>
<path d="M172.91 10.9438H176.745V14.8659H172.91V23.475C172.91 25.1141 173.633 25.7984 175.266 25.7984C175.874 25.7984 176.596 25.6834 176.785 25.6431V29.3007C176.521 29.4158 175.685 29.7206 174.091 29.7206C170.675 29.7206 168.549 27.6617 168.549 24.1997V14.8659H165.133V10.9438H166.084C168.056 10.9438 168.933 9.6843 168.933 8.05103V5.26758H172.922V10.9438H172.91Z" fill="white"/>
<path d="M190.22 15.3252C189.727 15.2505 189.234 15.2102 188.775 15.2102C185.359 15.2102 183.8 17.1943 183.8 20.6564V29.4956H179.398V10.943H183.686V13.9163C184.557 11.8977 186.609 10.7188 189.039 10.7188C189.572 10.7188 190.025 10.7935 190.214 10.8338V15.331L190.22 15.3252Z" fill="white"/>
<path d="M209.922 20.2014C209.922 25.9178 205.858 30.07 200.316 30.07C194.774 30.07 190.75 25.9178 190.75 20.2014C190.75 14.485 194.814 10.373 200.316 10.373C205.818 10.373 209.922 14.5252 209.922 20.2014ZM205.48 20.2014C205.48 16.354 203.05 14.3757 200.316 14.3757C197.582 14.3757 195.152 16.354 195.152 20.2014C195.152 24.0488 197.622 26.1076 200.316 26.1076C203.01 26.1076 205.48 24.089 205.48 20.2014Z" fill="white"/>
</g>
<g clip-path="url(#clip1_879_14200)">
<path d="M11.9477 16.4164V14.3664H15.5618C24.8878 14.3664 25.2698 0.333704 15.9496 0.0106399C15.5265 -0.00698178 15.1034 -0.00110789 14.6685 0.0165138C6.68823 0.386569 0.235828 6.95358 0.00664456 14.9362C-0.246045 23.6472 6.74112 30.784 15.3972 30.784C15.6264 30.784 15.8497 30.784 16.073 30.7722C25.3403 30.3728 24.8819 16.4223 15.6088 16.4223H11.9418L11.9477 16.4164Z" fill="#FFAD00"/>
<path d="M31.7642 22.6371V20.5871H28.1501C18.8241 20.5871 18.4422 6.55441 27.7623 6.23134C28.1854 6.21372 28.6085 6.2196 29.0434 6.23722C37.0178 6.60727 43.4702 13.1743 43.7053 21.1569C43.9579 29.8679 36.9708 37.0047 28.3147 37.0047C28.0855 37.0047 27.8622 37.0047 27.6389 36.9929C18.3716 36.5935 18.83 22.643 28.1031 22.643H31.7701L31.7642 22.6371Z" fill="#FFAD00"/>
</g>
<defs>
<clipPath id="clip0_879_14200">
<rect width="157.009" height="35.466" fill="white" transform="translate(52.9141 1.5332)"/>
</clipPath>
<clipPath id="clip1_879_14200">
<rect width="43.7095" height="36.9997" fill="white"/>
</clipPath>
</defs>
</svg>
