<svg width="50" height="52" viewBox="0 0 50 52" fill="none" xmlns="http://www.w3.org/2000/svg">
<g clip-path="url(#clip0_663_59566)">
<path d="M41.2797 4.67358C41.1145 4.67361 40.9509 4.70629 40.7984 4.76973C40.6459 4.83317 40.5074 4.92613 40.3909 5.04326L35.2178 10.214C35.0763 10.3548 34.9706 10.5273 34.9092 10.7173C34.8479 10.9072 34.8328 11.109 34.8652 11.3059L35.3377 14.1924L33.9251 15.6026C30.746 12.7707 26.5578 11.0464 21.9751 11.0464C12.0633 11.0464 4.00732 19.1055 4.00732 29.0167C4.00732 38.9279 12.0633 46.9967 21.9751 46.9967C31.8869 46.9967 39.9552 38.9279 39.9552 29.0167C39.9552 24.5885 38.3438 20.5323 35.678 17.3972L37.1054 15.9699L40.0017 16.4326C40.1969 16.4637 40.3967 16.4482 40.5847 16.3873C40.7728 16.3265 40.9438 16.222 41.0838 16.0825L46.257 10.9093C46.4219 10.7463 46.5384 10.5408 46.5935 10.3156C46.6486 10.0903 46.6402 9.85425 46.5692 9.63353C46.4981 9.41281 46.3673 9.21611 46.1911 9.06531C46.015 8.91451 45.8005 8.81551 45.5715 8.77932L42.9445 8.36312L42.5185 5.73613C42.4827 5.50714 42.3841 5.29257 42.2337 5.11623C42.0833 4.9399 41.887 4.80871 41.6665 4.73724C41.5417 4.69587 41.4112 4.67439 41.2797 4.67358ZM40.4375 8.54918L40.6113 9.6509C40.6518 9.91242 40.7741 10.1544 40.9606 10.3422C41.147 10.53 41.3881 10.6539 41.6494 10.6963L42.7413 10.8726L39.7617 13.8521L37.7713 13.5363L37.4481 11.5385L40.4375 8.54918ZM21.9751 13.5559C25.8787 13.5559 29.4404 14.9924 32.1599 17.3678L29.6602 19.865C27.579 18.1174 24.8961 17.0618 21.9751 17.0618C15.3851 17.0618 10.0203 22.4269 10.0203 29.0167C10.0203 35.6064 15.3851 40.9813 21.9751 40.9813C28.5652 40.9813 33.9398 35.6064 33.9398 29.0167C33.9398 26.2491 32.9937 23.6983 31.4058 21.6694L33.9104 19.1648C36.1206 21.8377 37.4481 25.2689 37.4481 29.0167C37.4481 37.5729 30.5321 44.4897 21.9751 44.4897C13.4181 44.4897 6.51434 37.5729 6.51434 29.0167C6.51434 20.4604 13.4181 13.5559 21.9751 13.5559ZM21.9751 19.5688C24.2162 19.5688 26.2722 20.3414 27.8901 21.6351L25.1162 24.409C24.2194 23.7967 23.1355 23.4371 21.9751 23.4371C18.9061 23.4371 16.3955 25.9477 16.3955 29.0167C16.3955 32.0856 18.9061 34.606 21.9751 34.606C25.0442 34.606 27.5645 32.0856 27.5645 29.0167C27.5645 28.0124 27.2933 27.0689 26.8227 26.2526L29.6259 23.4493C30.7628 25.0085 31.4328 26.9316 31.4328 29.0167C31.4328 34.2514 27.2104 38.4743 21.9751 38.4743C16.7399 38.4743 12.5297 34.2514 12.5297 29.0167C12.5297 23.7819 16.7399 19.5688 21.9751 19.5688ZM21.9751 25.9441C22.4465 25.9441 22.8921 26.0484 23.2898 26.233L21.2921 28.2308C21.1749 28.3473 21.082 28.4857 21.0186 28.6383C20.9552 28.7908 20.9226 28.9543 20.9226 29.1195C20.9226 29.2847 20.9552 29.4482 21.0186 29.6007C21.082 29.7532 21.1749 29.8917 21.2921 30.0082C21.4085 30.1249 21.5468 30.2176 21.6991 30.2808C21.8514 30.344 22.0147 30.3765 22.1796 30.3765C22.3444 30.3765 22.5077 30.344 22.66 30.2808C22.8123 30.2176 22.9506 30.1249 23.067 30.0082L24.9326 28.1426C25.0135 28.4195 25.0575 28.7116 25.0575 29.0167C25.0575 30.7306 23.6894 32.099 21.9751 32.099C20.2609 32.099 18.905 30.7306 18.905 29.0167C18.905 27.3027 20.2609 25.9441 21.9751 25.9441Z" fill="white"/>
</g>
<defs>
<clipPath id="clip0_663_59566">
<rect width="50" height="51.3514" fill="white"/>
</clipPath>
</defs>
</svg>
