<svg width="56" height="43" viewBox="0 0 56 43" fill="none" xmlns="http://www.w3.org/2000/svg">
<path d="M18.2233 36.395C17.9856 36.395 17.7577 36.3006 17.5897 36.1326C17.4217 35.9645 17.3273 35.7366 17.3273 35.499V33.5642C14.6972 33.3896 12.1755 32.45 10.0724 30.861C7.96927 29.272 6.37653 27.1029 5.49009 24.6205C4.60365 22.1382 4.46218 19.4508 5.08308 16.8891C5.70398 14.3274 7.06016 12.003 8.98479 10.202C10.9094 8.40092 13.3185 7.20175 15.9158 6.75199C18.513 6.30222 21.1851 6.62148 23.6033 7.67048C26.0214 8.71948 28.0802 10.4525 29.5264 12.6562C30.9725 14.86 31.7429 17.4385 31.7428 20.0744C31.7429 21.2676 32.0969 22.4341 32.7599 23.4262C33.4229 24.4183 34.3653 25.1916 35.4677 25.6481C36.5702 26.1047 37.7833 26.2241 38.9536 25.9912C40.124 25.7584 41.199 25.1837 42.0427 24.3399C42.8865 23.4961 43.461 22.421 43.6938 21.2507C43.9265 20.0803 43.807 18.8672 43.3504 17.7648C42.8937 16.6623 42.1204 15.7201 41.1282 15.0571C40.136 14.3942 38.9695 14.0404 37.7762 14.0404C37.5386 14.0404 37.3107 13.946 37.1427 13.7779C36.9746 13.6099 36.8802 13.382 36.8802 13.1444V7.44971C36.8802 7.21208 36.9746 6.98418 37.1427 6.81615C37.3107 6.64811 37.5386 6.55371 37.7762 6.55371C40.4503 6.5536 43.0643 7.34643 45.2877 8.83195C47.5111 10.3175 49.2441 12.4289 50.2675 14.8994C51.2909 17.3698 51.5588 20.0882 51.0372 22.7109C50.5156 25.3335 49.2281 27.7426 47.3373 29.6335C45.4466 31.5244 43.0376 32.8122 40.415 33.334C37.7924 33.8558 35.0739 33.5881 32.6034 32.5649C30.1329 31.5417 28.0213 29.8089 26.5356 27.5856C25.0499 25.3623 24.2568 22.7484 24.2567 20.0744C24.2568 18.9193 23.9253 17.7885 23.3016 16.8163C22.678 15.8441 21.7883 15.0714 20.7384 14.5899C19.6886 14.1084 18.5225 13.9383 17.3788 14.1C16.2352 14.2617 15.1619 14.7482 14.2866 15.5018C13.4113 16.2555 12.7707 17.2445 12.441 18.3515C12.1112 19.4585 12.1061 20.6368 12.4263 21.7466C12.7465 22.8564 13.3785 23.8509 14.2473 24.6121C15.116 25.3733 16.185 25.8691 17.3273 26.0406V24.0834C17.3268 23.9108 17.3761 23.7416 17.4695 23.5964C17.5628 23.4512 17.6961 23.336 17.8533 23.2647C18.0106 23.1934 18.185 23.1691 18.3558 23.1946C18.5265 23.2201 18.6863 23.2944 18.8158 23.4086L25.3465 29.1161C25.4428 29.2002 25.5199 29.3039 25.5728 29.4203C25.6257 29.5367 25.653 29.6631 25.653 29.7909C25.653 29.9188 25.6257 30.0451 25.5728 30.1615C25.5199 30.2779 25.4428 30.3816 25.3465 30.4657L18.8158 36.1738C18.6517 36.3171 18.4411 36.3957 18.2233 36.395ZM18.2233 8.34571C15.1269 8.36711 12.1646 9.61214 9.98271 11.8092C7.80077 14.0063 6.57624 16.9771 6.57624 20.0735C6.57624 23.17 7.80077 26.1407 9.98271 28.3378C12.1646 30.5349 15.1269 31.7799 18.2233 31.8013C18.4609 31.8013 18.6888 31.8957 18.8568 32.0637C19.0249 32.2318 19.1193 32.4597 19.1193 32.6973V33.5261L23.3949 29.7909L19.1193 26.0563V27.0027C19.1193 27.2403 19.0249 27.4682 18.8568 27.6362C18.6888 27.8043 18.4609 27.8987 18.2233 27.8987C13.9085 27.8987 10.3984 24.3864 10.3984 20.0744C10.3984 15.7624 13.9085 12.2495 18.2233 12.2495C22.5381 12.2495 26.0487 15.7584 26.0487 20.0744C26.0492 22.3554 26.7149 24.5868 27.9643 26.4953C29.2138 28.4037 30.9927 29.9064 33.0832 30.8191C35.1737 31.7319 37.485 32.0152 39.734 31.6342C41.983 31.2533 44.0722 30.2247 45.7455 28.6745C47.4188 27.1242 48.6037 25.1196 49.155 22.9062C49.7063 20.6927 49.6001 18.3666 48.8494 16.2126C48.0987 14.0586 46.736 12.1703 44.9284 10.7789C43.1208 9.38763 40.9466 8.55371 38.6722 8.37931V12.2993C42.5665 12.7473 45.6011 16.0614 45.6011 20.0732C45.6011 24.3886 42.091 27.8987 37.7762 27.8987C33.4614 27.8987 29.9508 24.3864 29.9508 20.0744C29.9509 18.5342 29.6476 17.0091 29.0583 15.5862C28.4689 14.1632 27.6051 12.8703 26.5161 11.7812C25.4271 10.6921 24.1343 9.82813 22.7114 9.23867C21.2885 8.64922 19.7634 8.34579 18.2233 8.34571Z" fill="white"/>
</svg>
