<svg width="50" height="49" viewBox="0 0 50 49" fill="none" xmlns="http://www.w3.org/2000/svg">
<path d="M48.3086 26.9004L37.3086 21.8504V9.10039C37.3086 8.80039 37.1086 8.50039 36.8586 8.35039L25.3586 3.10039C25.1586 3.00039 24.9086 3.00039 24.7086 3.10039L13.2086 8.35039C12.9086 8.50039 12.7586 8.75039 12.7586 9.10039V21.8504L1.75859 26.9004C1.45859 27.0504 1.30859 27.3004 1.30859 27.6504V40.9504C1.30859 41.2504 1.50859 41.5504 1.75859 41.7004L13.2586 46.9504C13.3586 47.0004 13.4586 47.0004 13.6086 47.0004C13.7586 47.0004 13.8586 47.0004 13.9586 46.9504L25.0086 41.8004L36.1586 46.9004C36.2586 46.9504 36.3586 46.9504 36.5086 46.9504C36.6586 46.9504 36.7586 46.9504 36.8586 46.9004L48.3586 41.6504C48.6586 41.5004 48.8086 41.2504 48.8086 40.9004V27.6504C48.7586 27.3004 48.5586 27.0504 48.3086 26.9004ZM12.7586 44.9004L2.85859 40.4004V28.9004L12.7586 33.4004V44.9004ZM13.5586 32.0004L3.95859 27.6504L13.5086 23.3004L23.0586 27.6504L13.5586 32.0004ZM24.2086 40.4004L14.3086 44.9004V33.4004L24.2086 28.9004V40.4004ZM24.2086 26.4004L14.3086 21.9004V10.4004L24.2086 14.9004V26.4004ZM15.4586 9.10039L25.0086 4.70039L34.5586 9.05039L25.0086 13.4504L15.4586 9.10039ZM35.7086 10.3504V21.8504L25.8086 26.3504V14.8504L35.7086 10.3504ZM35.7086 44.9004L25.8086 40.4004V28.9004L35.7086 33.4004V44.9004ZM36.4586 32.0004L26.9086 27.6504L36.4586 23.3004L46.0086 27.6504L36.4586 32.0004ZM47.1586 40.4004L37.2586 44.9004V33.4004L47.1586 28.9004V40.4004Z" fill="white"/>
</svg>
