<svg width="56" height="55" viewBox="0 0 56 55" fill="none" xmlns="http://www.w3.org/2000/svg">
<path d="M3.8413 22.9361C3.85913 23.2331 3.99422 23.5109 4.21686 23.7084C4.43951 23.9058 4.73146 24.0067 5.0285 23.9889C5.32555 23.9711 5.60334 23.836 5.80078 23.6133C5.99822 23.3907 6.09913 23.0987 6.0813 22.8017C5.96605 21.0058 6.22677 19.2057 6.84679 17.5163C7.46681 15.8269 8.43249 14.2855 9.6821 12.9905C10.8189 11.8182 12.1805 10.8872 13.6854 10.2531C15.1902 9.61902 16.8075 9.29489 18.4405 9.30011C20.9325 9.30011 23.9397 10.9409 27.1261 14.0433C27.3607 14.2738 27.6764 14.403 28.0053 14.403C28.3342 14.403 28.6499 14.2738 28.8845 14.0433C31.4577 11.4132 34.9609 9.89888 38.6397 9.82651H38.7237C40.1348 9.81496 41.5337 10.0894 42.8359 10.6331C44.1381 11.1769 45.3167 11.9788 46.3005 12.9905C48.6179 15.4135 49.9112 18.637 49.9112 21.9897C49.9112 25.3424 48.6179 28.566 46.3005 30.9889L28.3021 48.3489C28.2088 48.4409 28.0831 48.4925 27.9521 48.4925C27.8211 48.4925 27.6954 48.4409 27.6021 48.3489L15.2821 36.4489C15.1762 36.3467 15.0512 36.2663 14.9143 36.2124C14.7773 36.1585 14.6311 36.1321 14.4839 36.1347C14.1867 36.1399 13.9037 36.263 13.6973 36.4769C13.4909 36.6908 13.3778 36.9779 13.3831 37.2751C13.3883 37.5723 13.5114 37.8553 13.7253 38.0617L26.0453 49.9617C26.5556 50.4587 27.2398 50.7369 27.9521 50.7369C28.6644 50.7369 29.3486 50.4587 29.8589 49.9617L47.9245 32.5737C50.6584 29.7318 52.1856 25.9416 52.1856 21.9981C52.1856 18.0547 50.6584 14.2644 47.9245 11.4225C46.7359 10.1968 45.3113 9.22454 43.7368 8.5643C42.1622 7.90406 40.4702 7.56954 38.7629 7.58091C34.779 7.60051 30.944 9.09702 27.9997 11.7809C24.5893 8.63931 21.3749 7.06011 18.4405 7.06011C16.5083 7.05514 14.595 7.43991 12.8149 8.19139C11.0348 8.94286 9.4246 10.0456 8.0805 11.4337C6.61283 12.9507 5.47776 14.7573 4.74782 16.7378C4.01788 18.7184 3.70914 20.8295 3.8413 22.9361Z" fill="white"/>
<path d="M11.3961 31.9186C11.5896 31.9154 11.7791 31.8622 11.9459 31.7641C12.1128 31.6659 12.2513 31.5262 12.3481 31.3586L14.1737 28.3962L16.6545 32.3498C16.7648 32.5259 16.922 32.6678 17.1084 32.7597C17.2949 32.8516 17.5032 32.8898 17.7101 32.87C17.917 32.8503 18.1143 32.7733 18.2799 32.6478C18.4456 32.5223 18.5731 32.3532 18.6481 32.1594L21.9073 23.7594L24.9145 35.6706C24.9699 35.8913 25.0912 36.0899 25.2622 36.24C25.4333 36.39 25.646 36.4844 25.8721 36.5106H26.0009C26.205 36.5105 26.4053 36.4546 26.58 36.349C26.7547 36.2434 26.8972 36.0921 26.9921 35.9114L30.7273 28.7546L32.1553 31.3026C32.254 31.4735 32.396 31.6153 32.5672 31.7136C32.7383 31.812 32.9323 31.8633 33.1297 31.8626H38.3321C38.6291 31.8626 38.914 31.7446 39.124 31.5345C39.3341 31.3245 39.4521 31.0396 39.4521 30.7426C39.4521 30.4455 39.3341 30.1606 39.124 29.9506C38.914 29.7406 38.6291 29.6226 38.3321 29.6226H33.7961L31.6737 25.837C31.575 25.666 31.4329 25.5242 31.2618 25.4259C31.0907 25.3276 30.8966 25.2762 30.6993 25.277C30.4851 25.2764 30.2752 25.3374 30.0945 25.4525C29.9139 25.5676 29.7701 25.7322 29.6801 25.9266L26.3201 32.3162L23.2233 19.8506C23.1643 19.6211 23.0341 19.4162 22.8513 19.2654C22.6686 19.1146 22.4427 19.0256 22.2062 19.0113C21.9697 18.997 21.7347 19.0581 21.5351 19.1857C21.3355 19.3134 21.1815 19.5011 21.0953 19.7218L17.3601 29.2978L15.1201 25.7082C15.0197 25.5476 14.8802 25.415 14.7147 25.323C14.5492 25.2309 14.3631 25.1823 14.1737 25.1818C13.9801 25.1849 13.7907 25.2381 13.6239 25.3363C13.457 25.4344 13.3184 25.5741 13.2217 25.7418L10.7745 29.7066H6.80408C6.50704 29.7066 6.22216 29.8246 6.01212 30.0346C5.80208 30.2446 5.68408 30.5295 5.68408 30.8266C5.68408 31.1236 5.80208 31.4085 6.01212 31.6185C6.22216 31.8286 6.50704 31.9466 6.80408 31.9466L11.3961 31.9186Z" fill="white"/>
</svg>
