<svg width="56" height="51" viewBox="0 0 56 51" fill="none" xmlns="http://www.w3.org/2000/svg">
<path d="M8.63431 29.5994C8.78147 29.5994 8.92465 29.5576 9.04595 29.4781L22.7079 20.539L30.6823 20.4594C31.2908 20.4534 31.8735 20.2248 32.325 19.8171L40.0489 12.8349C40.5242 13.8173 41.5841 14.3721 42.6619 14.209C43.7398 14.044 44.5849 13.1968 44.7461 12.119L45.4759 7.26469C45.5853 6.5428 45.3685 5.80701 44.8852 5.25816C44.404 4.70931 43.704 4.40106 42.9722 4.415L38.0662 4.51046C36.9685 4.53233 36.018 5.27012 35.7236 6.32608C35.4293 7.38204 35.8628 8.50764 36.7895 9.09228L29.6959 15.5058L21.642 15.5853C20.9241 15.5913 20.246 15.9075 19.7807 16.4524C15.8889 20.364 12.5562 23.7227 8.09757 28.3244C7.88677 28.5392 7.82512 28.8613 7.94245 29.1397C8.05978 29.4182 8.33202 29.5994 8.63431 29.5994ZM20.7273 17.3654L20.7571 17.3336C20.9758 17.0632 21.3059 16.9041 21.6559 16.9001L29.9226 16.8186C30.1055 16.8166 30.2825 16.7489 30.4197 16.6257L39.7463 8.19409L38.0897 8.16028H38.0877C37.4534 8.14636 36.9463 7.6293 36.9463 6.99294C36.9463 6.35856 37.4534 5.83954 38.0877 5.82559L42.9957 5.72815C43.3397 5.72019 43.6698 5.86536 43.8965 6.12388C44.1232 6.3824 44.2266 6.72644 44.1749 7.0685L43.4451 11.9228V11.9208C43.3477 12.5433 42.7729 12.9768 42.1465 12.9012C41.5201 12.8236 41.0667 12.2668 41.1204 11.6384L41.2835 9.95005L31.4437 18.8454V18.8434C31.231 19.0363 30.9545 19.1437 30.6682 19.1457L22.5309 19.2272C22.3877 19.2292 22.2465 19.271 22.1272 19.3505L12.6118 25.5767C15.4018 22.723 17.8539 20.253 20.7273 17.3654ZM9.89889 32.123C9.72389 32.123 9.55684 32.1906 9.43355 32.3139C9.31025 32.4372 9.24065 32.6042 9.24065 32.7792V43.3169C9.24065 43.4899 9.31025 43.6569 9.43355 43.7802C9.55685 43.9035 9.72389 43.9731 9.89889 43.9731H15.4851C15.6582 43.9731 15.8252 43.9035 15.9485 43.7802C16.0718 43.6569 16.1414 43.4899 16.1414 43.3169V32.7792C16.1414 32.4173 15.8471 32.1229 15.4851 32.1229L9.89889 32.123ZM14.8287 42.6586H10.5571V33.4374H14.8287V42.6586ZM19.7785 26.7673C19.6035 26.7673 19.4364 26.8369 19.3131 26.9602C19.1898 27.0835 19.1202 27.2506 19.1202 27.4256V43.3168C19.1202 43.4898 19.1898 43.6569 19.3131 43.7802C19.4364 43.9035 19.6035 43.9731 19.7785 43.9731H25.3647C25.5397 43.9731 25.7068 43.9035 25.8301 43.7802C25.9534 43.6569 26.023 43.4898 26.021 43.3168V27.4256C26.021 27.0616 25.7286 26.7673 25.3647 26.7673L19.7785 26.7673ZM24.7083 42.6586H20.4347V28.0818H24.7063L24.7083 42.6586ZM29.658 23.3391C29.485 23.3391 29.318 23.4087 29.1947 23.53C29.0714 23.6533 29.0018 23.8223 29.0018 23.9953V43.3169C29.0018 43.4899 29.0714 43.6569 29.1947 43.7802C29.318 43.9035 29.485 43.9731 29.658 43.9731H35.2402C35.4152 43.9731 35.5823 43.9035 35.7056 43.7802C35.8289 43.6569 35.8985 43.4899 35.8985 43.3169V23.9953C35.8985 23.8223 35.8289 23.6533 35.7056 23.53C35.5823 23.4087 35.4152 23.3391 35.2402 23.3391H29.658ZM34.5879 42.6586H30.3123V24.6536H34.5819L34.5879 42.6586ZM39.5316 17.4148C39.1697 17.4148 38.8753 17.7091 38.8753 18.0711V43.3169C38.8753 43.4899 38.9449 43.657 39.0682 43.7803C39.1915 43.9035 39.3586 43.9731 39.5316 43.9731H45.1178C45.2928 43.9731 45.4599 43.9035 45.5832 43.7803C45.7065 43.657 45.7761 43.4899 45.7761 43.3169V18.0711C45.7761 17.7091 45.4818 17.4148 45.1178 17.4148H39.5316ZM44.4614 42.6606H40.1899L40.1918 18.7293H44.4634L44.4614 42.6606ZM51.6422 45.8583L51.6441 45.8563C51.6441 46.2183 51.3498 46.5126 50.9859 46.5126H4.036C3.85901 46.5186 3.686 46.451 3.55872 46.3277C3.43145 46.2044 3.35986 46.0334 3.35986 45.8564C3.35986 45.6794 3.43145 45.5084 3.55872 45.3851C3.686 45.2618 3.85901 45.1941 4.036 45.1981H50.9859C51.3478 45.2001 51.6402 45.4944 51.6402 45.8564L51.6422 45.8583Z" fill="white"/>
</svg>
