<svg width="56" height="52" viewBox="0 0 56 52" fill="none" xmlns="http://www.w3.org/2000/svg">
<path d="M27.6699 4.61862C27.2602 4.61862 26.9261 4.95271 26.9242 5.36434V31.5367H20.3039V15.8684C20.302 15.4568 19.9679 15.1247 19.5562 15.1227H7.08957H7.09156C6.67793 15.1227 6.33984 15.4568 6.33984 15.8684V45.7673H4.82448C4.41084 45.7653 4.07474 46.0994 4.07275 46.513C4.07275 46.7119 4.15031 46.9028 4.29151 47.044C4.4327 47.1852 4.6256 47.2648 4.82447 47.2628H51.2413C51.4402 47.2628 51.6311 47.1832 51.7703 47.042C51.9095 46.9008 51.9871 46.7099 51.9871 46.513C51.9851 46.1014 51.653 45.7673 51.2414 45.7673H49.7201V19.6046C49.7201 19.193 49.386 18.8609 48.9744 18.8589H41.7575V5.36189V5.36388C41.7555 4.95223 41.4234 4.61816 41.0118 4.61816L27.6699 4.61862ZM28.4216 6.11606H40.26V18.8612H36.5074V18.8592C36.0938 18.8572 35.7577 19.1913 35.7557 19.6049V45.7655H32.8543V32.2807V32.2827C32.8523 31.8711 32.5202 31.539 32.1086 31.537H28.4217L28.4216 6.11606ZM32.2299 8.45869C32.031 8.45869 31.8401 8.53624 31.6989 8.67545C31.5597 8.81664 31.4801 9.00556 31.4781 9.20445V11.0221C31.4781 11.2209 31.5577 11.4118 31.6989 11.551C31.8401 11.6922 32.031 11.7698 32.2299 11.7698C32.6415 11.7678 32.9756 11.4337 32.9756 11.022V9.20444C32.9736 8.7928 32.6415 8.46067 32.2299 8.45869ZM36.4517 8.45869C36.2529 8.45869 36.062 8.53624 35.9208 8.67545C35.7796 8.81664 35.7 9.00556 35.7 9.20445V11.0221C35.7 11.2209 35.7796 11.4118 35.9208 11.551C36.062 11.6922 36.2529 11.7698 36.4517 11.7698C36.8634 11.7678 37.1975 11.4337 37.1995 11.022V9.20444C37.1975 8.7928 36.8634 8.46067 36.4517 8.45869ZM32.2299 13.7028C32.031 13.7008 31.8381 13.7804 31.6969 13.9216C31.5557 14.0628 31.4781 14.2537 31.4781 14.4546V16.2741V16.2722C31.4801 16.471 31.5597 16.6619 31.6989 16.8012C31.8401 16.9404 32.031 17.0199 32.2299 17.0179C32.6415 17.0179 32.9736 16.6838 32.9756 16.2722V14.4526V14.4546C32.9756 14.2557 32.898 14.0648 32.7588 13.9236C32.6196 13.7824 32.4287 13.7028 32.2299 13.7028ZM36.4517 13.7028C36.2509 13.7008 36.06 13.7804 35.9188 13.9216C35.7776 14.0628 35.698 14.2537 35.7 14.4546V16.2741V16.2722C35.7 16.471 35.7796 16.6619 35.9208 16.8012C36.062 16.9404 36.2529 17.0199 36.4517 17.0179C36.8634 17.0179 37.1975 16.6838 37.1995 16.2722V14.4526V14.4546C37.1995 14.2557 37.1219 14.0648 36.9807 13.9236C36.8415 13.7824 36.6506 13.7028 36.4517 13.7028ZM7.83727 16.6242H18.8067V31.541H14.3024V31.537C13.8887 31.5351 13.5526 31.8692 13.5506 32.2828V45.7676H7.83712L7.83727 16.6242ZM32.2299 18.9528C32.031 18.9528 31.8381 19.0304 31.6969 19.1716C31.5557 19.3128 31.4782 19.5057 31.4782 19.7045V21.5182C31.4782 21.717 31.5557 21.9099 31.6969 22.0492C31.8381 22.1904 32.031 22.2699 32.2299 22.2699C32.4288 22.2679 32.6197 22.1884 32.7589 22.0472C32.8981 21.908 32.9757 21.7171 32.9757 21.5182V19.7045C32.9757 19.5057 32.8981 19.3148 32.7589 19.1736C32.6197 19.0344 32.4288 18.9548 32.2299 18.9528ZM11.2121 19.0364C11.0132 19.0364 10.8223 19.1139 10.6811 19.2551C10.5399 19.3963 10.4604 19.5892 10.4604 19.7881V21.6057C10.4624 21.8045 10.5419 21.9935 10.6831 22.1347C10.8243 22.2739 11.0132 22.3514 11.2121 22.3514C11.6237 22.3514 11.9578 22.0173 11.9598 21.6057V19.7881C11.9598 19.5893 11.8823 19.3983 11.7431 19.2571C11.6019 19.1159 11.411 19.0364 11.2121 19.0364ZM15.436 19.0364C15.2351 19.0364 15.0442 19.1139 14.903 19.2551C14.7618 19.3963 14.6823 19.5892 14.6842 19.7881V21.6057C14.6842 21.8045 14.7638 21.9935 14.905 22.1347C15.0462 22.2739 15.2371 22.3514 15.436 22.3514C15.8456 22.3494 16.1797 22.0173 16.1817 21.6057V19.7881C16.1817 19.5893 16.1041 19.3983 15.9649 19.2571C15.8237 19.1179 15.6348 19.0364 15.436 19.0364ZM37.2551 20.3608H48.2245V45.7716H37.2551V20.3608ZM39.7369 23.7375L39.7349 23.7335C39.5361 23.7335 39.3451 23.8131 39.2059 23.9543C39.0647 24.0955 38.9872 24.2864 38.9872 24.4852C38.9892 24.8969 39.3233 25.231 39.7349 25.231H45.7427C45.9416 25.233 46.1325 25.1534 46.2737 25.0142C46.4129 24.873 46.4924 24.6841 46.4944 24.4852C46.4944 24.2844 46.4149 24.0934 46.2737 23.9522C46.1325 23.811 45.9416 23.7315 45.7427 23.7335L39.7369 23.7375ZM32.2299 24.2048C32.031 24.2028 31.8401 24.2804 31.6989 24.4216C31.5597 24.5608 31.4802 24.7517 31.4782 24.9506V26.7682V26.7662C31.4782 26.9671 31.5557 27.158 31.6969 27.2992C31.8381 27.4404 32.031 27.5199 32.2299 27.5179C32.4288 27.5179 32.6197 27.4384 32.7589 27.2972C32.8981 27.156 32.9757 26.9651 32.9757 26.7662V24.9486V24.9506C32.9737 24.5389 32.6415 24.2048 32.2299 24.2048ZM11.2121 24.2864C11.0132 24.2844 10.8223 24.3639 10.6811 24.5051C10.5399 24.6463 10.4604 24.8372 10.4604 25.0381V26.8517V26.8497C10.4604 27.0506 10.5399 27.2415 10.6811 27.3827C10.8223 27.5239 11.0132 27.6034 11.2121 27.6015C11.4109 27.6015 11.6019 27.5219 11.7431 27.3807C11.8823 27.2395 11.9598 27.0486 11.9598 26.8497V25.0361V25.0381C11.9598 24.8392 11.8823 24.6483 11.7431 24.5071C11.6019 24.3659 11.411 24.2864 11.2121 24.2864ZM15.436 24.2864C15.2351 24.2844 15.0442 24.3639 14.903 24.5051C14.7618 24.6463 14.6823 24.8372 14.6842 25.0381V26.8517V26.8497C14.6823 27.0506 14.7618 27.2415 14.903 27.3827C15.0442 27.5239 15.2351 27.6034 15.436 27.6015C15.8496 27.5995 16.1837 27.2634 16.1817 26.8497V25.0361V25.0381C16.1817 24.8392 16.1041 24.6483 15.9649 24.5071C15.8237 24.3659 15.6348 24.2864 15.436 24.2864ZM39.7349 29.4566V29.4526C39.3232 29.4546 38.9892 29.7867 38.9871 30.1983C38.9871 30.3972 39.0647 30.5881 39.2059 30.7293C39.3451 30.8705 39.536 30.9501 39.7349 30.9501H45.7427C45.9415 30.9501 46.1324 30.8725 46.2736 30.7313C46.4148 30.5901 46.4944 30.3972 46.4944 30.1983C46.4924 29.7847 46.1563 29.4506 45.7426 29.4526L39.7349 29.4566ZM11.212 29.5361C11.0132 29.5361 10.8243 29.6137 10.683 29.7529C10.5419 29.8941 10.4623 30.083 10.4603 30.2819V32.0995C10.4603 32.2984 10.5399 32.4913 10.6811 32.6325C10.8222 32.7737 11.0132 32.8512 11.212 32.8512C11.4109 32.8512 11.6018 32.7717 11.743 32.6305C11.8822 32.4893 11.9598 32.2984 11.9598 32.0995V30.2819C11.9578 29.8703 11.6237 29.5361 11.212 29.5361ZM15.0481 33.0381H31.3569V45.7715L28.0736 45.7656V41.7207V41.7227C28.0736 41.309 27.7395 40.9749 27.3279 40.9749H19.0832C18.8843 40.9749 18.6934 41.0525 18.5522 41.1917C18.411 41.3329 18.3315 41.5238 18.3315 41.7227V45.7675H15.0482L15.0481 33.0381ZM11.212 34.7861C11.0132 34.7842 10.8223 34.8637 10.6811 35.0029C10.5399 35.1441 10.4623 35.333 10.4603 35.5319V37.3495C10.4623 37.5484 10.5419 37.7393 10.683 37.8785C10.8242 38.0177 11.0132 38.0973 11.212 38.0953C11.6237 38.0953 11.9578 37.7612 11.9598 37.3496V35.5319C11.9598 35.1203 11.6257 34.7861 11.212 34.7861ZM18.7512 35.0665C18.5523 35.0685 18.3634 35.1481 18.2222 35.2873C18.083 35.4285 18.0034 35.6194 18.0054 35.8183V38.2226C18.0054 38.6342 18.3395 38.9683 18.7511 38.9683C18.95 38.9703 19.1409 38.8907 19.2821 38.7515C19.4233 38.6123 19.5028 38.4214 19.5028 38.2225V35.8182C19.5048 35.6194 19.4253 35.4285 19.2841 35.2872C19.1429 35.1461 18.952 35.0665 18.7512 35.0665ZM23.2057 35.0665C23.0068 35.0665 22.8139 35.1461 22.6727 35.2873C22.5316 35.4285 22.454 35.6194 22.454 35.8183V38.2226C22.454 38.4214 22.5335 38.6123 22.6747 38.7515C22.8159 38.8908 23.0068 38.9703 23.2057 38.9683C23.6174 38.9663 23.9494 38.6342 23.9514 38.2226V35.8183C23.9514 35.6214 23.8739 35.4305 23.7347 35.2893C23.5935 35.1481 23.4046 35.0685 23.2057 35.0665ZM27.6543 35.0665C27.4554 35.0685 27.2645 35.1481 27.1253 35.2893C26.9861 35.4305 26.9066 35.6214 26.9085 35.8183V38.2226C26.9085 38.6342 27.2426 38.9663 27.6543 38.9683C27.8531 38.9703 28.042 38.8907 28.1833 38.7515C28.3244 38.6123 28.404 38.4214 28.406 38.2225V35.8182C28.406 35.6194 28.3264 35.4285 28.1852 35.2872C28.0441 35.1461 27.8532 35.0665 27.6543 35.0665ZM39.7371 35.1719L39.7351 35.166C39.5362 35.168 39.3453 35.2475 39.2061 35.3867C39.0649 35.5279 38.9873 35.7188 38.9873 35.9177C38.9893 36.3293 39.3234 36.6634 39.7351 36.6634H45.7429C46.1565 36.6654 46.4926 36.3313 46.4946 35.9177C46.4946 35.7188 46.415 35.5279 46.2738 35.3867C46.1327 35.2455 45.9417 35.166 45.7429 35.166L39.7371 35.1719ZM11.2122 40.0302C11.0134 40.0302 10.8225 40.1077 10.6813 40.2489C10.5401 40.3901 10.4605 40.581 10.4605 40.7819V42.6015C10.4625 42.7984 10.5421 42.9893 10.6832 43.1285C10.8244 43.2697 11.0134 43.3473 11.2122 43.3473C11.6239 43.3453 11.958 43.0132 11.96 42.6015V40.782C11.96 40.5831 11.8824 40.3922 11.7432 40.251C11.602 40.1098 11.4111 40.0302 11.2122 40.0302ZM39.7371 40.8933L39.7351 40.8873C39.3234 40.8873 38.9894 41.2214 38.9873 41.633C38.9873 41.8319 39.0649 42.0228 39.2061 42.164C39.3453 42.3052 39.5362 42.3827 39.7351 42.3847H45.7429C45.9417 42.3847 46.1326 42.3052 46.2738 42.164C46.415 42.0228 46.4946 41.8319 46.4946 41.633C46.4926 41.2194 46.1565 40.8853 45.7428 40.8873L39.7371 40.8933ZM19.8306 42.4802H22.4556V45.7734H19.8306V42.4802ZM23.9531 42.4802H26.578V45.7734H23.9531V42.4802Z" fill="white"/>
</svg>
