<svg width="56" height="59" viewBox="0 0 56 59" fill="none" xmlns="http://www.w3.org/2000/svg">
<path d="M38.5114 14.5892C34.4465 13.4705 32.7962 16.4499 29.1743 16.472C25.187 16.472 23.6031 11.9641 19.3056 12.8834C17.179 13.404 15.0524 15.1872 14.8862 17.1255L16.5808 38.1808C16.6251 38.7568 17.1125 39.1998 17.6884 39.1998H39.1315C39.7074 39.1998 40.1948 38.7568 40.2391 38.1808L41.9337 17.1255C41.9669 16.76 41.8118 16.4056 41.5349 16.1841C40.6045 15.4199 39.5856 14.8882 38.5112 14.6002L38.5114 14.5892ZM38.1127 36.9736H18.7076L17.1127 17.1474C17.4117 16.35 18.5525 15.3199 19.8042 15.043C21.0779 14.755 21.975 15.342 23.4703 16.4053C26.4609 18.8974 30.2266 19.429 33.8374 17.4465C35.7092 16.3943 37.858 16.1949 39.6855 17.5462L38.1127 36.9736Z" fill="white"/>
<path d="M30.5026 26.0728L28.4204 23.9905C27.9884 23.5585 27.2906 23.5585 26.8587 23.9905L24.6656 26.1836C23.1482 27.7785 23.1814 30.3371 24.7431 31.8987C28.6086 35.5538 34.1795 30.1266 30.6023 26.1836L30.5026 26.0839L30.5026 26.0728ZM28.9853 30.3038C27.1799 31.9652 24.5992 29.4842 26.3491 27.6235L27.645 26.3276L29.0184 27.701C29.7051 28.3877 29.683 29.6393 28.9853 30.3038Z" fill="white"/>
<path d="M50.2848 20.2141H47.7263C47.1171 20.2141 46.6187 20.7125 46.6187 21.3217V22.6065H44.6693L45.6108 10.9436H48.4683C49.3765 10.9436 50.1186 10.2015 50.1186 9.29333V7.39932C50.1186 6.49113 49.3765 5.74902 48.4683 5.74902H7.88604C6.97784 5.74902 6.23574 6.49113 6.23574 7.39932V9.29333C6.23574 10.2015 6.97784 10.9436 7.88604 10.9436H10.7436L11.685 22.6065H9.73567V21.3217C9.73567 20.7125 9.23725 20.2141 8.62807 20.2141H6.06951C5.46033 20.2141 4.96191 20.7125 4.96191 21.3217V29.0086C4.96191 29.6178 5.46033 30.1162 6.06951 30.1162H8.62807C9.23725 30.1162 9.73567 29.6178 9.73567 29.0086V27.7791H12.106L13.1139 40.1842C13.2468 41.757 14.587 42.9975 16.1708 42.9975H23.9683L24.2452 46.3536H21.5316C20.5791 46.3203 20.0474 47.5941 20.7452 48.2476L27.4018 54.9042C27.8116 55.3362 28.5537 55.3362 28.9635 54.9042L35.6202 48.2476C36.3179 47.5941 35.7974 46.3203 34.8337 46.3536H32.1202L32.3971 42.9975H40.1945C41.7784 42.9975 43.1186 41.757 43.2515 40.1842L44.2594 27.7791H46.6297V29.0086C46.6297 29.6178 47.1281 30.1162 47.7373 30.1162H50.2959C50.905 30.1162 51.4035 29.6178 51.4035 29.0086V21.3217C51.4035 20.7125 50.905 20.2141 50.2959 20.2141H50.2848ZM8.45072 7.96428H47.8924V8.72851H8.45072V7.96428ZM7.52034 27.901H7.17698V22.4294H7.52034V27.901ZM43.2292 25.5639C42.6532 25.5639 42.177 26.007 42.1216 26.5829L41.0362 40.0073C41.003 40.4393 40.6264 40.7827 40.1944 40.7827H31.3776C30.8017 40.7827 30.3254 41.2257 30.27 41.8017L29.8048 47.3729C29.7384 47.9932 30.2811 48.5802 30.9124 48.5691H32.1529L28.1656 52.5564L24.1782 48.5691H25.4188C26.0501 48.5802 26.5928 47.9932 26.5263 47.3729L26.0612 41.8017C26.0169 41.2257 25.5295 40.7827 24.9536 40.7827H16.1368C15.6937 40.7827 15.3282 40.4393 15.295 40.0073L14.2096 26.5829C14.1653 26.007 13.6779 25.5639 13.102 25.5639H9.71277V24.8218H12.8694C13.5007 24.8329 14.0324 24.2459 13.977 23.6256L12.9469 10.9434H43.3727L42.3426 23.6256C42.2762 24.2459 42.8189 24.8329 43.4502 24.8218H46.6068V25.5639H43.2176H43.2292ZM49.177 27.901H48.8336V22.4294H49.177V27.901Z" fill="white"/>
</svg>
