<svg width="51" height="44" viewBox="0 0 51 44" fill="none" xmlns="http://www.w3.org/2000/svg">
<g clip-path="url(#clip0_826_18923)">
<path d="M46.4796 20.7885L39.4571 4.98793C39.2816 4.63681 39.0182 4.46124 38.6671 4.46124H29.5379C29.1868 2.61787 27.5189 1.21338 25.5 1.21338C23.4811 1.21338 21.8132 2.61787 21.4621 4.54905H12.3329C11.9817 4.54905 11.6306 4.72461 11.5429 5.07574L4.5204 20.8763C4.43262 20.9641 4.43262 21.0519 4.43262 21.2274C4.43262 25.6165 7.94385 29.1274 12.3326 29.1274C16.7214 29.1274 20.2326 25.6162 20.2326 21.2274C20.2326 21.1396 20.2326 20.9641 20.1448 20.8763L13.6493 6.30439H21.3741C21.7252 7.88445 22.9541 9.11338 24.5342 9.4645V36.3252H20.1451C19.794 36.3252 19.4429 36.5885 19.3551 36.9397L17.5995 42.2065C17.5117 42.4699 17.5117 42.7332 17.6873 42.9965C17.8628 43.2598 18.1262 43.3476 18.3895 43.3476H32.4345C32.6978 43.3476 32.9612 43.1721 33.1367 42.9965C33.3123 42.7332 33.3123 42.4698 33.2245 42.2065L31.4689 36.9397C31.4689 36.5885 31.1178 36.3252 30.7666 36.3252H26.3776V9.4645C27.9576 9.11338 29.1866 7.88445 29.5377 6.30439H37.2624L30.7669 20.8763V21.2274C30.7669 25.6165 34.2782 29.1274 38.6669 29.1274C43.0557 29.1274 46.5669 25.6162 46.5669 21.2274C46.5669 21.0519 46.5674 20.9641 46.4796 20.7885ZM12.333 7.53343L18.0386 20.2615H6.62736L12.333 7.53343ZM12.333 27.3716C9.26062 27.3716 6.715 25.0893 6.27624 22.1048H18.4779C17.9512 25.0015 15.4056 27.3716 12.333 27.3716ZM31.2937 41.5919H19.7066L20.8477 38.0806H30.1522L31.2937 41.5919ZM25.5004 7.79636C24.1837 7.79636 23.0425 6.74299 23.0425 5.33849C23.0425 3.934 24.1837 2.96838 25.5004 2.96838C26.8171 2.96838 27.9583 4.02175 27.9583 5.42624C27.9583 6.83074 26.8171 7.79636 25.5004 7.79636ZM44.3734 20.3492H32.9622L38.6678 7.53343L44.3734 20.3492ZM38.6678 27.3716C35.5955 27.3716 33.0498 25.0893 32.6111 22.1048H44.8128C44.2861 25.0015 41.7404 27.3716 38.6678 27.3716Z" fill="white"/>
</g>
<defs>
<clipPath id="clip0_826_18923">
<rect width="50" height="43.8202" fill="white" transform="translate(0.5 0.0898438)"/>
</clipPath>
</defs>
</svg>
