<svg width="56" height="56" viewBox="0 0 56 56" fill="none" xmlns="http://www.w3.org/2000/svg">
<path d="M21.7497 12.3748C21.7497 13.104 21.4372 13.8332 20.9163 14.4582C20.4997 14.8748 20.4997 15.4998 20.9163 15.9165C21.1247 16.1248 21.4372 16.229 21.6455 16.229C21.958 16.229 22.1663 16.1248 22.3747 15.9165C23.3122 14.979 23.833 13.729 23.833 12.3748C23.833 11.0207 23.3122 9.77067 22.3747 8.93734C21.8538 8.4165 21.5413 7.68734 21.5413 6.95817C21.5413 6.229 21.8538 5.49984 22.3747 4.87484C22.7913 4.45817 22.7913 3.83317 22.3747 3.4165C21.958 2.99984 21.333 2.99984 20.9163 3.4165C19.9788 4.354 19.458 5.604 19.458 6.95817C19.458 8.31234 19.9788 9.56234 20.9163 10.3957C21.4372 10.9165 21.7497 11.6457 21.7497 12.3748Z" fill="white"/>
<path d="M27.271 14.3542C26.8543 14.7708 26.8543 15.3958 27.271 15.8125C27.4793 16.0208 27.7918 16.125 28.0002 16.125C28.3127 16.125 28.521 16.0208 28.7293 15.8125C30.7085 13.8333 30.7085 10.7083 28.7293 8.83333C27.5835 7.6875 27.6877 5.91667 28.7293 4.77083C29.146 4.35417 29.146 3.72917 28.7293 3.3125C28.3127 2.89583 27.6877 2.89583 27.271 3.3125C25.2918 5.29167 25.2918 8.41667 27.271 10.2917C28.3127 11.4375 28.3127 13.2083 27.271 14.3542Z" fill="white"/>
<path d="M34.4582 12.2708C34.4582 13 34.1457 13.7292 33.6248 14.3542C33.2082 14.7708 33.2082 15.3958 33.6248 15.8125C33.8332 16.0208 34.1457 16.125 34.354 16.125C34.6665 16.125 34.8748 16.0208 35.0832 15.8125C36.0207 14.875 36.5415 13.625 36.5415 12.2708C36.5415 10.9167 36.0207 9.66667 35.0832 8.83333C34.5623 8.3125 34.2498 7.58333 34.2498 6.85417C34.2498 6.125 34.5623 5.39583 35.0832 4.77083C35.4998 4.35417 35.4998 3.72917 35.0832 3.3125C34.6665 2.89583 34.0415 2.89583 33.6248 3.3125C32.6873 4.25 32.1665 5.5 32.1665 6.75C32.1665 8.10417 32.6873 9.35417 33.6248 10.1875C34.1457 10.8125 34.4582 11.5417 34.4582 12.2708Z" fill="white"/>
<path d="M53 24.4582C53 19.8748 37.2708 18.729 28 18.729C18.7292 18.729 3 19.979 3 24.4582C3 33.729 8.52083 42.2707 17.1667 46.3332L15.5 51.6457C15.3958 51.9582 15.5 52.2707 15.6042 52.5832C15.8125 52.8957 16.125 52.9998 16.4375 52.9998H39.5625C40.1875 52.9998 40.6042 52.5832 40.6042 51.9582C40.6042 51.7498 40.6042 51.6457 40.5 51.4373L38.8333 46.3332C47.4792 42.2707 53 33.8332 53 24.4582ZM5.08333 24.5623C5.5 23.3123 13.625 20.8123 28 20.8123C42.375 20.8123 50.6042 23.2082 50.9167 24.4582C50.6042 25.7082 42.375 28.104 28 28.104C13.625 28.2082 5.5 25.8123 5.08333 24.5623ZM17.8958 50.9165L19.25 46.6457H36.8542L38.2083 50.9165H17.8958ZM37.6875 44.5623H18.4167H18.3125C11.125 41.3332 6.22917 34.6665 5.29167 27.1665C9.97917 29.5623 20.9167 30.2915 28 30.2915C35.0833 30.2915 46.0208 29.5623 50.7083 27.1665C49.7708 34.6665 44.875 41.3332 37.6875 44.5623Z" fill="white"/>
</svg>
