<svg width="22" height="22" viewBox="0 0 22 22" fill="none" xmlns="http://www.w3.org/2000/svg">
<path d="M16.8304 20.8542H5.12461C3.73128 20.8542 2.45711 20.1483 1.72378 18.9567C0.990447 17.765 0.92628 16.3167 1.54961 15.0608L3.12628 11.8983C3.63961 10.8717 4.46461 10.23 5.39045 10.1292C6.31628 10.0283 7.26045 10.4867 7.97545 11.3758L8.17711 11.6325C8.58045 12.1275 9.04795 12.3933 9.50628 12.3475C9.96461 12.3108 10.3863 11.9808 10.6979 11.4217L12.4304 8.29585C13.1454 7.00335 14.0988 6.33418 15.1346 6.38001C16.1613 6.43501 17.0413 7.20501 17.6279 8.56168L20.4971 15.2625C21.0288 16.5 20.9004 17.9117 20.1579 19.0392C19.4246 20.185 18.1779 20.8542 16.8304 20.8542ZM5.64711 11.5042C5.61045 11.5042 5.57378 11.5042 5.53711 11.5133C5.07878 11.5592 4.65711 11.9258 4.35461 12.5217L2.77795 15.6842C2.36545 16.5 2.41128 17.4625 2.88795 18.2417C3.36461 19.0208 4.20795 19.4883 5.12461 19.4883H16.8213C17.7196 19.4883 18.5171 19.0575 19.0121 18.3058C19.5071 17.5542 19.5896 16.6558 19.2321 15.8308L16.3629 9.13001C16.0146 8.30501 15.5288 7.80085 15.0613 7.78251C14.6304 7.75501 14.0713 8.21335 13.6313 8.99251L11.8988 12.1183C11.3671 13.0717 10.5329 13.6675 9.62545 13.75C8.71795 13.8233 7.79211 13.3833 7.10461 12.5217L6.90295 12.265C6.51795 11.7608 6.07795 11.5042 5.64711 11.5042Z" fill="white"/>
<path d="M6.38965 8.02087C4.50131 8.02087 2.95215 6.48087 2.95215 4.58337C2.95215 2.68587 4.49215 1.14587 6.38965 1.14587C8.28715 1.14587 9.82715 2.68587 9.82715 4.58337C9.82715 6.48087 8.28715 8.02087 6.38965 8.02087ZM6.38965 2.52087C5.25298 2.52087 4.32715 3.44671 4.32715 4.58337C4.32715 5.72004 5.25298 6.64587 6.38965 6.64587C7.52632 6.64587 8.45215 5.72004 8.45215 4.58337C8.45215 3.44671 7.52632 2.52087 6.38965 2.52087Z" fill="white"/>
</svg>
