<svg width="99" height="86" viewBox="0 0 99 86" fill="none" xmlns="http://www.w3.org/2000/svg">
<g clip-path="url(#clip0_445_91505)">
<path fill-rule="evenodd" clip-rule="evenodd" d="M49.5528 44.9299C47.6896 45.3527 45.7436 45.2249 43.9517 44.562C40.78 43.4646 38.6106 41.3269 36.7838 38.7325C36.0162 37.6415 35.2424 35.859 33.5741 35.4467C30.8084 34.768 29.6666 36.4172 29.5397 38.6183C29.4849 40.5792 29.6983 42.5384 30.1741 44.4415C30.5005 46.0771 31.1613 47.6277 32.1151 48.9959C32.8795 49.8918 33.8536 50.5848 34.9506 51.0131C38.0715 52.5609 42.4356 53.6012 46.933 53.8422V61.2765H29.9711C21.7882 61.2765 15.1595 57.9083 15.1595 53.7471V8.32282C15.1595 4.16797 21.7882 0.799683 29.9711 0.799683H47.0218V8.23401C46.1178 8.29432 45.2178 8.40444 44.3259 8.56386C39.2957 9.55976 35.4453 11.6404 33.0539 15.1355C31.9794 16.6086 31.2174 18.2859 30.8147 20.0642C30.1847 23.1161 30.6591 26.2926 32.1532 29.0273C33.4682 31.235 35.2849 33.1018 37.4562 34.4762C39.7068 35.9593 42.1422 37.1407 44.7002 37.9904C46.064 38.4661 47.4532 38.8467 48.7345 39.3288C49.8953 39.7728 51.7856 40.4389 52.0203 41.4982C52.4961 43.6295 50.6756 44.6127 49.5528 44.9299Z" fill="black"/>
<path fill-rule="evenodd" clip-rule="evenodd" d="M82.9184 8.32304V53.7473C82.9184 57.9085 76.2833 61.2768 68.1005 61.2768H52.6482V53.6648C53.5664 53.5658 54.479 53.4197 55.3822 53.2271C60.8057 52.0727 65.5314 49.4973 67.999 45.2409C68.9413 43.6815 69.5866 41.9609 69.902 40.1663C70.4009 37.0953 69.8748 33.9455 68.405 31.2033C67.1363 29.0339 64.8781 27.3973 62.6579 26.3507C59.8796 25.0059 58.0083 24.6062 54.7415 23.6611C53.3982 23.289 52.0768 22.8422 50.7833 22.3227C49.4576 21.7645 48.2777 20.9018 48.1699 19.6268C47.8781 16.1697 52.4516 16.4551 54.7415 17.0895C57.3994 17.838 58.7568 19.3667 60.4188 20.8954C61.3068 21.7201 62.3217 22.8809 63.8505 23.2107C66.6859 23.807 68.7221 22.1831 69.2296 20.0708C69.6926 18.1298 68.9949 16.2648 68.405 14.9962C68.0293 14.1603 67.5792 13.36 67.0602 12.6048C66.0389 11.1204 64.6117 9.38871 63.1781 9.0208C61.2751 8.52602 59.721 9.49021 57.8053 9.39506C56.9968 9.31338 56.1968 9.16271 55.4139 8.94468C54.621 8.76707 53.7329 8.5958 52.8068 8.45625V0.768188H68.1322C76.2833 0.768188 82.9184 4.13647 82.9184 8.32304Z" fill="#1F2442"/>
<path fill-rule="evenodd" clip-rule="evenodd" d="M40.7114 78.9044C40.6787 77.977 40.4631 77.0651 40.0771 76.2212C39.7137 75.5054 39.2062 74.8727 38.5864 74.3626C37.1371 73.1993 35.2926 72.6444 33.442 72.8149H33.3976C32.4544 72.8247 31.5227 73.0231 30.6573 73.3984C29.5375 73.8669 28.5786 74.6516 27.898 75.6566C27.6771 76.0091 27.4881 76.3806 27.3334 76.7667C27.2954 76.8682 27.2256 76.938 27.1875 77.0395C27.1495 77.141 27.1431 77.2615 27.1051 77.3757C27.0299 77.5834 26.9664 77.7952 26.9148 78.01C26.7171 79.1113 26.8142 80.2453 27.1963 81.297C27.5784 82.3487 28.2319 83.2805 29.0905 83.9981C29.7234 84.5253 30.4451 84.9356 31.2219 85.2096C32.635 85.6685 34.1429 85.7537 35.5987 85.457C36.6182 85.2635 37.5746 84.8228 38.3842 84.1737C39.1937 83.5245 39.8316 82.6866 40.242 81.7335C40.6092 80.8378 40.7696 79.8707 40.7114 78.9044ZM35.3323 82.7104C35.0542 82.8668 34.7349 82.9343 34.4173 82.9037C34.0998 82.873 33.7992 82.7458 33.5562 82.5391C32.6364 81.8223 32.0528 80.3507 31.7166 78.9425C31.5803 78.4308 31.5037 77.905 31.4883 77.3757C31.4883 76.532 31.8498 75.6059 32.7569 75.4727C33.0104 75.4381 33.2685 75.4618 33.5114 75.5421C33.7544 75.6223 33.9758 75.757 34.1588 75.9357C34.5142 76.2926 34.8041 76.7091 35.0151 77.1663C35.2646 77.6374 35.4767 78.1274 35.6495 78.6316C35.9476 79.7417 36.3409 81.9999 35.3323 82.7104Z" fill="black"/>
<path fill-rule="evenodd" clip-rule="evenodd" d="M6.15361 72.8549C6.88543 72.823 7.61805 72.8957 8.32936 73.0706C8.53676 73.1297 8.74906 73.17 8.96369 73.1911C9.50287 73.2228 9.93421 72.95 10.4734 73.0896C10.9304 73.3027 11.3096 73.653 11.5581 74.0918C11.7046 74.3043 11.8319 74.5293 11.9387 74.7642C12.17 75.1995 12.2503 75.6993 12.167 76.1851C12.1281 76.3433 12.0577 76.492 11.96 76.6224C11.8622 76.7527 11.7392 76.8621 11.5983 76.9438C11.4574 77.0255 11.3014 77.0779 11.1397 77.098C10.978 77.1181 10.814 77.1053 10.6573 77.0605C10.2854 76.9419 9.95383 76.7223 9.69951 76.4262C9.27103 75.9379 8.72207 75.5705 8.10735 75.3605C7.47302 75.1829 6.20436 75.1004 6.26779 76.0709C6.26779 76.4262 6.62936 76.6672 6.99727 76.8258C7.36033 76.9703 7.73089 77.0953 8.10735 77.2C8.87027 77.3785 9.61388 77.6314 10.3275 77.9549C10.9839 78.2432 11.5432 78.7144 11.9387 79.3124C12.2651 79.9204 12.4269 80.6032 12.408 81.2931C12.3891 81.983 12.1901 82.6559 11.8309 83.2452C11.4296 83.8432 10.9082 84.3511 10.2999 84.7366C9.6916 85.1221 9.00972 85.3768 8.29765 85.4844C6.37433 85.8558 4.38356 85.6346 2.58869 84.85C2.28125 84.7313 2.0086 84.5372 1.79578 84.2855C1.52985 83.9039 1.34425 83.4723 1.25026 83.0168C1.12211 82.4833 1.06453 81.9352 1.07899 81.3866C1.11705 80.7523 1.43421 80.3146 2.21444 80.5049C2.6775 80.6191 2.89317 81.1392 3.10884 81.4247C3.58604 82.1719 4.29108 82.7457 5.11966 83.0612C5.62138 83.2447 6.16527 83.2799 6.68645 83.1627C6.796 83.1466 6.90119 83.1087 6.99575 83.0511C7.0903 82.9935 7.17229 82.9174 7.23682 82.8274C7.30135 82.7374 7.34709 82.6354 7.37132 82.5273C7.39555 82.4193 7.39778 82.3075 7.37787 82.1986C7.31444 81.9004 6.7816 81.7165 6.45809 81.5959C6.13459 81.4754 5.70959 81.3486 5.32899 81.2153C4.61179 80.979 3.92919 80.6484 3.29914 80.2321C2.68963 79.8508 2.1806 79.3287 1.81481 78.7098C1.47698 78.1052 1.32119 77.4159 1.3662 76.7249C1.41122 76.0338 1.65514 75.3705 2.06854 74.815C2.44825 74.3128 2.92435 73.8914 3.46896 73.5755C4.01356 73.2597 4.61573 73.0556 5.24018 72.9754C5.54453 72.9224 5.8516 72.8864 6.15996 72.8676L6.15361 72.8549Z" fill="black"/>
<path fill-rule="evenodd" clip-rule="evenodd" d="M85.0653 73.8625C85.1267 73.7748 85.1698 73.6755 85.1921 73.5707C85.5029 72.9364 86.7526 72.9872 87.7294 73.0442C88.8268 73.114 90.0003 73.0887 91.1358 73.0887C92.5503 73.0887 93.7809 73.0379 95.0115 72.9174C95.2673 72.8699 95.5296 72.8699 95.7854 72.9174C96.6735 73.1584 97.1619 74.7696 96.9145 75.886C96.8985 76.0399 96.8472 76.188 96.7648 76.3189C96.6824 76.4498 96.5709 76.56 96.4391 76.641C96.3072 76.7219 96.1585 76.7715 96.0045 76.7857C95.8504 76.8 95.6952 76.7787 95.5507 76.7234C95.2335 76.5901 94.9988 76.089 94.7768 75.867C94.5121 75.571 94.1724 75.3518 93.7936 75.2327C93.3082 75.1139 92.8085 75.0648 92.3093 75.0868C91.9097 75.0868 91.1612 75.0424 90.9074 75.2961C90.7024 75.6856 90.6164 76.1268 90.66 76.5648C90.66 77.0532 90.5776 77.8334 90.8059 78.0491C90.9902 78.1497 91.1948 78.2077 91.4045 78.2187C91.6142 78.2296 91.8237 78.1934 92.0175 78.1125C92.5884 77.8461 92.2903 76.5584 92.8992 76.3364C93.0903 76.282 93.2931 76.2849 93.4825 76.3446C93.6719 76.4044 93.8396 76.5184 93.9649 76.6726C94.5485 77.3957 94.5104 79.6032 94.2123 80.7069C94.1416 81.0894 93.9425 81.4363 93.6477 81.6901C93.5148 81.7733 93.3651 81.8261 93.2094 81.8447C93.0537 81.8633 92.8958 81.8474 92.747 81.798C92.2649 81.5379 92.5313 80.3327 92.0365 80.0599C91.7162 79.9615 91.3737 79.9615 91.0533 80.0599C90.6347 80.2248 90.7171 80.9734 90.7171 81.6711C90.7171 82.3689 90.7171 82.9398 91.0977 83.1554C91.5326 83.3093 91.9975 83.3593 92.4552 83.3013C93.7873 83.3013 94.65 83.054 95.2589 82.3625C95.6078 81.9629 95.8235 81.2778 96.2865 81.0939C96.4927 81.024 96.7159 81.0227 96.9228 81.0902C97.1297 81.1576 97.3093 81.2902 97.4347 81.4681C97.5865 81.8731 97.6238 82.312 97.5425 82.7368C97.4938 83.1329 97.3935 83.5211 97.2444 83.8913C97.1154 84.2264 96.9561 84.5492 96.7686 84.8554C96.6037 85.1282 96.3436 85.4898 96.0518 85.5849C95.8395 85.6112 95.6241 85.5962 95.4175 85.5405C94.777 85.4167 94.1282 85.3404 93.4764 85.3122C92.4742 85.2678 91.491 85.3122 90.5839 85.3122H87.6787C86.8223 85.3122 85.4458 85.4581 85.1414 84.976C85.0778 84.8515 85.0394 84.7157 85.0285 84.5763C85.0176 84.437 85.0344 84.2969 85.0779 84.164C85.2429 83.7517 85.9343 83.6439 86.1626 83.2823C86.2644 83.0828 86.335 82.8689 86.372 82.648C86.5633 81.5424 86.642 80.4202 86.6067 79.2987C86.6067 78.214 86.6067 77.0532 86.5369 76.0383C86.5191 75.714 86.4417 75.3957 86.3085 75.0995C86.0992 74.8477 85.8146 74.6699 85.4966 74.592C85.5112 74.758 85.5519 74.9207 85.6171 75.0741C85.7789 75.6206 85.7789 76.2022 85.6171 76.7487C85.494 77.0493 85.2602 77.2912 84.964 77.4246C84.6677 77.558 84.3317 77.5726 84.025 77.4655C83.7633 77.3691 83.5233 77.2219 83.3187 77.0325C83.114 76.8431 82.9488 76.6152 82.8324 76.3618C82.6611 76.0763 82.4391 75.4293 81.9507 75.461C81.4623 75.4928 81.5384 76.0637 81.5384 76.6726C81.5384 78.1062 81.4306 79.5334 81.4306 81.0241C81.3907 81.5718 81.4399 82.1224 81.5764 82.6543C81.6367 82.8061 81.7299 82.9426 81.8492 83.054C82.0966 83.276 82.7119 83.3584 82.8959 83.6883C82.991 83.9375 82.991 84.213 82.8959 84.4622C82.7824 84.6468 82.63 84.8044 82.4492 84.9239C82.2683 85.0433 82.0636 85.1217 81.8492 85.1536C81.3635 85.28 80.8661 85.3565 80.3649 85.3819C78.9965 85.5168 77.6151 85.4051 76.2862 85.0521C75.9412 84.9552 75.6477 84.7276 75.4679 84.4178C75.4252 84.3142 75.405 84.2027 75.4085 84.0907C75.4121 83.9787 75.4393 83.8687 75.4885 83.768C75.5376 83.6674 75.6076 83.5782 75.6937 83.5065C75.7798 83.4348 75.8801 83.3822 75.988 83.3521C76.2925 83.2189 76.6223 83.1618 76.7619 82.889C76.8798 82.6315 76.9589 82.3578 76.9966 82.0771C77.1293 81.1142 77.1993 80.1438 77.2059 79.1719C77.2059 78.5946 77.2059 77.9032 77.2059 77.0976C77.2059 76.4633 77.2059 75.5498 76.7238 75.5054C76.4194 75.5054 76.21 75.7401 76.0895 75.9051C75.969 76.07 75.7787 76.3428 75.6518 76.5394C75.371 76.954 74.9737 77.2763 74.51 77.4655C74.2446 77.5518 73.9564 77.5343 73.7033 77.4166C73.4503 77.2989 73.2512 77.0898 73.1462 76.8312C73.0175 76.5858 72.9666 76.307 73.0003 76.0319C73.0433 75.6805 73.1351 75.3367 73.2731 75.0107C73.4002 74.7221 73.5464 74.4424 73.7108 74.1734C73.9385 73.7682 74.2372 73.4073 74.5925 73.1077C74.7802 72.9265 75.0241 72.8146 75.2839 72.7905C75.5998 72.8382 75.9132 72.9017 76.2227 72.9808C76.6858 73.0189 77.2313 72.9808 77.7958 72.9808H79.3436C80.4156 72.9808 81.5384 73.0442 82.4391 72.9808C82.8451 72.9491 83.232 72.7842 83.5873 72.7905C83.8159 72.7988 84.0393 72.8605 84.2398 72.9706C84.4403 73.0808 84.6122 73.2363 84.7417 73.4249C84.8321 73.5678 84.9362 73.7017 85.0526 73.8245L85.0653 73.8625Z" fill="black"/>
<path fill-rule="evenodd" clip-rule="evenodd" d="M98.4046 73.297C98.3555 73.1839 98.2767 73.0862 98.1767 73.0141C98.0766 72.942 97.959 72.8982 97.8361 72.8874C97.7133 72.8766 97.5898 72.8992 97.4787 72.9527C97.3676 73.0062 97.273 73.0888 97.205 73.1916C97.1369 73.2944 97.0978 73.4137 97.0919 73.5369C97.0859 73.66 97.1133 73.7825 97.1712 73.8914C97.2291 74.0003 97.3153 74.0916 97.4207 74.1555C97.5262 74.2195 97.6469 74.2538 97.7702 74.2549C97.8827 74.2513 97.9926 74.2209 98.0909 74.1661C98.1891 74.1113 98.2728 74.0337 98.3349 73.9399C98.3971 73.8461 98.4358 73.7388 98.4479 73.6269C98.46 73.5151 98.4452 73.402 98.4046 73.297ZM98.2396 73.8997C98.1679 73.994 98.0691 74.0643 97.9564 74.1012C97.8438 74.138 97.7225 74.1397 97.6089 74.1059C97.4953 74.0722 97.3946 74.0046 97.3203 73.9123C97.246 73.8199 97.2016 73.7071 97.193 73.5888C97.1887 73.5188 97.1983 73.4487 97.2212 73.3824C97.244 73.3161 97.2798 73.255 97.3263 73.2025C97.3729 73.1501 97.4293 73.1073 97.4925 73.0767C97.5556 73.0462 97.6241 73.0283 97.6941 73.0243C97.8022 73.0092 97.9123 73.0258 98.0112 73.0721C98.11 73.1183 98.1934 73.1922 98.2511 73.2849C98.3088 73.3775 98.3384 73.4848 98.3364 73.594C98.3344 73.7031 98.3008 73.8093 98.2396 73.8997Z" fill="black"/>
<path fill-rule="evenodd" clip-rule="evenodd" d="M52.4444 75.2824C51.8101 73.4745 49.7105 72.8466 47.2366 72.9607L44.5597 73.0876C44.1083 73.1257 43.6551 73.1384 43.2023 73.1257C42.2635 73.0622 40.9567 72.9734 40.6079 73.5887C40.5499 73.7095 40.5198 73.8417 40.5198 73.9757C40.5198 74.1096 40.5499 74.2418 40.6079 74.3626C40.8045 74.7242 41.5276 74.7495 41.8765 75.1365C42.2254 75.5234 42.1493 76.4051 42.1493 77.1854C42.1493 77.9656 42.1493 78.5175 42.1493 79.1962C42.1493 80.2365 42.1493 81.188 42.0605 82.1204C42.0585 82.4156 42.0026 82.708 41.8956 82.9831C41.6672 83.3891 41.0012 83.3764 40.8299 83.8585C40.7674 84.0565 40.77 84.2693 40.8373 84.4657C40.9047 84.662 41.0333 84.8316 41.2041 84.9495C41.6686 85.2003 42.181 85.3495 42.7075 85.3872C43.3394 85.455 43.975 85.4826 44.6105 85.4697C45.803 85.4697 47.3254 85.3619 47.687 84.6134C47.7442 84.4968 47.7776 84.37 47.7852 84.2404C47.7928 84.1108 47.7745 83.981 47.7314 83.8585C47.5601 83.4589 46.9638 83.4335 46.7482 83.0846C46.5936 82.774 46.5215 82.4289 46.5388 82.0824C46.5177 81.6908 46.5304 81.2982 46.5769 80.9089C46.808 80.9106 47.0389 80.9254 47.2683 80.9533C49.8564 81.0548 51.8545 80.1984 52.5206 78.3398C52.8037 77.3363 52.7772 76.2706 52.4444 75.2824ZM47.6109 78.6316C47.398 78.7757 47.155 78.869 46.9004 78.9044C46.3422 78.9742 46.3422 78.6253 46.3168 78.0417C46.2915 77.4581 46.3168 76.7731 46.3168 76.1831C46.3168 75.701 46.3168 75.1619 46.6911 75.054C46.8602 75.0281 47.0327 75.0367 47.1984 75.0792C47.3641 75.1217 47.5195 75.1973 47.6553 75.3014C48.4989 75.9738 48.4545 78.0163 47.6109 78.6316Z" fill="black"/>
<path fill-rule="evenodd" clip-rule="evenodd" d="M72.0541 83.0016C71.8272 82.3946 71.7468 81.7426 71.8194 81.0987C71.8194 80.3945 71.8194 79.7031 71.8194 79.0942C71.8194 78.4852 71.8765 77.8255 71.8829 77.1468C71.8829 76.8487 71.8829 76.5125 71.9463 76.2016C71.9523 75.9038 72.0037 75.6087 72.0985 75.3263C72.181 75.1677 72.4093 75.0598 72.5743 74.952C72.776 74.864 72.9353 74.7006 73.0182 74.4968C73.1012 74.293 73.1012 74.0648 73.0183 73.861C72.6758 73.011 70.8045 73.0046 69.669 73.0046C69.0169 72.9957 68.3652 73.0445 67.7217 73.1505C67.1317 73.2584 66.5418 73.4804 66.3642 73.899C66.317 74.0048 66.2926 74.1194 66.2926 74.2352C66.2926 74.3511 66.317 74.4656 66.3642 74.5714C66.5545 74.971 67.1635 75.0218 67.3855 75.4278C67.5706 76.0222 67.6353 76.6476 67.5758 77.2673C67.5758 78.7009 67.6075 79.8744 67.5123 81.2699C67.5451 81.8593 67.4318 82.4476 67.1825 82.9826C66.9795 83.2173 66.6243 83.3188 66.4086 83.5091C66.3325 83.5662 66.2944 83.6994 66.1549 83.6931C66.0169 83.6143 65.8699 83.5526 65.7172 83.5091C65.419 83.3949 65.2731 83.3378 65.1717 83.0651C65.0873 82.7728 65.0299 82.4734 65.0004 82.1707C64.9241 81.7501 64.8138 81.3364 64.6705 80.9337C64.4634 80.3209 64.03 79.8104 63.459 79.5065C63.1926 79.3923 62.387 79.3289 62.387 78.9863C62.387 78.6438 63.0213 78.5233 63.2052 78.4218C63.6062 78.1606 63.9274 77.7937 64.1333 77.3617C64.3392 76.9297 64.422 76.4493 64.3724 75.9733C64.2202 73.6199 62 72.9792 59.5642 72.9792C59.247 72.9792 58.8664 72.9793 58.5175 73.0237C57.528 73.0807 56.6146 73.0807 55.5679 73.0681C54.9336 73.0302 54.2973 73.043 53.6649 73.1061C53.075 73.1949 52.4534 73.3154 52.3265 73.7785C52.2775 73.9484 52.2775 74.1287 52.3265 74.2987C52.3899 74.489 52.5993 74.6095 52.8086 74.7173C53.0106 74.8044 53.2003 74.9174 53.3731 75.0535C53.5298 75.3435 53.6085 75.6691 53.6015 75.9987C53.6332 76.3475 53.6459 76.7281 53.6459 77.0643C53.72 78.8503 53.6691 80.6392 53.4937 82.4181C53.4641 82.7221 53.387 83.0196 53.2653 83.2998C53.1148 83.4279 52.9459 83.5327 52.7642 83.6106C52.5929 83.7121 52.3899 83.8136 52.3265 84.0102C52.2787 84.2018 52.2787 84.4022 52.3265 84.5938C52.5041 85.1901 53.6459 85.3613 54.5403 85.4121C55.0541 85.4121 55.5489 85.4501 56.031 85.4501C56.8904 85.5002 57.7515 85.3861 58.5683 85.114C58.6282 85.0929 58.6857 85.0652 58.7396 85.0315C58.89 84.9098 58.9977 84.7433 59.0467 84.5561C59.0958 84.369 59.0838 84.171 59.0123 83.9912C58.822 83.5789 58.2194 83.5598 58.0291 83.1729C57.891 82.7106 57.8479 82.2251 57.9023 81.7457V80.9781C57.8799 80.732 57.8949 80.484 57.9467 80.2423C58.8855 79.9442 59.3802 80.496 59.6403 81.2065C59.8179 81.6822 59.9258 82.2278 60.059 82.7099C60.3761 83.9024 60.6933 84.8539 61.7717 85.2472C62.9896 85.7039 65.1653 85.6087 66.0217 84.8856C66.1061 84.7944 66.2046 84.7173 66.3134 84.6572C66.4688 84.795 66.6442 84.9084 66.8336 84.9934C67.8358 85.4501 69.9037 85.5009 71.2739 85.3106C71.7173 85.2664 72.148 85.1372 72.5425 84.93C72.7173 84.8359 72.8557 84.6863 72.9361 84.5049C73.0165 84.3234 73.0343 84.1204 72.9866 83.9278C72.9041 83.4901 72.3079 83.3822 72.0541 83.0016ZM59.247 78.0222C59.0475 78.1576 58.8183 78.2433 58.5788 78.272C58.3393 78.3007 58.0965 78.2716 57.8705 78.1871C57.8023 77.655 57.7811 77.118 57.8071 76.5822C57.8071 75.8908 57.7246 75.0218 58.3082 74.9457C58.523 74.9335 58.7381 74.9615 58.9426 75.0281C58.9933 75.0281 59.0567 75.0281 59.0884 75.0281C59.3091 75.1785 59.4847 75.386 59.5964 75.6284C59.7082 75.8709 59.7519 76.1392 59.7228 76.4046C59.7824 76.9853 59.6115 77.5662 59.247 78.0222Z" fill="black"/>
<path fill-rule="evenodd" clip-rule="evenodd" d="M15.235 73.0245C16.345 72.9421 18.267 72.9801 18.895 73.4876C18.9586 73.5204 19.0164 73.5632 19.0663 73.6144C19.2017 73.8556 19.2381 74.1399 19.1678 74.4074C19.0219 74.9021 18.3812 74.9148 18.1655 75.3462C18.0479 75.7581 18.0112 76.1889 18.0577 76.6148C18.0017 76.938 18.0301 77.2701 18.1402 77.579C18.3495 77.9025 19.0536 77.8962 19.6308 77.8708C20.2081 77.8454 20.8995 77.8708 21.1342 77.598C21.3689 77.3253 21.2484 76.748 21.242 76.3674C21.2628 75.9798 21.191 75.5928 21.0327 75.2383C20.8424 74.9339 20.3223 74.8514 20.1954 74.5659C20.0996 74.3234 20.0996 74.0536 20.1954 73.8111C20.3794 73.3861 20.9629 73.2148 21.5338 73.126C22.1643 73.04 22.8006 73.004 23.4368 73.0182C24.0723 73.0023 24.7081 73.0298 25.3398 73.1006C25.8663 73.1831 26.5197 73.329 26.7163 73.735C26.8192 73.9479 26.8335 74.1929 26.7563 74.4163C26.679 74.6398 26.5164 74.8236 26.304 74.9275C26.0946 75.048 25.8599 75.0924 25.7394 75.2637C25.6141 75.5385 25.5492 75.837 25.5491 76.1391C25.4508 77.8546 25.4508 79.5743 25.5491 81.2898C25.5491 81.5562 25.5491 81.9241 25.5872 82.2921C25.5857 82.5983 25.635 82.9027 25.7331 83.1928C25.8282 83.345 26.0439 83.4021 26.1961 83.4846C26.3611 83.5523 26.5008 83.6699 26.5958 83.8208C26.6658 83.9942 26.6869 84.1835 26.6566 84.3681C26.6264 84.5527 26.5461 84.7254 26.4245 84.8674C26.0003 85.1649 25.5018 85.3384 24.9846 85.3686C24.3669 85.4543 23.7425 85.4819 23.1197 85.451C22.5161 85.4534 21.9135 85.4046 21.3182 85.3051C20.7917 85.1909 20.2398 84.9372 20.1066 84.5947C20.0332 84.3635 20.0332 84.1153 20.1066 83.8842C20.1984 83.6751 20.3509 83.4983 20.5443 83.3768C20.7536 83.2436 21.0264 83.1801 21.1088 83.0025C21.1635 82.7955 21.1912 82.5823 21.1913 82.3682C21.1913 82.1335 21.1913 81.8988 21.2357 81.6768C21.2357 81.2962 21.3308 80.5667 21.1279 80.2939C20.9532 80.1367 20.7284 80.0468 20.4935 80.0402C19.9135 80.0075 19.3316 80.0288 18.7555 80.1036C18.4988 80.1161 18.2516 80.2044 18.045 80.3574C17.8796 80.8206 17.836 81.3186 17.9182 81.8036C17.9157 82.2681 18.0018 82.7288 18.1719 83.1611C18.2797 83.326 18.4827 83.3958 18.6286 83.4973C18.7981 83.5856 18.9372 83.7225 19.0282 83.8906C19.0801 84.0988 19.0801 84.3166 19.0282 84.5249C18.8823 84.9499 18.2163 85.2163 17.7088 85.3241C17.0661 85.4384 16.4142 85.4936 15.7614 85.4891C15.1047 85.5109 14.4476 85.462 13.8014 85.3432C13.2432 85.2227 12.6405 84.9816 12.482 84.5503C12.4376 84.4515 12.4137 84.3447 12.4118 84.2365C12.4099 84.1282 12.43 84.0207 12.471 83.9204C12.5119 83.8202 12.5728 83.7293 12.6499 83.6533C12.727 83.5773 12.8188 83.5177 12.9197 83.4783C13.0909 83.4021 13.3193 83.3768 13.4398 83.2499C13.7189 82.9644 13.7316 81.9368 13.757 81.3913C13.8204 79.9894 13.8331 78.6256 13.757 77.1413C13.757 76.8622 13.757 76.4689 13.7189 76.0947C13.7156 75.7909 13.6509 75.491 13.5286 75.213C13.4017 75.0607 13.167 75.0227 13.0021 74.9465C12.9033 74.9116 12.8129 74.8562 12.7371 74.7838C12.6612 74.7114 12.6015 74.6238 12.562 74.5268C12.5224 74.4297 12.5039 74.3253 12.5076 74.2205C12.5113 74.1158 12.5372 74.013 12.5835 73.9189C12.7103 73.7466 12.8707 73.6016 13.0549 73.4926C13.239 73.3836 13.4433 73.3129 13.6555 73.2846C14.1713 73.176 14.6955 73.1124 15.2223 73.0943L15.235 73.0245Z" fill="black"/>
<path fill-rule="evenodd" clip-rule="evenodd" d="M97.5139 73.2703C97.5583 73.4479 97.4188 73.8602 97.5964 73.9046C97.774 73.949 97.5964 73.5811 97.7232 73.5938C97.8501 73.6065 97.8311 73.911 98.0404 73.9046C98.0785 73.8222 97.9389 73.7461 97.9326 73.6382C97.9262 73.5304 98.0721 73.5621 98.1038 73.486C98.1863 73.1498 97.6788 73.1625 97.5139 73.2703ZM97.6408 73.4796V73.3337C97.755 73.302 97.9326 73.2703 97.996 73.3781C98.0594 73.486 97.7359 73.5494 97.6408 73.4796Z" fill="black"/>
</g>
<defs>
<clipPath id="clip0_445_91505">
<rect width="97.6866" height="85" fill="white" transform="translate(0.927277 0.710938)"/>
</clipPath>
</defs>
</svg>
