<svg width="56" height="57" viewBox="0 0 56 57" fill="none" xmlns="http://www.w3.org/2000/svg">
<path d="M27.0324 10.4143C28.7184 10.4143 30.0862 11.7821 30.0862 13.468C30.0862 14.8623 29.1515 16.0357 27.8742 16.4003V16.8953C28.4112 16.9461 28.9459 17.0411 29.4696 17.1914L29.7083 17.2599C30.4353 17.4676 31.0385 17.978 31.3611 18.6608L35.5905 27.5771L39.5547 20.7448C39.9193 20.0753 40.4806 19.5516 41.2098 19.3439L41.4484 19.2754C42.0185 19.1118 42.6019 19.0102 43.1896 18.9638V18.5218C41.6694 18.1661 40.5844 16.679 40.8805 14.9952C41.0904 13.7997 42.0384 12.8142 43.2272 12.5667C45.2005 12.1557 46.9395 13.6495 46.9395 15.552C46.9395 16.9993 45.9319 18.208 44.5817 18.5218V18.9637C45.1695 19.0101 45.7507 19.1118 46.323 19.2753L46.5616 19.3438C47.2886 19.5515 47.8919 20.0619 48.2167 20.7448L52.3908 29.8223C52.6449 30.3592 52.4217 31.0022 51.887 31.2674C51.7323 31.3448 51.5688 31.3801 51.4053 31.3801C50.9965 31.3801 50.6031 31.1481 50.4175 30.7525L47.7924 24.9209C47.6157 24.5276 47.0411 24.5873 46.9461 25.0071L46.5351 26.8456L51.6307 39.2617H47.2069L47.0676 46.2954C47.0522 46.9694 46.5086 47.5107 45.8346 47.524H45.8236C45.1275 47.5306 44.5574 46.965 44.5574 46.2689L44.5552 39.2618H43.4238V46.2774C43.4238 46.969 42.8604 47.528 42.1687 47.5214H42.1466C41.4727 47.5104 40.9269 46.9668 40.9136 46.2928L40.8274 39.2614H36.1362L41.2318 26.8452L40.7722 24.7814C40.6838 24.3881 40.1623 24.3019 39.9524 24.6466L36.461 30.403C36.2754 30.7985 35.8821 31.0305 35.4733 31.0305C35.312 31.0305 35.1485 30.9952 34.9916 30.9179C34.6933 30.7698 34.4944 30.5024 34.4193 30.2019L31.0252 22.9742C30.8727 22.6494 30.3844 22.7577 30.3844 23.1178L30.3866 32.3322L30.1214 45.6744C30.106 46.3484 29.5624 46.8897 28.8884 46.903H28.8663C28.1747 46.9096 27.6112 46.3506 27.6112 45.659L27.6068 32.3321H26.4754V45.659C26.4754 46.3506 25.9119 46.9096 25.2203 46.903H25.1982C24.5242 46.892 23.9784 46.3484 23.9651 45.6744L23.6978 23.0737C23.6934 22.7157 23.2094 22.6119 23.057 22.9345L19.5767 30.3438C19.4287 30.6598 19.1458 30.8675 18.8299 30.9382L16.1075 34.0229L15.6368 34.5864C15.5926 34.6395 15.544 34.6836 15.4932 34.7212H15.491C15.3518 34.8229 15.1861 34.8715 15.0225 34.8715C14.7817 34.8715 14.5408 34.7632 14.3817 34.5489L13.3189 33.1125L13.352 45.8822C13.352 46.4302 12.9079 46.8744 12.3599 46.8744H12.3422C11.8097 46.8656 11.381 46.4369 11.3677 45.9044L11.2086 37.6047H10.5369V45.8908C10.5369 46.4366 10.0905 46.8785 9.5447 46.8741H9.52702C8.99448 46.8653 8.56582 46.4366 8.55252 45.9041L8.3647 33.1146L5.94511 38.2455C5.8059 38.5372 5.51422 38.7095 5.21147 38.7095C5.09215 38.7095 4.97282 38.683 4.86013 38.6255C4.46681 38.4311 4.29887 37.9604 4.48669 37.5605L7.64213 30.9448C7.88077 30.4344 8.32711 30.0609 8.86185 29.9063L9.04304 29.8621C9.3524 29.7715 9.66399 29.7074 9.97993 29.6676C9.9976 29.6654 10.0131 29.6654 10.0307 29.6632C9.08498 29.3008 8.44197 28.3285 8.60551 27.2237C8.74914 26.2404 9.57113 25.4449 10.5589 25.3278C11.9267 25.1665 13.0868 26.2294 13.0868 27.564C13.0868 28.523 12.4835 29.3383 11.6394 29.6632C11.6593 29.6654 11.6792 29.6676 11.6991 29.6698C12.0151 29.7096 12.3311 29.7736 12.6405 29.8642L12.815 29.9084C13.3498 30.0631 13.7276 30.4498 14.0347 30.947L15.2147 32.6993L17.5216 30.0764C17.4818 29.8598 17.5039 29.63 17.6056 29.4157L22.7055 18.6632C23.0304 17.9804 23.6336 17.4677 24.3606 17.26L24.5993 17.1915C25.123 17.0412 25.6577 16.9462 26.1947 16.8954L26.1902 16.4004C24.913 16.0336 23.9783 14.8625 23.9783 13.4682C23.9805 11.7822 25.3464 10.4143 27.0324 10.4143ZM27.0321 9.00019C24.5683 9.00019 22.5641 11.0044 22.5641 13.4682C22.5641 14.4338 22.8801 15.3508 23.4259 16.0977C22.553 16.4888 21.8393 17.1805 21.4239 18.0555L16.3239 28.8079C16.2134 29.04 16.1405 29.2852 16.1073 29.5372L15.3605 30.3879L15.2213 30.178C14.9207 29.6963 14.5805 29.3162 14.196 29.0334C14.3705 28.6312 14.4766 28.1915 14.4965 27.7341C14.5893 25.71 12.9276 23.9334 10.9035 23.8958C8.85069 23.8582 7.16688 25.5177 7.16688 27.5617C7.16688 28.0721 7.27516 28.5693 7.47624 29.0223C7.00116 29.3559 6.61448 29.8089 6.36479 30.3437L3.20936 36.9554C2.69671 38.0514 3.15853 39.3683 4.23465 39.8987C4.53076 40.0467 4.87105 40.1262 5.21136 40.1262C5.94279 40.1262 6.62557 39.7594 7.0388 39.1695L7.13602 45.9288C7.16475 47.2347 8.20329 48.2688 9.4982 48.291H9.54239C10.0661 48.291 10.5522 48.123 10.9478 47.838C11.3323 48.1164 11.8029 48.2821 12.3156 48.291H12.3598C13.6856 48.291 14.7661 47.2127 14.7661 45.8846L14.7418 36.268C14.8346 36.2791 14.9297 36.2857 15.0247 36.2857C15.4489 36.2857 15.8578 36.1664 16.2113 35.941L16.2378 35.9277L16.3262 35.8636C16.4743 35.7554 16.6068 35.6316 16.7217 35.4946L17.1814 34.9444L19.6518 32.1425C20.1799 31.8972 20.6042 31.4796 20.8561 30.9427L22.3388 27.7872L22.5509 45.6882C22.5841 47.1422 23.7354 48.2891 25.1738 48.3133H25.2224C25.9251 48.3133 26.5659 48.0393 27.0433 47.593C27.5206 48.0394 28.1614 48.3133 28.8641 48.3133H28.9127C30.3512 48.289 31.5046 47.1422 31.5356 45.7037L31.8008 32.3592L31.803 27.9421L33.0979 30.6998C33.3056 31.3494 33.7608 31.8842 34.3707 32.1847C34.7132 32.3526 35.0954 32.4432 35.4777 32.4432C36.4146 32.4432 37.2786 31.9129 37.7051 31.0843L38.516 29.7474L34.8325 38.7253L34.3154 39.9827C34.1806 40.3141 34.4237 40.6765 34.7794 40.6765H39.4309L39.4972 46.3112C39.5303 47.7652 40.6816 48.9121 42.1201 48.9363H42.1687C42.8714 48.9363 43.5122 48.6623 43.9895 48.216C44.4668 48.6624 45.1076 48.9363 45.8103 48.9363H45.8589C47.2975 48.9098 48.4509 47.7652 48.4818 46.3267L48.5945 40.6765H52.9918C53.3498 40.6765 53.5928 40.3141 53.4558 39.9826L52.9388 38.7253L50.4241 32.591C50.7291 32.7214 51.0627 32.7921 51.403 32.7921C51.7831 32.7921 52.1654 32.7037 52.5101 32.5336C53.7298 31.9325 54.2491 30.4432 53.6658 29.2146L49.4983 20.1524C49.0784 19.2663 48.3691 18.5746 47.4985 18.1835C48.1305 17.3173 48.4509 16.2169 48.3249 15.0523C48.1061 13.0128 46.4467 11.3467 44.4115 11.1125C41.7135 10.8031 39.4176 12.9134 39.4176 15.5496C39.4176 16.5285 39.7314 17.4411 40.2727 18.1858C39.4684 18.5548 38.79 19.2 38.3238 20.0486L35.7163 24.5409L32.6404 18.0531C32.225 17.178 31.5113 16.4864 30.6384 16.0953C31.1842 15.3484 31.5002 14.4336 31.5002 13.4658C31.5002 11.0042 29.4959 9.00019 27.0321 9.00019Z" fill="white"/>
</svg>
